<svg width="219" height="185" viewBox="0 0 219 185" fill="none" xmlns="http://www.w3.org/2000/svg">
<path d="M216.559 90.7159C218.43 88.1019 219.052 85.8179 215.856 83.4709C211.719 80.4339 207.577 77.4219 203.234 74.6889C202.135 73.9969 201.035 73.3069 199.712 72.4749C202.921 71.4229 203.622 69.7989 202.084 67.8089C200.715 66.0369 198.175 66.0269 196.58 67.7329C195.844 68.5199 195.707 69.7709 194.523 70.3089C188.63 68.1209 182.636 66.2059 176.15 67.1629C175.72 65.0129 175.285 63.1999 174.212 61.5249C173.04 59.6949 175.054 58.0719 174.928 56.1199C174.541 50.1149 168.285 43.5099 162.224 43.2349C161.063 43.1819 160.207 43.0119 159.336 42.1269C155.783 38.5189 151.699 36.9159 146.846 39.3629C142.378 34.9019 135.157 36.9349 131.802 43.4859C126.717 43.5109 123.514 45.9909 121.662 51.4949C120.643 46.9589 118.332 43.2139 116.075 39.4529C113.666 35.4379 110.695 31.8279 107.791 28.1669C97.6705 15.4069 84.7865 6.54593 69.5755 0.958927C65.2535 -0.628073 61.1415 -0.361074 57.4045 2.63493C55.2145 4.38993 54.5355 6.48793 55.4005 9.20293C56.1585 11.5839 57.5135 13.6009 59.0475 15.4369C52.6905 22.3379 52.8695 27.0189 59.5695 33.4009C60.8035 34.5759 62.1215 35.6639 63.2905 36.6939C60.3065 40.2999 60.1565 44.0989 61.7345 48.1169C63.3145 52.1379 66.1145 54.9809 70.4065 56.3879C66.6865 60.8799 66.7605 65.7259 68.3645 70.4469C70.1065 75.5709 74.5725 77.8419 79.4965 79.1019C78.7355 85.0929 80.6485 88.7509 86.3575 92.2129C85.3305 94.0189 84.3805 95.8849 83.2465 97.6319C81.9525 99.6259 80.6495 101.652 79.0775 103.421C75.3745 107.591 69.6835 107.096 66.6605 102.507C65.9595 101.443 65.9445 100.257 65.8785 99.0759C65.6285 94.6019 66.3785 90.0969 65.4935 85.6439C63.5095 75.6599 57.2715 67.9799 45.5155 69.4329C43.4495 69.6879 41.3005 69.5319 39.2155 69.3149C34.2865 68.8029 31.2925 64.7309 32.1035 59.8199C32.2025 59.2199 32.1585 58.7289 31.2955 58.3999C29.6605 59.7959 29.3485 61.9539 28.8405 63.8619C27.6015 68.5219 27.1515 73.0879 31.8875 76.4189C33.2165 77.3539 34.2595 78.6999 35.4125 79.8779C41.4015 85.9899 42.1895 92.1009 37.9585 99.5489C34.8585 105.007 35.2555 107.762 39.8205 112.164C40.7415 113.052 41.6395 114.03 42.7215 114.676C46.4445 116.898 46.5055 120.895 47.6885 124.379C48.4755 126.695 46.5205 127.861 45.8025 129.542C45.1195 131.141 44.3455 132.701 43.6675 134.301C41.6625 139.029 39.4435 143.647 36.6965 147.994C36.2715 148.666 35.9795 149.73 35.0335 149.65C31.3255 149.336 28.6985 151.504 26.1555 153.588C21.9435 149.962 21.4435 149.927 17.4565 153.458C15.5685 155.131 13.5405 156.248 11.0355 156.879C7.46254 157.779 4.95354 160.159 3.98154 163.851C3.63154 165.18 3.22654 166.242 2.04354 167.242C0.341544 168.681 -0.216456 170.794 0.0725437 173.187C0.335544 175.361 0.573544 177.549 0.787544 179.718C1.14754 183.379 2.73554 184.923 6.27554 183.925C9.77454 182.939 12.7215 180.873 15.6045 178.774C16.8325 177.881 18.0145 177.199 19.5445 177.084C29.0135 176.373 37.8725 173.745 45.9255 168.614C46.4815 168.26 47.0465 168.061 47.7255 168.395C51.6875 170.347 56.0755 170.165 60.2675 170.979C67.2485 172.335 73.9665 170.271 80.6125 169.41C88.7995 168.349 95.1285 162.772 99.7415 155.758C100.741 154.238 101.825 153.073 103.597 152.491C105.812 151.764 107.143 150.195 107.078 147.777C107.007 145.133 108.403 143.635 110.555 142.365C119.239 137.244 126.811 130.819 132.943 122.766C133.935 121.464 134.92 120.157 136.062 118.649C150.659 134.63 169.461 139.449 190.116 139.919C190.439 141.933 189.434 143.779 187.962 145.32C181.606 151.972 174.119 156.067 164.58 155.338C162.572 155.184 160.562 155.045 158.551 154.94C151.353 154.565 144.152 153.233 136.967 155.178C133.866 156.017 131.084 157.304 129.304 160.092C128.274 161.705 128.648 163.337 130.056 164.539C131.248 165.557 132.819 165.959 134.074 164.803C135.569 163.426 134.707 161.993 133.659 160.707C133.588 160.62 133.678 160.402 133.699 160.172C135.641 159.334 137.71 159.12 139.83 159.116C147.37 159.101 154.75 160.353 162.121 161.783C165.788 162.495 169.453 163.581 173.251 163.087C182.255 161.916 188.728 156.505 194.615 150.158C195.358 149.357 195.483 148.107 196.473 147.485C200.692 144.833 202.205 140.455 203.805 136.043C204.977 136.527 206.009 137.209 206.812 138.25C206.291 139.035 204.957 138.803 204.788 140.512C208.023 142.603 211.904 143.013 216.256 143.766C214.639 140.067 213.249 136.849 211.816 133.651C211.587 133.139 211.092 132.757 210.477 132.943C209.71 133.174 209.652 133.81 209.754 134.503C209.935 135.726 210.889 136.807 210.395 138.487C208.267 137.422 206.571 136.054 205.036 134.481C209.14 128.412 211.687 121.913 212.568 114.801C213.5 107.276 209.098 101.419 205.932 94.9659C206.866 94.8639 207.494 94.8579 208.091 94.7189C211.203 94.0029 214.494 93.5999 216.559 90.7159ZM189.766 127.62C184.84 125.027 179.959 122.349 175.058 119.708C173.2 118.707 171.278 117.92 169.147 117.657C164.385 117.07 164.389 117.042 161.87 112.189C164.313 111.547 166.727 110.926 169.13 110.272C169.859 110.073 170.368 110.441 170.872 110.827C178.196 116.42 185.516 122.019 192.827 127.629C192.928 127.707 192.91 127.941 192.97 128.201C191.71 129.106 190.712 128.118 189.766 127.62ZM198.55 129.137C188.768 123.325 180.009 116.311 170.918 109.48C172.173 107.327 173.231 105.852 176.227 106.775C179.404 107.754 181.955 105.825 183.641 103.246C185.135 100.961 186.592 100.02 189.429 101.045C192.03 101.985 194.665 101.06 196.999 99.5839C197.994 98.9549 198.963 98.2839 199.948 97.6299C205.699 107.365 205.531 118.552 198.55 129.137Z" fill="#AD1B1F"/>
<path d="M216.559 90.7159C218.43 88.1019 219.052 85.8179 215.856 83.4709C211.719 80.4339 207.577 77.4219 203.234 74.6889C202.135 73.9969 201.035 73.3069 199.712 72.4749C202.921 71.4229 203.622 69.7989 202.084 67.8089C200.715 66.0369 198.175 66.0269 196.58 67.7329C195.844 68.5199 195.707 69.7709 194.523 70.3089C188.63 68.1209 182.636 66.2059 176.15 67.1629C175.72 65.0129 175.285 63.1999 174.212 61.5249C173.04 59.6949 175.054 58.0719 174.928 56.1199C174.541 50.1149 168.285 43.5099 162.224 43.2349C161.063 43.1819 160.207 43.0119 159.336 42.1269C155.783 38.5189 151.699 36.9159 146.846 39.3629C142.378 34.9019 135.157 36.9349 131.802 43.4859C126.717 43.5109 123.514 45.9909 121.662 51.4949C120.643 46.9589 118.332 43.2139 116.075 39.4529C113.666 35.4379 110.695 31.8279 107.791 28.1669C97.6705 15.4069 84.7865 6.54593 69.5755 0.958927C65.2535 -0.628073 61.1415 -0.361074 57.4045 2.63493C55.2145 4.38993 54.5355 6.48793 55.4005 9.20293C56.1585 11.5839 57.5135 13.6009 59.0475 15.4369C52.6905 22.3379 52.8695 27.0189 59.5695 33.4009C60.8035 34.5759 62.1215 35.6639 63.2905 36.6939C60.3065 40.2999 60.1565 44.0989 61.7345 48.1169C63.3145 52.1379 66.1145 54.9809 70.4065 56.3879C66.6865 60.8799 66.7605 65.7259 68.3645 70.4469C70.1065 75.5709 74.5725 77.8419 79.4965 79.1019C78.7355 85.0929 80.6485 88.7509 86.3575 92.2129C85.3305 94.0189 84.3805 95.8849 83.2465 97.6319C81.9525 99.6259 80.6495 101.652 79.0775 103.421C75.3745 107.591 69.6835 107.096 66.6605 102.507C65.9595 101.443 65.9445 100.257 65.8785 99.0759C65.6285 94.6019 66.3785 90.0969 65.4935 85.6439C63.5095 75.6599 57.2715 67.9799 45.5155 69.4329C43.4495 69.6879 41.3005 69.5319 39.2155 69.3149C34.2865 68.8029 31.2925 64.7309 32.1035 59.8199C32.2025 59.2199 32.1585 58.7289 31.2955 58.3999C29.6605 59.7959 29.3485 61.9539 28.8405 63.8619C27.6015 68.5219 27.1515 73.0879 31.8875 76.4189C33.2165 77.3539 34.2595 78.6999 35.4125 79.8779C41.4015 85.9899 42.1895 92.1009 37.9585 99.5489C34.8585 105.007 35.2555 107.762 39.8205 112.164C40.7415 113.052 41.6395 114.03 42.7215 114.676C46.4445 116.898 46.5055 120.895 47.6885 124.379C48.4755 126.695 46.5205 127.861 45.8025 129.542C45.1195 131.141 44.3455 132.701 43.6675 134.301C41.6625 139.029 39.4435 143.647 36.6965 147.994C36.2715 148.666 35.9795 149.73 35.0335 149.65C31.3255 149.336 28.6985 151.504 26.1555 153.588C21.9435 149.962 21.4435 149.927 17.4565 153.458C15.5685 155.131 13.5405 156.248 11.0355 156.879C7.46254 157.779 4.95354 160.159 3.98154 163.851C3.63154 165.18 3.22654 166.242 2.04354 167.242C0.341544 168.681 -0.216456 170.794 0.0725437 173.187C0.335544 175.361 0.573544 177.549 0.787544 179.718C1.14754 183.379 2.73554 184.923 6.27554 183.925C9.77454 182.939 12.7215 180.873 15.6045 178.774C16.8325 177.881 18.0145 177.199 19.5445 177.084C29.0135 176.373 37.8725 173.745 45.9255 168.614C46.4815 168.26 47.0465 168.061 47.7255 168.395C51.6875 170.347 56.0755 170.165 60.2675 170.979C67.2485 172.335 73.9665 170.271 80.6125 169.41C88.7995 168.349 95.1285 162.772 99.7415 155.758C100.741 154.238 101.825 153.073 103.597 152.491C105.812 151.764 107.143 150.195 107.078 147.777C107.007 145.133 108.403 143.635 110.555 142.365C119.239 137.244 126.811 130.819 132.943 122.766C133.935 121.464 134.92 120.157 136.062 118.649C150.659 134.63 169.461 139.449 190.116 139.919C190.439 141.933 189.434 143.779 187.962 145.32C181.606 151.972 174.119 156.067 164.58 155.338C162.572 155.184 160.562 155.045 158.551 154.94C151.353 154.565 144.152 153.233 136.967 155.178C133.866 156.017 131.084 157.304 129.304 160.092C128.274 161.705 128.648 163.337 130.056 164.539C131.248 165.557 132.819 165.959 134.074 164.803C135.569 163.426 134.707 161.993 133.659 160.707C133.588 160.62 133.678 160.402 133.699 160.172C135.641 159.334 137.71 159.12 139.83 159.116C147.37 159.101 154.75 160.353 162.121 161.783C165.788 162.495 169.453 163.581 173.251 163.087C182.255 161.916 188.728 156.505 194.615 150.158C195.358 149.357 195.483 148.107 196.473 147.485C200.692 144.833 202.205 140.455 203.805 136.043C204.977 136.527 206.009 137.209 206.812 138.25C206.291 139.035 204.957 138.803 204.788 140.512C208.023 142.603 211.904 143.013 216.256 143.766C214.639 140.067 213.249 136.849 211.816 133.651C211.587 133.139 211.092 132.757 210.477 132.943C209.71 133.174 209.652 133.81 209.754 134.503C209.935 135.726 210.889 136.807 210.395 138.487C208.267 137.422 206.571 136.054 205.036 134.481C209.14 128.412 211.687 121.913 212.568 114.801C213.5 107.276 209.098 101.419 205.932 94.9659C206.866 94.8639 207.494 94.8579 208.091 94.7189C211.203 94.0029 214.494 93.5999 216.559 90.7159ZM189.766 127.62C184.84 125.027 179.959 122.349 175.058 119.708C173.2 118.707 171.278 117.92 169.147 117.657C164.385 117.07 164.389 117.042 161.87 112.189C164.313 111.547 166.727 110.926 169.13 110.272C169.859 110.073 170.368 110.441 170.872 110.827C178.196 116.42 185.516 122.019 192.827 127.629C192.928 127.707 192.91 127.941 192.97 128.201C191.71 129.106 190.712 128.118 189.766 127.62ZM198.55 129.137C188.768 123.325 180.009 116.311 170.918 109.48C172.173 107.327 173.231 105.852 176.227 106.775C179.404 107.754 181.955 105.825 183.641 103.246C185.135 100.961 186.592 100.02 189.429 101.045C192.03 101.985 194.665 101.06 196.999 99.5839C197.994 98.9549 198.963 98.2839 199.948 97.6299C205.699 107.365 205.531 118.552 198.55 129.137Z" fill="#AD1B1F"/>
<path d="M74.6406 107.936C81.1996 111.416 82.1616 116.845 81.8836 122.81C81.8156 124.274 81.7406 125.738 81.6176 127.197C81.4776 128.859 81.6246 130.493 82.0016 132.107C84.5076 142.832 88.6296 145.452 99.4906 143.812C109.516 142.298 116.619 135.948 123.808 129.699C125.777 127.988 127.419 125.901 129.197 124.002C128.321 122.996 126.559 123.637 126.762 121.535C133.023 122.257 134.206 116.222 137.545 112.526C138.332 114.663 136.152 116.174 137.742 117.746C142.581 122.53 147.756 127.029 153.723 130.201C163.678 135.495 174.726 137.003 185.825 137.75C188.523 137.932 191.7 138.276 193.38 135.093C194.551 132.875 196.235 132.697 198.276 134.018C198.324 131.387 196.096 129.306 194.016 130.092C191.937 130.878 190.296 130.341 188.559 129.38C183.673 126.676 178.76 124.02 173.879 121.308C171.763 120.132 169.449 119.068 167.138 119.198C164.483 119.347 163.349 117.944 162.182 116.151C161.233 114.693 160.31 113.217 159.323 111.785C156.364 107.494 153.719 102.961 149.803 99.4046C147.957 97.7286 146.005 96.0656 143.443 95.8896C140.685 95.6996 137.979 95.3686 135.324 94.6276C134.607 94.4276 133.971 94.1926 133.298 94.8246C131.677 96.3466 129.553 97.0796 127.73 98.1966C127.278 100.212 128.333 102.557 126.15 104.459C125.899 103.763 125.654 103.431 125.689 103.132C126.479 96.3736 123.944 90.3296 121.473 84.3356C120.308 81.5106 118.398 79.2806 114.746 79.1936C112.284 79.1346 110.276 77.6246 108.831 75.6016C108.27 74.8166 107.847 74.1736 106.702 74.3096C98.8656 75.2356 93.5386 70.9086 88.7496 65.5716C88.0296 64.7696 86.8646 63.9666 87.5436 62.5256C89.0096 62.8886 89.0126 62.8866 90.1456 64.0966C94.9196 69.1976 100.095 73.4106 107.779 72.1156C109.238 71.8696 109.782 72.7816 110.443 73.9126C112.782 77.9196 118.486 78.5236 120.044 74.7666C121.373 71.5616 122.579 71.7346 124.684 73.6926C124.911 73.9036 125.33 73.9096 125.814 74.0586C126.397 71.9776 125.028 70.7916 123.957 69.7086C118.862 64.5586 113.467 59.7166 107.301 55.8816C102.052 52.6166 96.4746 50.1126 90.0566 50.2306C87.9776 50.2686 86.5556 51.1246 85.7156 52.9706C82.7776 59.4256 84.2876 67.7306 89.2236 72.8886C91.9766 75.7646 95.2076 77.9886 98.5386 80.0976C99.2356 80.5386 100.046 80.8686 100.144 81.8276C100.49 85.2266 102.768 87.3636 105.108 89.4546C105.97 90.2246 106.597 90.9186 106.07 92.2596C104.718 95.7016 104.862 99.2446 105.636 102.806C105.832 103.707 106.32 104.679 105.23 106.198C102.555 101.062 102.686 96.3206 104.432 91.5136C101.409 88.9986 98.6286 86.4936 98.2796 82.3346C98.1746 81.0776 97.0776 80.9156 96.0696 80.7596C92.5516 84.4076 90.4946 88.9236 88.0646 93.2186C84.8496 98.9006 82.2786 105.194 74.6406 107.936Z" fill="#FFFCED"/>
<path d="M79.8802 143.767C80.9022 143.813 81.2172 143.732 81.4042 143.851C82.3292 144.438 83.3242 144.971 84.1082 145.718C88.8832 150.27 94.3482 152.051 100.967 150.78C104.891 150.026 105.466 149.699 105.075 145.114C100.425 146.333 95.7402 146.738 90.9652 146.09C87.0432 145.558 84.4362 143.369 82.8012 139.946C80.5212 135.175 79.1272 130.219 79.7612 124.816C79.9932 122.836 79.6752 120.797 79.7602 118.791C79.9342 114.701 77.6332 112.123 74.5142 110.082C73.3792 109.339 72.0432 108.908 70.8122 108.309C66.5792 106.249 63.6232 103.304 63.8042 98.18C63.8722 96.26 63.8652 94.337 63.9382 92.418C64.1972 85.543 62.5072 79.366 57.5552 74.329C54.6732 71.398 51.2142 69.929 47.1322 70.695C40.9832 71.849 35.5132 70.899 31.0032 66.253C30.9322 66.18 30.6732 66.291 30.5042 66.315C29.7112 69.787 30.3222 72.721 33.3122 75.047C34.9602 76.329 36.3492 77.958 37.7872 79.494C40.6232 82.523 42.2932 85.996 42.6122 90.265C42.9342 94.569 41.4492 98.157 39.2732 101.615C37.9332 103.745 37.5732 105.892 39.0882 108.025C41.3162 111.163 44.4532 113.308 47.6042 115.888C48.2482 110.862 47.0132 106.215 47.2592 100.966C48.8812 102.919 48.8832 102.918 49.0942 104.639C50.1652 113.363 48.2942 122.266 50.6842 130.913C50.7792 131.257 50.7392 131.642 50.7392 132.008C50.7562 138.767 53.3002 144.612 56.9862 150.147C61.4272 156.814 67.4372 161.849 73.5772 166.783C74.3732 167.423 75.3622 167.624 76.3462 167.892C79.8402 168.844 82.5192 166.702 85.4332 165.571C91.4072 163.253 95.0972 158.404 99.3472 152.927C90.6612 153.882 85.1582 149.77 79.8802 143.767Z" fill="#FFFCED"/>
<path d="M116.518 60.4753C116.38 58.0643 116.179 56.2093 117.555 55.0813C120.564 52.6163 119.521 50.0023 118.258 47.2323C114.761 39.5633 109.549 33.1063 104.167 26.7143C94.6484 15.4073 82.6274 7.88534 68.9724 2.69234C66.6744 1.81834 64.3574 1.57534 61.9784 2.22834C57.2584 3.52234 55.9764 6.39233 58.1344 10.7153C58.9244 12.2983 60.0674 13.5963 61.2824 14.8443C61.7904 15.3663 62.4164 15.8253 62.0804 16.6993C54.6034 19.4853 55.3894 26.1523 59.2404 30.2003C61.0634 32.1163 62.7064 34.2233 65.0554 35.5883C66.7644 36.5813 66.7424 37.6143 64.9544 38.5363C63.8954 39.0823 63.4344 39.9453 63.1934 41.1273C62.0794 46.5893 64.8354 51.8853 69.9644 54.0833C71.2324 54.6263 72.8654 54.6573 73.7704 56.5293C68.8124 60.0383 68.7334 64.9983 70.5234 70.0063C72.4384 75.3643 77.5054 76.7513 82.5344 77.8183C82.3914 78.5063 82.3704 78.8733 82.2394 79.1973C80.8284 82.6963 82.1784 87.1533 85.2914 89.0343C86.3264 89.6593 87.3844 90.2413 88.2454 88.6223C89.9564 85.4063 92.0544 82.4533 94.8074 80.0353C93.9294 78.8423 92.7674 78.4463 91.7744 77.8323C82.9234 72.3613 79.3154 59.3263 84.5794 51.7213C86.0314 49.6233 87.6004 48.4413 90.1454 48.4573C94.7114 48.4853 98.9964 49.5253 103.101 51.5473C107.78 53.8503 112.095 56.6953 116.518 60.4753Z" fill="#FFFCED"/>
<path d="M168.741 107.957C169.349 107.429 169.902 107.155 170.134 106.713C171.529 104.065 173.435 103.387 176.24 104.626C177.771 105.302 179.351 104.68 180.506 103.481C181.579 102.366 182.598 101.169 183.459 99.8851C184.525 98.2961 185.72 97.6581 187.618 98.4161C188.972 98.9561 190.426 99.2111 191.923 99.0961C194.754 98.8781 197.131 97.4871 198.72 95.3901C199.925 93.8011 198.321 91.8891 197.63 90.2991C195.33 85.0061 194.04 79.5441 194.328 73.7731C194.397 72.3941 193.63 72.0641 192.657 71.6841C189.662 70.5161 186.593 69.5131 183.422 69.0971C179.554 68.5901 175.44 67.8421 173.522 72.8391C173.253 73.5401 172.428 74.0511 171.806 74.5871C171.302 75.0221 170.867 75.4101 170.982 76.1761C171.464 79.3891 169.341 80.6301 166.812 81.3141C165.606 81.6401 165.146 82.2121 164.593 83.2911C163.456 85.5081 161.967 87.6051 158.877 86.8961C158.243 86.7511 157.826 87.0171 157.447 87.4561C155.358 89.8761 152.97 91.9761 150.051 93.9341C156.46 98.7421 162.582 103.335 168.741 107.957Z" fill="#FFFCED"/>
<path d="M158.74 44.1051C156.012 40.7821 151.702 38.8721 149.296 40.2751C147.254 41.4661 145.687 42.8621 144.55 39.5141C144.462 39.2551 143.973 39.0891 143.638 38.9651C139.752 37.5331 134.478 40.7771 134.075 44.8901C133.901 46.6611 133.133 47.0131 131.775 45.9941C130.225 44.8301 128.795 45.3111 127.484 46.2631C125.271 47.8711 122.928 49.4721 123.766 52.7951C120.767 53.0051 118.689 54.6441 118.207 57.1051C117.75 59.4411 118.88 61.8511 120.612 63.8111C120.25 60.0831 120.619 56.7491 124.176 54.6561C126.279 53.4181 128.44 53.8411 129.713 55.7511C131.556 58.5161 133.093 58.7671 135.45 56.4461C136.536 55.3771 137.401 55.1811 138.811 55.8311C142.08 57.3381 145.208 57.2401 147.812 54.3481C148.195 53.9231 148.607 53.5731 149.492 54.0151C148.843 58.4661 151.96 61.0301 154.96 63.5521C158.318 66.3751 162.647 66.1641 165.985 63.2741C167.55 61.9191 168.239 60.2451 167.153 58.4021C165.96 56.3751 164.689 54.1421 161.749 54.5181C160.411 54.6891 159.173 55.2891 159.38 56.9571C159.532 58.1761 160.124 59.3521 161.489 59.5211C163.537 59.7751 162.19 57.6691 163.1 56.8971C164.346 57.4671 165.197 58.2471 164.362 59.6121C163.448 61.1061 162.046 61.6771 160.355 60.8191C158.565 59.9121 157.242 57.0391 157.995 55.4441C159.041 53.2301 161.018 52.6231 163.287 52.9251C165.654 53.2401 168.883 56.5951 169.361 59.0951C169.869 61.7491 168.744 64.0291 165.862 65.6121C164.3 66.4701 162.557 67.0001 160.697 67.7591C161.886 69.2771 161.733 70.9151 161.547 72.5661C161.337 74.4321 161.537 76.2361 162.596 77.8441C164.05 80.0531 166.571 80.3251 168.469 78.5091C169.801 77.2351 169.526 75.9861 167.71 75.5591C166.637 75.3071 165.987 74.4391 166.806 73.9891C168.55 73.0311 168.252 71.5451 168.283 70.1001C170.295 70.1411 169.456 72.1861 170.419 72.8581C175.059 68.7191 174.993 64.8231 169.969 60.6621C172.707 59.4801 173.58 57.3461 172.793 54.6861C171.715 51.0401 169.524 48.1291 166.288 46.1411C164.858 45.2621 163.236 44.5211 161.407 45.0961C161.103 46.6521 161.188 48.2741 159.429 48.8461C158.716 49.0781 158.16 48.7701 157.786 48.1831C156.769 46.5831 158.147 45.4701 158.74 44.1051Z" fill="#FFFCED"/>
<path d="M4.85257 176.884C5.11757 177.932 4.36857 178.405 3.79157 178.977C3.09257 179.67 2.02957 180.326 2.75557 181.486C3.49657 182.67 4.73657 182.216 5.73657 181.906C8.56957 181.029 11.0736 179.423 13.4026 177.686C16.0496 175.713 19.0026 175.139 22.1086 174.849C36.9606 173.463 48.5706 166.121 58.5386 155.117C52.5036 147.864 48.2316 139.916 48.4636 130.112C46.8606 131.78 46.3216 133.639 45.5806 135.388C43.4336 140.461 40.9616 145.352 37.7266 149.829C37.0406 150.779 36.4166 151.802 34.9486 151.746C32.0716 151.635 29.9606 153.224 27.9316 155.023C24.6506 157.931 22.4336 161.611 20.3036 165.356C19.6316 166.537 18.8136 167.726 17.3836 167.362C14.2796 166.573 11.2186 167.477 8.17457 167.286C4.87957 167.08 3.16757 168.476 2.19157 171.537C4.23157 172.323 4.51157 173.296 2.56557 174.627C1.81457 175.141 1.46857 176.081 2.08557 177.02C3.03157 177.416 3.73057 176.012 4.85257 176.884Z" fill="#FFFCED"/>
<path d="M136.878 76.4512C136.436 78.5212 136.436 78.5212 135.483 79.0792C133.046 80.5052 132.983 81.1072 135.256 82.8432C139.034 85.7282 142.902 88.4982 146.626 91.4512C148.064 92.5922 149.098 92.4182 150.483 91.4192C154.117 88.7992 156.614 85.1892 159.352 81.7642C160.649 80.1412 161.857 78.7772 160.457 76.5422C159.672 75.2892 159.824 73.6642 160.166 72.2422C160.738 69.8602 159.804 68.2472 157.751 67.3272C153.246 65.3092 149.899 62.1122 147.617 57.7172C144.411 58.9032 141.306 59.2902 138.246 57.6502C137.673 57.3432 137.171 57.4382 136.769 57.8982C134.434 60.5732 131.577 59.9192 128.734 59.3052C127.845 55.8662 127.489 55.6082 125.3 56.7232C125.278 58.2812 127.777 59.3412 126.334 61.2552C124.675 61.0382 124.806 58.9222 123.214 58.6562C121.583 62.6182 123.881 64.6232 126.833 66.0332C126.783 67.5792 125.174 68.5852 126.557 70.0762C128.301 71.9582 128.536 74.1282 126.576 76.2422C128.4 77.5512 129.712 79.2952 132.289 79.9222C131.863 78.1292 129.19 77.5202 130.782 75.2542C132.375 77.8462 134.436 78.1132 136.878 76.4512Z" fill="#FFFCED"/>
<path d="M197.939 73.8398C199.204 80.5858 201.534 85.9869 204.219 91.2589C204.568 91.9449 205.243 92.2608 205.973 92.4648C208.57 93.1898 213.851 91.2859 215.283 89.0459C215.93 88.0349 216.631 86.8158 215.464 85.8338C210.238 81.4348 204.6 77.6298 197.939 73.8398Z" fill="#FFFCED"/>
<path d="M191.472 145.408C190.247 146.399 189.254 147.08 188.406 147.908C181.665 154.486 173.817 158.19 164.191 157.411C159.449 157.028 154.7 156.738 149.961 156.323C146.389 156.01 144.143 156.068 141.793 156.862C150.981 157.366 159.658 159.104 168.349 160.737C170.738 161.186 173.074 161.215 175.415 160.591C182.308 158.756 187.558 154.397 192.401 149.445C193.01 148.822 193.643 148.085 193.544 146.89C192.817 146.371 192.016 145.798 191.472 145.408Z" fill="#FFFCED"/>
<path d="M72.6334 168.474C67.9184 164.271 63.3994 161.049 59.7244 156.784C56.2314 160.312 53.1394 163.746 49.4004 166.706C56.8624 168.84 64.2154 170.069 72.6334 168.474Z" fill="#FFFCED"/>
<path d="M202.89 94.625C201.487 96.026 202.453 97.185 202.891 98.261C205.375 104.366 207.045 110.537 205.721 117.25C204.893 121.446 203.444 125.358 201.27 128.986C200.353 130.517 200.502 131.474 201.966 132.365C203.608 133.365 204.091 131.877 204.693 131.004C206.53 128.34 207.387 125.212 208.655 122.274C213.205 111.727 208.529 103.205 202.89 94.625Z" fill="#FFFCED"/>
<path d="M141.867 90.0396C140.212 91.5936 139.106 91.1136 138.178 90.7206C134.968 89.3636 132.739 87.0836 131.976 83.5696C131.805 82.7806 132.009 81.8366 131.303 81.2566C128.726 79.1406 126.087 77.1076 122.969 75.3496C124.797 89.5436 138.136 96.8436 146.914 92.8246C142.592 89.5946 138.429 86.4826 133.712 82.9566C134.542 87.8946 137.619 89.3286 141.867 90.0396Z" fill="#FFFCED"/>
<path d="M24.3388 155.301C22.9208 152.681 21.4388 152.521 19.4828 154.397C17.1738 156.612 14.7208 158.436 11.3098 159.024C8.10278 159.577 6.17678 162.478 6.17578 165.661C9.70378 164.935 13.2448 164.86 16.7898 165.074C17.8198 165.136 18.2558 164.522 18.6708 163.787C20.3278 160.846 22.2288 158.063 24.3388 155.301Z" fill="#FFFCED"/>
<path d="M167.45 108.18C161.345 103.63 155.449 99.2102 149.511 94.8472C148.842 94.3552 147.984 94.3502 147.439 95.4232C152.383 98.6072 155.677 103.206 158.833 107.94C159.356 108.724 159.7 109.923 160.989 109.765C163.046 109.512 165.177 109.525 167.45 108.18Z" fill="#FFFCED"/>
<path d="M198.612 139.059C198.895 138.982 199.229 138.826 199.569 138.811C200.631 138.765 201.891 138.6 201.529 137.276C201.271 136.331 200.39 135.09 198.887 136.084C198.318 136.46 197.717 136.42 197.058 136.334C195.02 136.07 193.061 137.898 192.397 140.542C191.824 142.821 192.862 144.227 194.84 145.089C195.706 145.466 196.823 145.706 196.96 144.367C197.122 142.785 198.325 142.444 199.362 142.022C199.383 140.893 198.018 140.488 198.612 139.059Z" fill="#FFFCED"/>
<path d="M124.748 87.3174C125.682 90.5314 126.449 93.1704 127.29 96.0624C129.009 95.1064 130.559 94.5944 131.83 93.2304C129.582 91.3534 127.396 89.5284 124.748 87.3174Z" fill="#FFFCED"/>
<path d="M201.222 92.4334C201.198 87.9234 197.934 84.4984 197.059 80.2734C197.276 84.7184 199.119 88.6194 201.222 92.4334Z" fill="#FFFCED"/>
<path d="M159.139 85.2215C162.284 84.9335 163.464 83.2075 162.39 80.8535C161.355 82.2445 160.401 83.5255 159.139 85.2215Z" fill="#FFFCED"/>
<path d="M98.9206 131.054C97.5056 129.141 98.5776 127.977 99.7526 127.002C101.165 125.83 102.769 125.684 104.171 127.035C105.207 128.033 105.492 129.188 104.127 130.25C102.013 127.472 102.013 127.472 98.9206 131.054Z" fill="#AD1B1F"/>
<path d="M90.4759 155.947C89.4369 157.786 88.0029 157.641 86.7349 157.269C80.8049 155.526 75.1329 153.331 71.0269 148.314C65.0439 141.001 60.5239 133.206 60.8019 123.263C60.9269 118.807 60.2279 114.325 59.8429 109.86C59.4299 105.066 57.4979 100.883 54.6029 97.0892C53.7959 96.0312 52.6699 95.1382 52.4629 93.4502C53.9229 93.4572 54.5839 94.5132 55.3079 95.3352C59.7419 100.363 61.5739 106.398 62.0109 112.953C62.2669 116.787 62.6059 120.618 62.7329 124.456C63.2439 139.879 74.1129 152.612 89.2059 155.392C89.5379 155.453 89.8419 155.665 90.4759 155.947Z" fill="#AD1B1F"/>
<path d="M76.957 143.829C79.362 144.951 80.346 147.023 81.911 148.46C83.508 149.926 85.325 151.043 87.468 152.228C83.435 152.714 77.811 148.249 76.957 143.829Z" fill="#AD1B1F"/>
<path d="M36.5597 161.727C33.2577 164.486 33.8747 165.752 39.5227 168.532C38.5247 169.998 37.0837 169.794 35.8987 169.313C33.9867 168.535 32.9987 166.828 32.6637 164.838C32.3007 162.678 34.0897 160.324 37.0127 159.161C39.2337 158.277 41.4697 157.913 43.2757 160.093C44.3177 161.352 45.0737 162.736 44.2167 164.353C43.3647 165.96 41.9097 166.698 40.0957 166.457C38.2797 166.216 37.1157 165.161 36.7497 163.324C36.6637 162.893 36.6427 162.449 36.5597 161.727ZM42.9217 162.889C42.5897 161.407 41.6867 160.529 40.1337 160.401C38.6797 160.281 37.9167 160.962 37.9477 162.445C37.9797 163.983 38.7957 164.83 40.3177 164.823C41.5757 164.817 42.6327 164.369 42.9217 162.889Z" fill="#AD1B1F"/>
<path d="M151.218 82.1273C149.77 82.0223 149.032 80.9843 148.941 79.4713C148.838 77.7753 151.209 75.6023 153.158 75.5143C154.48 75.4543 155.208 76.1663 155.341 77.4193C155.519 79.0953 153.036 82.0253 151.218 82.1273Z" fill="#AD1B1F"/>
<path d="M139.25 69.2525C139.341 67.5565 137.477 66.6765 137.989 65.0605C139.809 65.4055 143.117 69.8285 142.838 71.4865C142.659 72.5465 141.945 72.8505 141.024 72.5025C139.318 71.8575 137.636 71.1435 135.961 70.4185C135.367 70.1615 134.762 69.7656 135.038 68.9826C135.315 68.1986 136.032 68.2725 136.662 68.4375C137.511 68.6585 138.338 68.9605 139.25 69.2525Z" fill="#AD1B1F"/>
<path d="M138.975 80.2323C139.646 77.4283 141.533 77.2413 143.469 77.4803C144.89 77.6563 145.909 78.6113 145.458 80.1703C145.023 81.6723 144.015 82.6233 142.253 82.0643C141.958 80.8223 143.723 80.8073 143.421 79.6953C141.921 78.5303 140.793 80.5163 138.975 80.2323Z" fill="#AD1B1F"/>
</svg>
