<svg width="68" height="50" viewBox="0 0 68 50" fill="none" xmlns="http://www.w3.org/2000/svg">
<path d="M67.1312 49.7016C62.7792 48.9395 58.8982 48.5246 55.6632 46.4083C55.8322 44.6787 57.1662 44.9135 57.6872 44.119C56.8842 43.0654 55.8522 42.3752 54.6802 41.8853L43.7022 33.3697C36.3912 27.692 29.0712 22.0254 21.7472 16.3649L20.6075 15.5334C20.6074 15.5333 20.6074 15.5333 20.6073 15.5332C20.6073 15.5332 -0.377296 0.712213 0.00516518 0.501594C0.387626 0.290975 0.60753 0.181935 1.00517 0.00159419C1.4028 -0.178747 21.7932 15.0016 21.7932 15.0016C30.8842 21.9151 39.6432 29.0138 49.4252 34.896L55.9112 40.3045C57.4462 41.8965 59.1422 43.281 61.2702 44.3589C61.7642 42.6586 60.8102 41.5645 60.6292 40.3267C60.5272 39.6254 60.5852 38.9817 61.3522 38.7479C61.9672 38.5597 62.4622 38.9463 62.6912 39.4645C64.1242 42.7011 65.5142 45.9579 67.1312 49.7016Z" fill="#AD1B1F"/>
</svg>
