<svg width="88" height="102" viewBox="0 0 88 102" fill="none" xmlns="http://www.w3.org/2000/svg">
<path d="M61.1919 30.5085C62.2999 36.4915 65.3259 41.3145 70.6029 44.3655C74.1229 46.4005 78.0059 46.9765 80.5799 50.4375C85.3419 56.8425 80.2109 68.8295 74.0019 72.6905C70.8759 74.6345 68.5049 74.6705 65.6769 77.8455C60.3839 83.7875 65.2529 89.9775 61.2539 96.5325C59.8359 98.8565 56.0449 101.537 53.3249 101.47C51.4479 101.424 48.5609 100.661 49.3159 98.2355C53.0029 99.1735 55.5329 99.3115 57.4789 95.6465C59.9339 91.0245 57.4959 89.7295 57.0569 85.5155C56.4369 79.5625 59.2839 74.2065 63.7539 70.4655C69.0279 66.0525 76.1519 65.7355 74.2729 56.7445C72.3979 47.7735 59.8489 48.2215 55.7909 41.2035C53.3069 36.9075 55.2839 33.1565 55.0879 28.5825C54.2229 29.1555 53.8459 30.6475 53.4809 31.6255C51.8939 35.8695 51.3699 40.4275 49.3719 44.5275C46.3569 50.7135 39.8199 57.6035 32.9549 59.2445C28.0049 60.4285 27.0719 59.3105 23.3069 63.7195C17.7089 70.2755 21.1269 79.8925 15.7479 86.9735C14.5609 88.5355 14.1909 89.0435 13.0979 90.7435C10.9869 94.0275 8.27188 97.0035 3.89688 96.6335C3.26388 96.5805 0.0278813 95.8715 1.16988 94.8575C1.87588 94.2295 3.25888 94.8125 3.73388 94.0625C2.52288 94.4375 -1.12712 92.4965 0.343881 91.4775C0.937881 91.0665 3.76488 90.6075 4.86388 90.2135C7.98388 89.0945 14.2309 85.9395 14.6479 82.3445C15.3729 76.1045 11.6889 72.4595 14.4039 65.0895C18.3119 54.4835 29.4929 54.2695 37.5389 48.4235C44.8139 43.1385 47.1779 36.6275 51.0729 28.8975C51.8839 27.2875 52.5579 27.3515 52.5289 25.2135C52.5249 24.9025 52.6869 24.1225 52.2019 24.5685C45.4419 29.7955 41.3189 45.1395 30.3849 41.5735C26.1259 40.1845 23.0299 36.6385 24.2959 31.9715C25.1089 28.9765 31.1539 21.9705 33.3959 19.2455C34.5919 17.7925 34.4269 16.8895 36.4569 15.8855C39.4999 14.3795 45.2079 13.7185 48.2549 15.3565C49.0849 15.8025 51.4909 18.2035 51.7149 18.2205C51.9069 18.2355 52.9939 17.6245 53.4669 17.4895C54.0329 17.3275 54.7269 17.4565 55.1899 17.2885C55.5769 17.1475 59.3799 11.7085 60.2169 10.7605C63.7169 6.80151 70.8569 -0.22449 76.4189 0.00550969C89.2529 0.53651 89.1209 21.8825 83.1489 29.5195C77.6949 36.4925 67.9029 34.2195 61.1919 30.5085ZM73.0629 3.54952C68.4999 5.09352 63.6509 9.01051 60.3819 12.5285C59.0659 13.9445 57.5039 15.9195 56.6969 17.6665C58.3439 19.1845 67.3539 7.39852 69.0449 6.42552L73.0629 3.54952ZM59.5869 24.7305L62.0369 27.8945C69.3899 32.3225 82.0209 33.3625 84.1569 22.8225C85.4269 16.5555 84.5029 9.62651 80.7699 4.34451L81.1239 11.0535C82.0719 16.5005 86.2899 22.7125 81.2479 27.2955C75.8489 32.2035 70.6829 26.4735 65.1139 25.4575C63.2879 25.1265 61.3729 25.2265 59.5869 24.7305ZM59.5819 24.0905C63.6719 24.0835 67.4729 23.8165 71.4609 24.8895C73.7379 25.5015 76.4859 27.4735 78.8159 26.1475C79.4709 25.7755 81.4939 23.6245 81.6609 22.8985C82.3559 19.8765 78.8789 14.0385 78.3429 10.6235C77.9319 8.00451 79.6109 4.21052 75.5499 4.89752C70.3649 5.77552 63.5799 17.3725 58.1289 19.2695C58.8679 20.8435 59.9579 22.2115 59.5819 24.0905ZM52.2009 21.1965C48.9169 16.4515 42.8059 15.1165 37.5339 17.2855C36.1039 17.8735 33.0589 21.5745 31.9919 22.9775C31.7379 23.3105 30.4619 24.7935 30.6989 25.0515C36.7569 20.4545 44.8989 18.5885 52.2009 21.1965ZM56.3469 20.2555C56.0329 20.0285 55.1019 20.6825 54.6419 20.5435C54.1189 20.3855 54.3519 19.5255 53.8089 19.5965C54.5709 21.2445 54.2889 24.0095 54.8259 25.4705C55.0839 26.1725 56.1889 26.2175 56.7079 25.8685C57.6459 25.2365 57.0739 20.7805 56.3469 20.2555ZM47.5469 22.4835C46.5139 22.2275 43.4209 22.4835 42.0899 22.4835C41.1109 22.4835 36.3699 24.4465 35.4019 25.1045C33.6649 26.2845 31.0909 30.5245 31.7129 32.5315C31.9439 33.2785 34.7809 35.0125 35.6259 34.9225C37.7649 34.6965 45.4359 24.7135 47.8709 23.1275C48.1739 22.9555 47.6329 22.5045 47.5469 22.4835ZM50.9159 23.1275C50.1539 22.9905 49.8709 23.2005 49.2949 23.5895C46.1699 25.6965 42.7439 31.5695 39.5149 34.3515C36.6079 36.8565 34.5579 37.9345 31.3349 35.1655C29.9509 33.9765 28.9939 32.6085 28.8859 30.7215L30.2169 25.3735C28.7509 27.5505 26.3049 29.3575 25.5459 31.9345C24.6149 35.0975 26.3009 36.3815 28.8199 37.6805C33.8189 40.2585 36.8759 40.1105 40.8119 35.9675L50.9159 23.1275ZM43.1019 49.9745C49.0739 44.0475 49.6489 39.1265 52.1959 31.6255C52.5579 30.5595 53.1929 29.4825 53.5459 28.4725C53.7349 27.9315 53.8579 27.8625 53.1689 27.6195C49.7889 35.0215 47.8049 43.2865 41.4409 48.7945C33.5449 55.6285 20.5349 56.2875 16.1919 65.9135C13.7599 71.3045 15.8649 75.1255 15.9359 80.5775L17.7089 75.4545C18.2989 69.7735 18.8389 64.7555 22.8299 60.3545C26.3549 56.4665 27.9059 57.5745 32.3689 56.4125C36.0639 55.4515 40.4139 52.6425 43.1019 49.9745ZM60.5429 92.1325C61.1929 87.9315 60.5649 84.4265 61.9219 80.1895C64.6109 71.7925 70.7169 71.5895 75.6239 65.9665C78.9279 62.1805 81.0749 57.7835 78.9029 52.7555C77.0949 48.5715 71.7109 47.6195 68.1529 45.5315C62.9129 42.4565 59.5889 37.2945 58.6609 31.2715C58.5599 30.6165 58.8569 27.9325 58.1419 27.9465C58.0579 27.9485 56.7159 28.7235 56.6889 28.8025C56.4339 29.5485 56.1009 32.9215 56.0579 33.8805C55.3989 48.6945 75.5519 43.9855 76.6079 57.2975C77.2869 65.8575 73.7229 66.3195 67.9549 70.1735C63.2929 73.2885 59.3209 77.7335 58.9159 83.6275L60.5429 92.1325ZM9.19088 92.7735C9.64288 93.2075 11.9819 90.1275 11.7559 89.8885C11.3759 90.5575 9.59888 90.7705 9.50788 90.8565C9.43288 90.9265 10.0329 92.1665 9.19088 92.7735Z" fill="#AD1B1F"/>
</svg>
