<svg width="85" height="113" viewBox="0 0 85 113" fill="none" xmlns="http://www.w3.org/2000/svg">
<path d="M7.76766 42.5782C8.37866 37.9132 10.0397 33.7692 14.5907 31.4732C15.3737 31.0782 15.1047 30.6072 14.9237 29.9362C14.1657 27.1312 14.9447 25.5122 17.5427 24.3672C18.6027 23.9002 19.7337 23.5832 20.9217 23.6232C22.2477 23.6682 22.8107 23.0382 22.8187 21.7092C22.8307 19.8112 22.9857 17.9252 22.5457 16.0352C21.9017 13.2642 21.3507 10.4702 21.0867 7.62818C20.7597 4.10218 21.0687 3.52718 24.2857 1.98719C24.8537 1.71518 25.4517 1.49418 26.0537 1.30918C33.4597 -0.970824 40.6907 -0.145827 47.7047 2.80017C51.9057 4.56417 52.6537 6.5372 51.1757 10.8042C49.8617 14.5992 48.6977 18.4132 48.2087 22.4322C48.0267 23.9282 48.0237 24.7972 49.7607 25.1382C50.8707 25.3562 51.9207 25.9782 52.9447 26.5192C55.6937 27.9692 55.9977 28.6122 54.9497 31.5322C54.6217 32.4462 54.6637 33.0612 55.1367 33.8622C57.0567 37.1162 57.6487 40.7342 58.0297 44.4372C58.8217 52.1302 57.7397 59.8542 58.5537 67.7512C58.9377 67.6432 59.1567 67.6432 59.2897 67.5362C63.9167 63.7982 69.3947 62.4312 75.1457 61.8102C76.5487 61.6592 77.9017 61.9762 79.2017 62.3802C81.9717 63.2402 82.5257 65.1682 80.6437 67.3962C79.9047 68.2712 78.9137 68.9312 78.0517 69.7052C77.5487 70.1562 76.6387 70.2392 76.6547 71.4352C78.4527 72.0092 80.3437 71.4502 82.1667 71.6742C83.1267 71.7922 84.1717 71.7882 84.5247 72.8892C84.8587 73.9332 84.1767 74.7032 83.4807 75.3792C81.9257 76.8912 79.9557 77.6322 77.9827 78.4222C76.8087 78.8922 75.3247 78.7672 74.4017 79.9532C75.5417 80.7552 76.7567 80.5792 77.8937 80.6602C79.3837 80.7662 80.8367 81.0342 82.2327 81.5042C83.4457 81.9132 84.5787 82.5212 84.7127 84.0592C84.8577 85.7152 83.8487 86.5662 82.5627 87.2302C81.1327 87.9682 79.5927 88.3162 77.9987 88.4212C73.7707 88.7002 69.5347 88.7532 65.3397 88.1522C64.0337 87.9652 63.2207 88.1482 62.2847 89.0682C58.9637 92.3342 55.0237 94.5102 50.3597 95.1402C48.3747 95.4092 46.3567 95.4322 44.3547 95.5822C42.2057 95.7432 42.1947 95.7512 42.1177 97.9972C42.0387 100.321 42.0537 102.651 41.8967 104.969C41.7877 106.575 42.2927 107.817 43.4187 108.933C44.1007 109.609 45.1367 110.142 45.0647 111.408C43.8567 111.697 43.5877 110.155 42.3637 110.412C42.2247 110.999 42.0947 111.695 41.8867 112.366C41.7967 112.657 41.5377 112.882 40.9867 112.722C40.8587 112.033 40.7147 111.257 40.5867 110.569C39.5507 110.449 39.3717 112.062 38.1847 111.629C38.2997 110.283 39.0727 109.373 39.6307 108.384C40.1077 107.54 40.4697 106.721 40.4897 105.72C40.5427 102.973 40.6287 100.224 40.7897 97.4822C40.8657 96.1942 40.5257 95.5372 39.1087 95.5192C37.2047 95.4952 35.3387 95.1192 33.4767 94.6932C31.5417 94.2502 31.4717 94.3162 31.4417 96.2162C31.3897 99.4912 31.5637 102.775 31.1767 106.038C31.0327 107.248 31.4777 107.998 32.4567 108.667C33.4957 109.376 34.3947 110.279 34.9507 111.664C33.6377 111.71 33.3037 110.919 32.7127 110.531C32.2347 110.218 31.6237 110.005 31.4537 110.693C30.6567 113.915 30.2667 110.927 29.6937 110.599C28.6227 110.801 28.2817 112.412 26.9437 112.162C26.8797 111.984 26.8007 111.878 26.8197 111.796C26.8907 111.495 26.9047 111.113 27.0977 110.918C30.2587 107.732 29.9077 103.669 29.9447 99.6992C29.9557 98.5362 29.7647 97.3172 30.0517 96.2242C30.5647 94.2692 29.7757 93.4982 28.0567 92.7482C23.4557 90.7402 19.4087 87.8892 16.3077 83.8662C15.3667 82.6452 14.8787 81.0042 12.6797 81.9412C11.8007 82.3162 10.9457 81.3962 10.3717 80.5842C9.68867 79.6172 9.30065 78.5212 9.05965 77.3832C8.57965 75.1132 8.25066 72.8072 7.67666 70.5622C6.99966 67.9152 7.22466 65.1342 6.55666 62.5582C6.25666 62.5112 6.15066 62.4752 6.04766 62.4802C4.61866 62.5472 3.63567 64.7402 2.11767 63.6432C0.747668 62.6542 1.50466 60.8742 1.47066 59.4552C1.37766 55.5862 1.43466 55.5842 4.84566 57.3912C5.36966 57.6692 5.96966 58.2972 6.46066 57.5652C6.99866 56.7642 7.30667 55.7572 6.34167 55.0102C5.76967 54.5682 5.02266 54.3602 4.38766 53.9912C2.89966 53.1272 1.15966 52.5952 0.000663757 51.0342C1.87366 49.4472 3.46367 47.8912 5.26467 46.6372C6.76367 45.5982 7.52466 44.4312 7.76766 42.5782ZM40.1087 2.8562C34.3317 2.2152 28.4607 1.62819 23.0747 4.83319C31.8047 8.34219 40.7197 8.71619 50.5647 7.00519C47.2807 3.79819 43.6287 3.2462 40.1087 2.8562ZM49.6177 8.48618C40.3997 9.85418 31.7597 9.24519 23.1187 6.67319C22.6067 9.21419 23.7067 11.4922 23.7647 13.8512C23.8137 15.8422 24.2867 17.8222 24.3497 19.8132C24.4337 22.4402 25.6277 24.2292 28.0987 24.9002C33.2287 26.2932 38.4327 26.6492 43.6677 25.4182C44.8467 25.1412 45.7297 24.6992 45.9217 23.2142C46.5577 18.3032 48.0797 13.5912 49.6177 8.48618ZM24.1967 24.9642C24.8337 26.8572 26.0577 27.4542 27.2537 28.0542C29.0677 28.9632 31.0217 29.3982 33.0247 29.5822C36.4067 29.8932 39.7487 29.5462 43.0297 28.7192C43.9787 28.4802 45.1527 28.2782 45.0817 26.6072C38.0717 28.0342 31.2127 27.6672 24.1967 24.9642ZM49.7707 27.2032C49.1997 26.9392 48.5827 26.7772 48.0077 26.5202C47.2337 26.1742 46.7067 26.4942 46.6047 27.2112C46.3457 29.0282 44.8937 29.6142 43.5367 29.9302C38.3607 31.1332 33.1117 31.6522 27.9927 29.7782C26.1147 29.0912 23.8807 28.4552 23.4857 25.8902C23.4107 25.4032 23.1457 25.1212 22.6557 25.2312C20.8107 25.6472 18.8997 25.9252 17.2757 26.9602C16.0827 27.7202 16.3587 28.7572 17.1677 29.6382C18.2647 30.8332 19.7317 31.4412 21.2287 31.9832C26.5557 33.9122 32.1257 34.2032 37.6977 34.4752C41.7267 34.5962 45.7127 34.3002 49.5527 33.0312C51.1097 32.5162 53.1477 32.0542 53.1657 30.0162C53.1827 28.1122 51.1627 27.8462 49.7707 27.2032ZM53.1207 71.5492C51.5627 70.1352 49.9647 68.7452 48.2617 67.5142C46.1587 65.9942 43.7457 65.2732 41.1197 65.4212C38.9877 65.5412 37.9957 66.2022 37.4707 67.8172C36.8717 69.6602 37.4097 71.3892 38.8907 72.5972C39.3457 72.9682 40.1997 72.8322 40.2977 73.8082C38.3207 73.9642 36.3277 73.8292 34.3747 74.2812C30.5487 75.1662 29.3697 78.2842 31.7547 81.3862C33.9427 84.2312 37.0357 85.6212 40.3967 86.2162C50.4747 87.9992 58.9077 85.0322 65.4457 77.0382C65.5547 76.9052 65.5207 76.6572 65.6207 76.0662C60.5597 76.6992 56.6267 74.7302 53.1207 71.5492ZM67.6687 86.9852C71.0337 87.3482 74.4257 87.2392 77.8037 87.0642C79.3927 86.9822 80.9687 86.7162 82.3447 85.8532C83.8367 84.9182 83.7807 83.8092 82.1957 83.0902C80.7387 82.4292 79.1497 82.2742 77.5727 82.1162C74.9497 81.8532 72.3267 81.5842 69.7027 81.3322C69.1607 81.2802 68.5497 81.2242 68.4617 80.6142C68.3817 80.0562 68.8217 79.6612 69.3677 79.4852C70.6727 79.0662 71.9837 78.6652 73.2897 78.2482C75.3977 77.5742 77.5377 76.9822 79.5977 76.1842C80.9217 75.6712 82.3167 75.0912 83.2157 73.3062C80.0717 72.8302 77.1817 73.2062 74.3027 73.4262C72.8317 73.5392 71.3737 73.8112 69.9067 73.9832C69.5037 74.0302 69.0527 74.0392 68.8687 73.5352C68.6797 73.0182 69.0257 72.7322 69.3997 72.5402C70.9967 71.7222 72.6017 70.9192 74.2167 70.1382C75.8377 69.3542 77.4307 68.5272 78.7807 67.3112C79.4847 66.6782 80.4227 66.0022 80.1437 64.9812C79.8197 63.7962 78.5637 63.6752 77.5317 63.5912C76.2737 63.4882 74.9827 63.4432 73.7367 63.6102C69.0857 64.2332 64.6347 65.4552 60.8077 68.3542C59.5777 69.2862 58.6067 70.3732 58.8627 72.0412C59.0697 73.3902 59.6697 74.3632 61.2917 74.4452C63.5007 74.5572 65.7037 74.3822 68.5247 74.2492C66.4767 79.3862 62.3857 81.8012 58.9877 85.0432C61.8357 86.3312 64.7657 86.6712 67.6687 86.9852ZM75.9377 71.7462C75.9717 71.6832 76.0097 71.6222 76.0447 71.5602C76.0097 71.6232 75.9707 71.6842 75.9377 71.7462ZM20.3477 85.1882C25.6567 90.9492 32.5717 93.2912 40.1327 93.8632C44.5507 94.1972 48.9997 93.8932 53.3147 92.7072C56.4087 91.8572 59.0327 90.2592 61.0257 87.5692C58.4947 86.1802 56.2727 86.2442 53.7147 87.1432C48.0647 89.1292 42.3047 88.8542 36.6567 86.8752C34.2297 86.0242 32.0607 84.6982 30.4947 82.6152C29.7927 81.6812 29.0687 81.1232 27.8797 81.3392C27.7787 81.3572 27.6697 81.3312 27.5647 81.3252C26.2377 81.2432 25.2737 80.2142 24.1317 79.8972C23.0317 79.5922 22.2407 81.2162 20.9267 81.3352C19.6337 81.4522 18.5087 80.8672 17.2877 80.7472C17.5347 82.7462 19.1387 83.8762 20.3477 85.1882ZM17.1817 80.6632C17.1177 80.5482 17.0527 80.4332 16.9877 80.3172C16.9427 80.4272 16.8977 80.5372 16.8537 80.6472C16.9637 80.6532 17.0727 80.6582 17.1817 80.6632ZM14.2727 62.0792C14.1837 64.0952 13.5547 64.4312 11.6507 63.7462C10.7757 63.4312 10.0957 62.6222 8.86767 62.7272C8.34967 64.3632 8.97067 65.9852 9.26067 67.5482C9.87667 70.8592 10.7247 74.1262 11.4977 77.4072C11.6417 78.0192 11.8017 78.6512 12.0917 79.2012C12.7047 80.3632 13.8467 80.3612 14.5177 79.2112C15.0857 78.2392 14.9367 76.9582 15.9577 75.8332C17.0877 77.4482 17.4587 79.6932 19.8257 79.9282C22.4627 80.1902 23.1077 78.2852 23.6307 76.0752C24.8497 78.3052 25.6587 80.4932 28.5187 80.0082C28.9197 74.8152 29.9837 73.0872 36.4067 72.1822C36.2807 71.6672 36.1477 71.1572 36.0297 70.6432C35.1777 66.9152 36.9847 64.4322 40.8027 64.1262C43.9897 63.8712 46.8827 64.7432 49.4217 66.6502C51.0227 67.8522 52.4847 69.2392 54.0607 70.4762C55.0237 71.2322 55.8457 72.2642 57.1797 72.4482C57.5967 71.6722 57.4547 70.8932 57.2687 70.2402C55.9057 65.4592 56.3737 60.6022 56.5617 55.7552C56.7997 49.6122 56.8317 43.4962 54.5047 37.6462C54.2317 36.9602 54.0377 36.2402 53.7297 35.5712C52.8087 33.5662 52.5387 33.4642 50.3697 34.1672C43.6767 36.3362 36.8327 36.0602 29.9807 35.3542C26.0907 34.9532 22.2377 34.2912 18.6927 32.5042C17.8897 32.0992 17.3837 32.4012 16.7117 32.8122C12.1797 35.5882 9.50167 39.4942 9.10067 44.8702C9.05267 45.5092 8.94968 46.0752 9.42068 46.6432C11.6657 49.3522 10.5907 52.0372 9.24868 54.6682C8.60268 55.9352 8.53868 55.9022 8.79168 57.8882C10.5577 57.8272 12.0377 56.4102 14.2887 56.7122C14.2887 58.5342 14.3497 60.3102 14.2727 62.0792ZM7.52966 53.2102C8.10466 53.5082 8.67268 53.3402 8.72768 52.7302C8.89168 50.9182 9.57166 49.0282 8.16366 47.1782C6.48466 48.2912 4.84766 49.3752 2.79766 50.7342C4.61166 51.6842 6.06766 52.4532 7.52966 53.2102Z" fill="#3A5220"/>
<path d="M20.8563 39.5215C22.4963 39.5195 23.5803 40.9275 23.5583 43.0345C23.5383 45.0085 22.6893 46.0755 21.1763 46.0305C19.4383 45.9785 17.9383 44.3425 17.9113 42.4705C17.8873 40.7675 19.1293 39.5245 20.8563 39.5215Z" fill="#3A5220"/>
<path d="M53.2696 62.5551C51.9726 55.3891 54.4016 48.4621 52.7606 41.6221C54.3706 44.5191 54.6836 59.1981 53.2696 62.5551Z" fill="#3A5220"/>
<path d="M33.9218 77.8779C37.7838 81.9559 42.8278 82.157 47.5508 83.532C40.6288 84.287 34.9338 82.0479 33.9218 77.8779Z" fill="#3A5220"/>
<path d="M40.7085 79.5713C42.8335 79.7703 44.4155 80.5953 46.6035 81.1853C44.1065 81.6783 42.3935 81.3103 40.7085 79.5713Z" fill="#3A5220"/>
</svg>
