<svg width="86" height="98" viewBox="0 0 86 98" fill="none" xmlns="http://www.w3.org/2000/svg">
<path d="M1.21465 64.9493C1.91965 64.3313 2.80865 63.9273 3.59465 63.3973C4.47865 62.8013 5.73466 62.7993 6.54466 61.7093C4.90366 60.9783 3.42366 60.4033 2.17766 59.4073C1.22566 58.6473 0.508654 57.7753 0.767654 56.4393C1.04765 54.9933 2.31065 54.7743 3.39565 54.5073C4.43565 54.2513 5.54764 54.2863 6.88564 54.1713C5.60064 53.0013 4.51365 52.1673 3.61565 51.1633C1.10165 48.3533 1.83264 46.1073 5.45464 45.2323C6.81064 44.9053 8.13665 44.8953 9.53065 45.0833C14.9487 45.8133 19.5236 48.3053 23.7696 51.5833C24.4456 52.1053 24.9186 53.1743 26.2356 52.7803C26.6666 45.8833 27.7266 39.0313 27.6586 31.8103C26.3616 32.5343 25.3417 33.2683 24.2077 33.7063C21.1017 34.9043 18.6817 32.9303 19.1597 29.6363C19.5007 27.2793 20.5637 25.2173 22.0057 23.3563C26.4537 17.6133 31.7326 12.8053 38.0506 9.17529C39.3886 8.40629 41.2876 8.11828 40.4296 5.70828C40.2246 5.13228 41.0837 4.47029 41.8967 4.29629C42.5127 4.16529 43.1607 4.54829 43.7647 4.15429C44.1847 3.13229 43.3596 1.33429 44.6706 1.06329C46.7866 0.625287 48.8896 -0.479723 51.1706 0.234277C51.8116 0.435277 52.4297 0.83927 52.5707 1.42727C53.0167 3.28627 54.2967 3.47127 55.8717 3.39727C56.8997 3.34927 58.0536 3.84228 57.9126 4.90228C57.6766 6.68428 58.6547 7.27528 59.9267 7.86828C60.4177 8.09728 60.9686 8.62927 60.8566 9.06027C60.3526 11.0043 61.8587 11.1583 62.9837 11.4943C70.4007 13.7113 74.8366 19.0753 77.5926 25.8693C78.9816 29.2943 80.4837 32.0923 84.4277 32.7433C84.6297 32.7763 84.8306 32.8773 85.0076 32.9873C86.0396 33.6303 85.9386 34.3243 84.9896 34.9023C84.0906 35.4493 83.1717 36.1213 82.1767 36.3233C79.3787 36.8923 79.0777 38.6693 79.0267 41.1593C78.8817 48.1373 77.9057 55.0433 76.4277 61.8703C76.0337 63.6893 75.3596 65.6123 73.3956 65.9463C71.5946 66.2533 71.0637 67.4463 70.2257 68.6263C67.2157 72.8653 64.0636 76.9443 59.1406 79.2303C57.7386 79.8813 55.5907 79.8433 55.0787 81.2863C54.5597 82.7503 55.1206 84.5983 55.2176 86.2783C55.2296 86.4873 55.3526 86.7003 55.3296 86.8993C54.9376 90.2413 55.6537 93.0773 58.8627 94.8173C58.9157 94.8463 58.8227 95.1443 58.8017 95.2923C58.0637 95.7983 57.4537 94.6373 56.7367 95.1823C56.3557 95.8393 57.2097 96.7513 56.2337 97.5553C55.6437 96.5173 55.1446 95.6403 54.6366 94.7463C53.5306 94.8403 53.3137 96.5453 51.9837 96.1513C51.9287 94.4273 54.2696 93.0323 52.4896 91.2353C54.9476 90.1723 53.4857 88.1543 53.4707 86.6093C53.4537 84.8743 53.8536 83.0593 53.2106 81.3253C50.2706 81.6833 47.4636 82.0243 44.6376 82.3683C44.6196 84.8473 45.1586 87.1623 45.1316 89.4403C45.0976 92.2973 47.7917 93.2593 48.7517 95.4243C47.2007 95.9043 46.7116 94.0963 45.3946 94.3453C45.0246 95.3223 45.3197 96.5913 44.2977 97.3743C43.5077 96.6453 44.0356 95.4583 43.2496 94.7823C42.2156 94.6413 41.6206 96.2383 40.2436 95.4243C41.0186 94.5343 41.7746 93.6903 42.5036 92.8233C43.6106 91.5063 41.4067 90.9783 41.7757 89.8003C42.6567 89.8423 43.8476 90.4063 43.5026 88.5733C43.2296 87.1253 43.0876 85.6303 43.0966 84.1573C43.1066 82.4073 42.2936 81.9313 40.6546 81.6353C34.0766 80.4503 28.0757 77.9463 23.4527 72.9163C22.2327 71.5893 20.9857 71.1873 19.2897 71.3983C14.3177 72.0173 9.38466 71.3833 4.45366 70.8113C3.28266 70.6753 2.17865 70.3433 1.26665 69.5443C-0.384353 68.0983 -0.439355 66.3993 1.21465 64.9493ZM17.6477 57.9813C18.3917 60.5963 20.0396 62.3413 21.8986 63.8693C26.8586 67.9443 32.5886 70.3053 38.9866 70.4933C44.0436 70.6413 48.3877 68.4253 52.1337 65.0993C53.0147 64.3163 53.5037 63.2533 53.6347 62.0393C53.9127 59.4603 53.3037 58.6593 50.6697 58.2353C47.2697 57.6883 46.6666 56.9563 47.3046 53.6363C47.6486 51.8433 47.6627 50.1923 46.0697 49.0823C44.5217 48.0043 42.8157 48.3653 41.2777 49.2283C40.0887 49.8963 38.9826 50.7193 37.8746 51.5213C36.7646 52.3253 35.7357 53.2443 34.6037 54.0153C29.5297 57.4723 24.3047 60.3563 17.6477 57.9813ZM17.9587 56.9273C17.7817 57.0253 17.6047 57.1233 17.4277 57.2203C17.9517 57.5833 17.9127 57.1993 17.9587 56.9273ZM39.3726 10.2283C32.9986 14.4433 27.1267 18.8623 22.7467 24.9843C21.7507 26.3763 21.0916 27.9433 20.6836 29.5813C20.1436 31.7493 21.3137 32.8023 23.4967 32.2583C24.3367 32.0483 25.0586 31.6333 25.7146 31.0853C26.2006 30.6793 26.6506 30.2213 27.1706 29.8653C29.6316 28.1793 31.7186 29.2273 31.9206 32.2533C31.9916 33.3103 31.8547 34.3493 31.5917 35.3883C31.2717 36.6533 31.6347 37.7283 32.9137 38.2553C34.2207 38.7933 35.1587 38.1823 35.8367 37.0813C36.2227 36.4533 36.5146 35.7663 36.9116 35.1463C38.5646 32.5623 40.6456 32.5813 42.3166 35.1983C42.6546 35.7283 42.8757 36.3313 43.1727 36.8893C43.5197 37.5393 43.8286 38.2243 44.2666 38.8093C45.0176 39.8133 45.8126 41.0843 47.2356 40.7853C48.5006 40.5203 48.7456 39.1173 49.0506 38.0203C50.6026 32.4263 50.9187 26.5763 52.5647 20.9953C52.9697 19.6223 51.5416 19.3723 50.7226 18.5823C50.1006 19.9063 49.4137 21.1343 47.6997 20.8033C46.1527 20.5043 45.8246 19.2753 45.6756 17.9933C45.3976 17.9433 45.1707 17.8283 45.0047 17.8853C43.9507 18.2483 42.8107 19.3413 41.8077 18.3083C40.6317 17.0973 41.5506 15.7603 42.2176 14.5573C42.4196 14.1943 42.6247 13.8323 42.9237 13.3013C41.1347 13.0333 39.9336 12.1143 39.3726 10.2283ZM50.7637 13.6203C50.5777 13.9453 50.3787 14.1293 50.3977 14.2883C50.6107 16.1473 52.2457 18.5483 53.3507 18.6493C53.6997 18.6813 54.0277 18.4243 53.9917 18.1433C53.7297 16.0653 52.5157 14.6783 50.7637 13.6203ZM58.2096 14.0093C56.6196 12.0083 54.6347 12.4473 52.8017 12.6103C54.3977 13.7393 55.9956 14.5853 58.2096 14.0093ZM48.6026 14.1153C46.9526 15.3313 47.0236 16.7973 46.8006 18.0863C46.6926 18.7113 47.1316 19.3213 47.8826 19.3983C48.7116 19.4833 48.9987 18.9033 49.0137 18.2153C49.0427 16.9873 49.1416 15.7383 48.6026 14.1153ZM46.5986 13.3443C43.9566 14.0423 43.1747 14.9443 42.9827 17.4233C44.8197 16.6213 46.0866 15.4243 46.5986 13.3443ZM42.0617 9.94628C41.8157 10.0413 41.5686 10.3483 41.4896 10.6113C41.3506 11.0783 41.6806 11.4313 42.0676 11.5903C42.4486 11.7463 42.9016 11.8453 43.3046 11.8003C44.2496 11.6953 45.8086 12.2233 45.6926 10.6213C45.6006 9.35127 44.0946 10.1803 43.4766 9.74127C42.8876 9.81627 42.4427 9.79928 42.0617 9.94628ZM42.2866 6.40228C43.0536 7.90228 44.2837 8.38129 45.8767 8.58529C44.6507 6.66029 44.6506 6.66028 42.2866 6.40228ZM47.0986 3.12829C46.8236 2.72529 46.5576 2.14027 45.9206 2.43527C45.3596 2.69527 45.3557 3.32027 45.4827 3.79327C45.8257 5.07927 46.3016 6.31927 47.8136 7.48827C47.7596 5.68827 47.9116 4.32029 47.0986 3.12829ZM47.1576 10.6563C47.0356 11.7553 47.4917 12.5273 48.5707 12.7693C49.4667 12.9703 50.9387 11.5793 50.8587 10.6143C50.7627 9.46328 49.9437 9.02428 48.8977 9.01128C47.8277 8.99828 47.0296 9.36027 47.1576 10.6563ZM50.7696 1.67626C49.7676 1.51126 49.1926 2.11126 49.0806 3.07726C48.9426 4.27526 49.4906 5.30629 49.9946 6.36929C50.9856 5.59629 51.2787 4.47426 51.5877 3.38326C51.8047 2.62026 51.7256 1.83426 50.7696 1.67626ZM51.0707 7.98327C53.6227 8.38527 54.5957 6.42328 56.0307 5.20428C53.7517 4.83128 52.1857 5.77627 51.0707 7.98327ZM52.4296 10.1443C54.6016 11.7663 56.4977 10.4853 58.7517 9.94128C56.4697 8.08328 54.7366 8.20228 52.4296 10.1443ZM83.0676 33.7593C81.0016 32.8093 79.3836 32.0653 77.5766 31.2343C76.6476 32.8233 76.9886 34.2123 77.3306 35.8563C79.4036 35.4883 80.9326 34.5883 83.0676 33.7593ZM71.3317 62.0613C71.6247 62.4913 71.7467 63.0333 72.0097 63.4873C72.6657 64.6223 73.3596 64.6453 74.0416 63.4693C74.4576 62.7523 74.7626 61.9333 74.9386 61.1203C76.4436 54.1943 77.0627 47.1463 77.7417 40.1083C77.8507 38.9793 77.6736 38.1113 76.5796 37.1943C74.9796 35.8533 75.1456 31.7503 76.7736 30.3113C77.7296 29.4663 77.4077 28.8523 77.0437 28.1733C73.0807 20.7793 68.5867 13.9373 59.5837 11.9653C59.2997 11.8183 58.9266 11.6793 58.7436 11.9633C58.5056 12.3343 58.9316 12.3953 59.1716 12.5103C59.4146 15.5593 59.2207 15.7123 54.8577 15.6573C55.5957 17.5323 54.9467 18.9413 54.0187 20.6713C52.8257 22.8973 52.7516 25.7413 52.2836 28.3343C51.6846 31.6553 51.2936 35.0203 50.3086 38.2583C49.7916 39.9603 49.3317 41.9653 47.1397 42.1583C45.1207 42.3353 43.8866 40.7993 42.8826 39.2903C42.1286 38.1573 41.7077 36.8043 40.9707 35.6573C40.0157 34.1733 39.0496 34.2353 38.1096 35.7453C37.6646 36.4603 37.3846 37.2803 36.9216 37.9813C35.8516 39.5973 34.2366 40.2083 32.5416 39.7313C30.8946 39.2663 30.0396 37.9293 30.1406 35.7773C30.1946 34.6263 30.4356 33.4843 30.5416 32.3343C30.5796 31.9273 30.5086 31.4843 29.6876 31.2723C29.0346 39.3843 28.8956 47.4973 27.9906 55.4613C29.2606 55.9733 29.8986 55.2453 30.6096 54.8823C32.7876 53.7713 34.7016 52.2693 36.5586 50.6953C38.0136 49.4613 39.4947 48.2383 41.2987 47.5683C43.3487 46.8063 45.4386 46.5273 47.2786 48.1143C49.0816 49.6683 49.3526 51.6433 48.8216 53.8813C48.2426 56.3203 48.3566 56.4263 50.8356 57.0763C51.4476 57.2373 52.0796 57.3263 52.6886 57.4973C54.0246 57.8713 54.9127 58.6523 55.0397 60.1333C55.1027 60.8693 55.2406 61.5993 55.3516 62.3313C55.4876 63.2273 55.9006 64.0283 56.7966 64.2263C58.0226 64.4963 57.9646 63.2813 58.3176 62.6063C58.6626 61.9463 58.9646 61.2713 59.5926 60.8263C60.9206 59.8853 62.3006 60.2113 63.0106 61.6613C63.1936 62.0333 63.2106 62.4843 63.3686 62.8723C63.6786 63.6333 63.8526 64.6133 64.9086 64.6373C65.8076 64.6573 66.0357 63.8293 66.3367 63.1543C66.5087 62.7693 66.6847 62.3743 66.9317 62.0373C68.2417 60.2423 70.0967 60.2483 71.3317 62.0613ZM39.6316 79.6563C45.1266 80.6703 50.5157 79.9213 55.8747 78.5003C59.7047 77.4853 62.7537 75.4123 65.2847 72.4493C67.0027 70.4393 68.4987 68.2703 69.8547 66.0073C70.2177 65.4013 70.7757 64.7713 70.4317 63.9703C70.1937 63.4163 70.1437 62.6833 69.3967 62.4923C68.5917 62.2863 68.2956 62.8583 68.0156 63.4473C67.3316 64.8853 66.7117 66.5553 64.7236 66.3203C62.7336 66.0853 62.1337 64.4533 61.6827 62.7333C61.3767 61.5673 60.6946 61.9023 60.1236 62.5803C59.9276 62.8133 59.8627 63.1523 59.7117 63.4283C58.1047 66.3593 57.6477 66.4713 54.6777 64.7393C48.7947 70.8763 41.8726 73.3763 33.5036 71.0643C32.5906 70.8123 31.6927 70.5073 30.7897 70.2203C29.3747 69.7703 28.0016 68.7143 26.5766 70.3893C26.1966 70.8363 25.2076 70.7653 24.1316 71.0173C28.4596 76.0663 33.6856 78.5583 39.6316 79.6563ZM2.68666 68.3563C3.32566 68.7693 4.05266 68.8693 4.78166 69.0103C8.65566 69.7583 22.2966 69.7363 26.9116 68.8703C21.9726 65.6273 17.2786 62.4603 15.5336 56.2343C16.4286 56.9593 17.3446 55.8753 18.0076 56.7843C18.7166 56.0833 19.4066 56.7443 20.0206 56.9213C22.2346 57.5583 24.3827 57.5573 26.5187 56.6683C26.7017 56.0643 26.3167 55.6763 25.9397 55.3403C21.4697 51.3503 16.5366 48.2113 10.5556 47.0043C8.88465 46.6673 7.19766 46.4793 5.53166 46.8673C3.71266 47.2903 3.34065 48.3503 4.50865 49.8463C6.16665 51.9683 8.46065 53.2993 10.7706 54.5903C11.6566 55.0853 12.7537 55.2793 13.4367 56.3553C12.8097 57.1333 12.1077 56.8313 11.4747 56.6143C9.36166 55.8903 7.21065 55.4073 4.96465 55.5783C3.94465 55.6563 2.59464 55.5193 2.26064 56.6983C1.89664 57.9863 3.23265 58.4153 4.12065 58.8933C6.26965 60.0503 8.59264 60.7483 10.9686 61.2673C11.9806 61.4873 13.0507 61.5273 13.9787 62.3223C13.4287 63.6983 12.2027 63.2273 11.3027 63.2733C8.85666 63.4003 6.48265 63.7433 4.29665 64.9133C3.64965 65.2593 2.99866 65.6333 2.43666 66.0993C1.43766 66.9273 1.67766 67.7033 2.68666 68.3563Z" fill="#3A5220"/>
<path d="M65.1581 29.4808C63.8721 29.4318 62.9441 28.3928 62.9221 26.9798C62.8981 25.3998 64.1202 23.9548 65.4622 23.9738C66.6192 23.9908 67.6422 25.1708 67.6822 26.5338C67.7302 28.1808 66.5701 29.5358 65.1581 29.4808Z" fill="#3A5220"/>
<path d="M31.8144 42.1426C32.3274 44.9246 31.4634 47.1046 30.8684 49.3026C30.7534 47.0026 30.1764 44.6306 31.8144 42.1426Z" fill="#3A5220"/>
<path d="M23.2004 28.8934C23.7914 26.9154 23.7934 26.9174 25.3594 25.9404C24.8954 26.9814 24.3574 27.9724 23.2004 28.8934Z" fill="#3A5220"/>
<path d="M33.3343 17.5691C33.2843 17.9431 33.0733 18.1541 32.6983 18.1991C32.6553 18.5731 32.4413 18.7821 32.0753 18.8451C30.7343 20.8081 28.9453 22.3051 27.1933 24.0181C26.7973 23.1871 27.2063 22.9081 27.4553 22.6461C28.8323 21.1951 30.2433 19.7761 31.6423 18.3471C31.8543 18.1421 32.0653 17.9361 32.2773 17.7311C32.4793 17.5391 32.6813 17.3471 32.8833 17.1551C33.3153 16.6971 33.7803 16.2881 34.4083 16.1191C34.7383 17.0761 33.8923 17.2231 33.3343 17.5691Z" fill="#3A5220"/>
<path d="M49.0133 63.7056C49.0953 63.3426 49.3262 63.1526 49.6932 63.1196C49.7922 62.5566 50.3573 61.9496 50.6353 62.1286C51.2613 62.5316 50.5373 62.9616 50.3283 63.3686C50.2843 63.4546 50.1813 63.5116 50.1053 63.5816C49.9163 63.7706 49.7273 63.9596 49.5393 64.1486C45.9783 66.9116 41.5163 68.0006 39.2213 66.4466C42.9393 66.6116 45.9963 65.2246 49.0133 63.7056Z" fill="#3A5220"/>
<path d="M27.7277 63.8887C30.7527 64.8127 33.7777 65.7377 36.8027 66.6617C33.3727 66.9017 30.2167 66.3537 27.7277 63.8887Z" fill="#3A5220"/>
<path d="M26.9402 63.3698C27.2562 63.3098 27.5003 63.4508 27.5312 63.8158C27.3092 64.0848 27.0682 63.9068 26.8612 63.7568C26.6922 63.6358 26.7302 63.4098 26.9402 63.3698Z" fill="#3A5220"/>
</svg>
