<svg width="150" height="125" viewBox="0 0 150 125" fill="none" xmlns="http://www.w3.org/2000/svg">
<path d="M118.788 10.8495L120.66 7.88334C123.727 5.12672 127.479 3.13645 131.76 3.65603C133.699 3.89164 135.954 6.01833 135.518 8.0458C134.699 11.8676 125.7 14.401 122.222 14.9169L128.614 19.3017C134.018 23.4075 139.644 31.6365 136.348 38.572C136.06 39.1784 135.146 39.8096 135.095 40.4321C135.055 40.9393 135.611 41.3944 135.652 41.9598C135.776 43.6909 135.088 46.9151 135.021 48.8074C134.923 51.5863 135.202 54.493 135.028 57.2533C134.966 58.2404 134.359 59.5536 134.391 60.4018C134.423 61.2252 135.105 61.4496 134.983 62.4838C134.511 66.478 129.392 71.0662 125.743 72.3459C124.265 72.8643 122.82 72.7998 121.58 73.1829C120.009 73.669 117.912 76.0053 115.482 76.7729C111.104 78.1556 106.566 76.887 103.337 77.7538C102.244 78.0464 100.59 79.1575 99.2543 79.6089C93.6952 81.4913 86.157 83.2025 80.3982 81.5768C79.0404 81.1937 77.5585 80.0454 76.1275 79.904C73.6486 79.6585 70.4034 80.8353 67.3591 80.5538C65.4259 80.3752 63.9812 79.2307 62.3456 79.0062C59.4116 78.6044 56.748 80.2339 53.7087 79.2034C51.9986 78.6243 50.6706 75.9483 49.1813 75.6073C47.7651 75.2824 45.1114 75.9805 43.296 75.8652C42.6363 75.823 40.8606 75.6048 40.3484 75.3754C39.313 74.9116 37.8882 72.2368 37.2037 71.9317C36.4782 71.6081 33.7092 72.527 31.6805 71.5424C29.8353 69.6786 28.1687 68.0876 25.6551 67.103C24.5862 71.6614 25.1293 76.2496 25.3439 80.8514C25.8982 80.7373 25.9428 80.2264 25.985 79.7614C26.1052 78.4557 25.5906 76.6514 25.639 75.0542C25.6663 74.1427 25.8461 70.2986 27.2101 71.1654C27.9393 71.6292 26.5988 79.1104 27.5264 80.9382C27.7347 81.3474 29.3058 81.5657 29.7051 81.955C29.8068 82.0543 30.5409 83.7383 30.562 83.8821C30.7021 84.8233 29.2909 86.5197 29.6257 87.3195C29.782 87.694 33.4811 91.5146 33.7601 91.6187C34.0626 91.7316 37.598 91.4178 37.9737 91.1438C38.6434 90.6577 39.8177 84.4141 39.9851 83.1554C40.1116 82.2006 39.6242 77.3991 41.8861 79.4613C44.0512 81.4355 40.9313 88.7691 40.3125 91.2814C42.0498 92.0627 43.8466 93.7628 44.541 95.5571C44.9477 96.6074 44.2707 97.168 45.4661 97.757C48.2549 99.1285 48.2066 97.4866 49.6389 97.158C50.3407 96.9968 50.8727 97.4718 51.4307 97.4246C52.0991 97.3664 53.0502 95.8758 54.4043 96.4822L55.7163 84.5133C56.0958 83.4902 57.6086 83.6725 57.5392 85.3714C57.3941 88.908 56.3574 93.0274 55.9879 96.6C56.164 97.1816 57.5677 97.1357 58.2807 97.447C58.6007 97.5858 60.5513 98.8123 60.7807 99.0131C61.3213 99.4844 61.2048 100.061 61.3312 100.175C61.5309 100.352 65.7731 100.82 66.6002 101.002C68.2209 101.359 76.089 103.725 76.9 103.211C77.1666 103.042 77.3985 102.339 77.8561 101.966C79.3417 100.757 81.6382 100.315 83.4648 100.852C82.8894 99.4955 82.541 98.0025 82.3017 96.5504C82.1306 95.515 81.3667 89.497 81.73 88.9638C82.7617 87.446 83.5541 89.6954 83.6942 90.4717C83.972 92.0094 84.566 99.5798 85.0595 100.209C85.1364 100.306 87.02 99.5402 85.966 101.478C87.4032 101.553 89.2943 101.172 90.5145 102.102C90.8096 102.328 90.8803 102.88 91.1817 103.063C92.79 104.042 99.9971 102.451 102.216 102.415C102.087 101.845 101.433 102.173 101.338 101.258C101.04 98.3919 106.641 97.3763 106.856 97.0551C106.97 96.8852 107.46 93.795 107.687 93.0436C108.216 91.2839 108.836 89.368 109.483 87.6518C109.733 86.9896 111.861 80.4174 113.005 83.0513C113.803 84.8865 108.234 96.2813 108.779 96.7922C110.901 96.5764 112.388 97.7681 114.18 98.3088C116.284 96.3843 121.869 94.8701 123.458 92.8774C123.978 92.2251 123.966 91.0496 124.72 90.0774C125.33 89.2899 126.766 88.7108 126.91 88.4393C127.226 87.8378 127.206 86.5036 127.515 85.6839C128.475 83.1356 130.285 80.4149 130.353 77.5491C130.384 76.2124 129.221 76.9428 128.688 75.7647C127.588 73.3355 130.904 74.1675 131.236 73.6207C131.445 73.2797 131.338 69.9353 132.062 69.9229C133.119 69.9043 131.875 73.333 132.217 73.6678C136.822 73.8315 143.756 74.5842 142.393 80.875C142.226 81.6463 141.309 82.6979 141.731 83.3588C142.103 83.9404 147.544 86.2803 148.755 87.5997C150.146 89.1151 150.406 91.0558 149.36 92.8402C148.745 93.888 146.087 95.7779 145.828 96.4649C145.635 96.9782 146.273 98.3956 146.276 99.1384C146.298 103.793 141.196 107.574 137.149 108.757C135.12 109.35 131.785 109.411 130.114 110.16C128.543 110.864 127.742 113.497 126.592 114.763C123.81 117.826 119.854 118.714 115.816 118.353C114.363 118.223 112.551 117.382 111.213 117.485C108.071 117.729 104.51 121.132 100.482 121.179C98.24 121.206 95.7971 119.711 93.6568 119.938C89.5026 120.377 84.6342 124.449 79.5463 124.611C74.4894 124.773 72.2697 121.272 67.0764 122.749C62.4051 124.077 59.4005 126.268 54.1898 124.037C51.4481 122.863 50.0456 119.857 46.9827 119.37C40.8804 118.399 34.669 121.924 29.2314 116.808C27.1469 114.846 26.2627 111.766 22.9692 111.195C18.0028 110.335 13.8474 111.965 11.5285 106.074C10.8998 104.477 10.808 102.58 10.2587 101.094C8.54744 96.4624 -0.855837 97.7198 0.0630374 89.4834C0.366849 86.7615 2.8085 84.7365 3.10363 83.1269C3.30699 82.0183 2.25792 78.4569 2.51957 76.3166C3.25616 70.2887 10.0219 72.6683 12.8554 70.089C13.3849 69.6067 13.6453 68.8998 14.2492 68.3579C17.3716 65.5616 21.1252 65.6435 25.0264 66.4817C25.4344 64.8486 24.0753 63.9533 25.3327 62.2519C25.6849 61.7745 26.4736 61.5327 26.538 61.4236C26.7811 61.0131 26.0395 58.3755 25.9713 57.5695C25.5993 53.1277 25.5956 51.2354 24.4858 46.8692C23.8161 44.2365 25.0921 41.6089 25.3401 38.8213C25.6489 35.3417 24.8962 31.8894 25.9503 28.4929C28.2691 21.0179 36.1967 17.0733 43.1534 14.9119C43.2253 14.3539 42.4503 14.6069 42.1019 14.6404C38.1275 15.0161 30.8298 15.9474 28.3262 12.0896C26.228 8.85554 29.7014 6.70035 32.52 5.99849C35.5581 5.2433 39.2039 5.55454 42.2209 6.31841C43.1981 6.56642 46.7619 8.3496 47.0161 8.3C47.3571 8.23303 49.7281 6.13984 50.3729 5.72443C52.9659 4.05284 59.6981 -0.147176 62.358 2.74461C64.7005 5.29167 61.2444 7.17653 59.3819 8.48354L54.0956 11.162C58.2783 10.2208 62.4386 8.94854 66.754 8.66829C74.4113 8.17227 84.7334 7.9999 92.3919 8.3372C98.5835 8.61001 104.59 10.0807 110.657 11.162L107.699 8.96838C105.405 7.3836 101.99 2.1965 105.675 0.402155C110.381 -1.89193 118.421 6.17208 118.788 10.8495ZM115.971 8.03589C114.17 4.45091 110.456 1.61863 106.283 2.41598C106.711 7.88335 113.088 9.72607 116.758 12.7233C117.135 12.8522 117.388 12.6488 117.219 12.262C116.945 11.6357 114.743 9.38258 114.1 8.81588C113.059 7.897 111.626 6.97813 110.442 6.22418C109.605 5.69096 106.899 4.83779 106.896 3.82095C106.889 1.95468 110.241 4.06897 110.947 4.46951L115.971 8.03589ZM61.2494 4.0082C61.2135 3.94868 60.1718 3.56055 60.0317 3.66719L60.6554 5.22346C58.4692 5.24702 56.5856 5.95633 54.6065 6.83304C53.633 7.26458 49.2879 9.50284 48.7906 10.0795C48.4521 10.4713 48.3864 10.6226 48.4707 11.162C50.2849 10.7181 52.1189 10.1936 53.8649 9.52767C55.1794 9.02669 62.4659 6.00467 61.2494 4.0082ZM133.468 7.72709C133.728 6.31467 132.79 5.99724 131.664 5.62895C127.428 4.24009 122.055 7.55226 120.349 11.477C123.129 9.87115 126.286 7.78539 129.407 6.94464C131.228 6.45358 132.24 5.99102 133.468 7.72709ZM45.9671 8.98204C45.4723 8.46495 40.8048 7.53988 39.8338 7.45431C37.8162 7.27823 32.1232 7.3799 30.5607 8.64475C30.1974 8.93864 29.6319 10.5581 29.7473 10.9599C30.3462 13.042 40.9064 13.5752 42.6252 12.7282L45.0308 10.5433C42.7405 9.97037 40.3658 9.71117 37.9886 9.90338C37.2929 9.95918 31.4746 11.7647 32.8585 9.62065C33.2541 9.00807 37.3748 8.48107 38.2713 8.45875C40.9002 8.39179 43.1633 9.32553 45.5231 9.5847C46.1196 9.65042 46.194 9.21889 45.9671 8.98204ZM130.035 8.66708C127.004 9.34414 123.512 10.8557 121.285 13.0357C124.787 13.3755 127.754 11.017 130.035 8.66708ZM83.4177 10.4763C82.9887 10.6896 82.1975 9.7434 81.4213 9.6194C68.6748 7.57704 51.9825 12.1876 40.4439 17.6723C31.7611 21.8004 21.6088 30.3976 30.96 39.7674C38.12 46.9423 49.7331 50.6042 59.7167 50.5385L49.6401 47.9629C43.425 45.3898 31.6049 40.8252 29.8626 33.6763C27.9505 25.8281 32.3042 23.4174 38.373 19.9788C44.2905 16.6257 50.9496 13.8554 57.8405 13.6669C57.9112 14.4841 57.8814 14.1853 57.3718 14.2795C49.3301 15.7812 44.2174 17.2953 37.5633 22.2927C33.6224 25.2514 30.9861 27.7439 32.2955 33.117C32.8982 35.5885 35.8148 37.3654 37.8758 38.7878C47.129 45.1753 55.4757 48.2022 66.6659 48.7429C72.4123 49.0207 78.7366 50.8658 84.8785 51.1635C89.3489 51.3805 93.7225 50.903 98.1569 50.5385C95.4896 46.212 101.387 43.9439 104.88 43.6711C107.367 43.4764 113.036 43.9786 115.138 45.2794C115.637 45.5882 117.106 47.4309 117.53 47.1023C117.658 43.9228 117.955 45.1058 119.828 43.929C123.188 41.8172 127.226 38.2149 131.679 39.0519C133.377 39.3706 133.375 40.6838 134.981 38.1467C138.852 32.0382 131.341 23.4744 126.744 19.9205C121.459 15.8333 115.58 14.0464 109.152 12.5112C102.284 10.8706 90.8158 9.02046 83.9125 9.88725C83.3197 9.96166 83.4921 10.4391 83.4177 10.4763ZM49.092 12.7307C47.9635 12.8051 46.6566 13.0841 45.5876 13.44C45.1871 13.5727 44.1591 13.8157 44.0946 14.2869L45.5926 14.0712L49.092 12.7307ZM26.5926 37.7276V46.6335C26.5926 47.8104 29.1272 48.8632 30.185 48.9773C32.7221 49.2525 33.2405 48.4502 35.3423 47.8823C36.472 47.5772 37.6501 47.4967 38.7847 47.2586C34.0998 44.962 29.9878 41.6709 26.5926 37.7276ZM133.471 41.7924L126.919 46.0185C123.373 47.4557 120.191 48.2952 116.818 49.9817C107.239 54.772 99.9252 51.1151 89.8895 53.0545L74.3158 53.3484L72.8463 55.5359C76.0072 57.2161 77.7011 59.1283 81.6122 58.5256C82.7022 58.3582 86.8502 56.8243 87.4528 56.0864C87.9588 55.4664 87.7492 53.2554 89.9007 54.5835C91.6963 55.6921 90.7154 57.6749 94.5682 58.0383C98.4979 58.4078 102.41 57.0549 104.604 53.6907C107.084 54.8811 108.103 56.9235 111.129 57.0028C114.957 57.1033 117.166 55.6375 118.957 52.4332C119.427 51.5937 119.229 50.562 120.123 50.1367C120.827 49.8019 121.299 50.6327 122.096 50.8262C125.097 51.5528 128.366 51.254 130.816 49.291C131.336 48.8743 131.509 48.3002 131.927 47.8972C132.282 47.5549 133.092 47.5599 133.176 47.2102C133.471 45.9689 133.222 43.2222 133.471 41.7924ZM115.97 47.1073C113.22 45.4059 101.354 44.5428 99.9513 47.4892C98.8464 49.8105 101.789 50.3289 102.218 49.9147C102.402 49.7387 101.503 48.5284 102.549 47.5884C104.46 45.8722 111.127 45.7184 113.39 46.7167C114.176 47.0626 115.036 48.6933 115.97 47.1073ZM112.532 48.0435C109.76 47.9245 106.109 47.1234 103.783 48.9748C106.175 49.7609 108.504 49.3443 110.922 48.7726C111.349 48.6722 112.471 48.5618 112.532 48.0435ZM37.5298 49.6059C36.0938 49.5501 35.0968 49.7015 34.4111 51.0109C40.1872 54.3479 47.0943 53.0954 53.4669 53.0384L50.6668 51.6248C48.3926 51.3966 45.9137 50.8783 43.6432 50.8448C42.361 50.8262 38.4078 51.3284 37.7357 51.12C36.7746 50.82 37.6774 49.7374 37.5298 49.6059ZM133.16 57.2595C133.435 54.9865 132.958 52.2448 133.16 49.916L130.809 52.4085C127.875 54.8935 123.835 54.6778 120.543 53.0831C118.564 55.5396 116.839 58.1226 113.548 58.8989C109.651 59.819 107.449 58.197 104.573 55.8533C101.725 60.036 93.916 62.6413 89.737 59.1171C89.2001 58.6645 88.647 57.3315 88.0443 57.4406C84.4308 60.1513 81.0232 63.0208 76.3805 60.5977C75.1702 59.9665 71.5691 56.5118 71.1115 56.4671C70.5014 56.4076 68.9389 57.262 67.9642 57.3811C65.2535 57.7122 57.3879 57.0202 54.63 56.4101C52.8704 56.0219 53.8649 54.9828 53.7806 54.9171C53.5152 54.71 48.0776 55.5197 47.0732 55.5532C43.2067 55.681 36.9916 55.4367 33.6733 53.3025C32.9429 52.8326 32.1058 51.559 31.5838 51.3296C30.4256 50.8212 28.2096 51.0308 27.0576 49.9185C26.6409 49.7833 27.2151 52.2212 27.2287 52.5598C27.3192 54.6691 26.5938 60.2319 28.3448 61.4447C28.8792 61.8154 29.906 61.8403 30.366 62.2594C30.7008 62.5657 30.2148 63.0791 30.6351 63.5044C31.5304 64.4096 36.9172 66.2747 38.4003 66.7037C53.7248 71.1456 72.7136 72.9201 88.6135 73.6802C100.978 74.2717 110.513 70.337 121.384 65.486C123.157 64.6948 125.439 64.3303 127.128 63.4164C128.776 62.5235 130.425 60.6424 132.228 59.7669C132.625 59.2882 133.089 57.8448 133.16 57.2595ZM67.8427 53.3571C64.7637 53.4489 61.7082 53.305 58.6701 52.8177L55.6568 54.6009C59.1389 54.5736 62.4969 54.8476 65.9169 54.085C66.4043 53.9759 67.684 53.842 67.8427 53.3571ZM72.2201 53.3571L70.5758 53.429L66.909 55.5383C68.8546 55.702 71.1251 55.0808 72.2201 53.3571ZM36.9036 68.6704C34.3615 67.9909 31.9273 66.5227 29.8812 64.9094C29.1967 64.3687 27.4532 61.8477 26.76 62.738C24.9185 65.104 29.3951 66.354 30.7629 67.1538C32.5498 68.1992 32.484 69.3649 35.1774 69.2942C35.4998 69.2855 36.875 69.1503 36.9036 68.6704ZM51.2819 72.4203C51.4431 73.09 52.2715 72.9709 52.698 73.3454C53.2127 73.7968 53.4074 74.5049 54.1117 75.0567C56.8398 77.1908 59.1835 75.6618 62.0108 75.6643C64.9981 75.6668 67.2624 77.6434 69.8925 77.7426C71.7662 77.8133 74.1645 77.0048 76.1275 76.9713C79.953 76.9056 83.13 79.32 87.3772 79.3224C95.3085 79.3274 99.955 74.4813 106.444 73.984C108.89 73.7968 111.449 74.2655 113.858 73.586C115.655 73.0788 117.092 71.4841 118.929 70.8442C120.891 70.1597 122.413 70.5107 124.106 70.0841C126.776 69.4095 130.527 66.0701 131.281 63.3556C129.049 65.2144 126.132 65.6125 123.572 66.7372C121.808 67.511 120.242 68.7349 118.537 69.5161C110.545 73.1829 98.3442 76.0425 89.551 75.5564C79.369 74.9947 69.1312 74.9401 58.9826 73.6232C56.4083 73.2884 53.8612 72.6993 51.2819 72.4203ZM24.4039 67.1055C21.2058 67.1055 18.1801 67.0385 15.7657 69.4021C14.8865 70.2627 14.3707 71.6155 13.2609 72.367C11.1565 73.7906 8.32917 73.1619 6.27194 74.7529C3.34295 77.0184 5.36919 78.9765 5.36423 81.6364C5.35555 86.3473 -1.0406 88.5186 3.45704 93.5222C5.93838 96.2813 11.025 96.6012 12.3717 99.9208C13.3774 102.401 13.3539 106.572 15.9803 108.188C17.8713 109.351 21.243 108.93 23.4863 109.432C28.01 110.445 28.4638 113.581 31.4312 116.175C35.8594 120.047 42.7467 116.657 48.162 118.195C51.5857 119.168 53.3094 122.915 57.0928 123.334C61.1688 123.786 65.4991 120.382 69.2663 120.222C72.1494 120.099 74.3964 122.035 76.7711 122.402C82.0896 123.221 87.2271 119.347 92.2196 118.355L89.546 118.037C65.3317 118.827 23.7343 117.115 10.6022 92.6294C4.6574 81.5446 10.7671 74.1725 21.594 70.6942C22.2686 70.4772 23.3672 70.5739 23.433 70.5082C23.6921 70.2478 24.1299 67.7181 24.4039 67.1055ZM42.9996 72.4166C45.0098 72.8568 48.4683 72.0917 50.6557 72.4166L40.5034 69.9117C39.9343 70.621 42.6698 72.3447 42.9996 72.4166ZM23.4664 71.7941C15.0849 74.2196 7.89641 80.7522 11.8484 90.1307C18.7939 106.61 44.9887 113.586 61.1266 115.229C79.71 117.122 115.217 117.544 130.181 105.222C133.967 102.105 137.712 96.5455 136.836 91.398C136.107 87.1149 133.153 86.4713 129.726 84.9175C130.046 85.9455 128.957 87.6977 129.076 88.4628C129.118 88.7356 132.201 90.1071 132.548 92.5575C133.1 96.4425 128.552 102.611 124.71 99.4583C123.934 98.8209 123.077 96.7885 122.52 96.9199C120.65 97.9578 118.801 99.0751 116.915 100.08C116.345 100.383 114.219 101.084 114.14 101.211C114.007 101.421 114.088 102.522 113.959 103.059C113.045 106.854 108.341 108.206 104.837 108.311C103.374 108.354 102.461 107.961 101.264 107.236L101.286 105.228L90.8543 106.207C88.8491 109.772 84.106 110.749 80.3313 109.775C78.4972 109.303 76.2986 108.103 76.1151 106.147L62.4039 102.1C61.9773 102.141 61.8409 104.649 61.5259 105.315C59.3199 109.966 48.2512 107.263 47.1228 102.986C46.9442 102.312 46.9976 100.697 46.726 100.506C46.5673 100.395 43.4858 99.3058 43.306 99.3144C42.7889 99.3405 41.9791 100.149 41.2797 100.38C40.2778 100.711 38.7264 101.237 37.7009 101.181C34.9083 101.031 31.3134 98.279 30.8819 95.4728C30.6289 93.8285 31.9583 93.0076 31.8913 92.6145C31.8504 92.3739 28.7032 89.223 28.4787 89.1263C27.8066 88.8373 27.4086 90.0637 26.5542 90.339C24.177 91.1066 19.7575 89.6322 19.5467 86.9401C19.4971 86.3101 20.9913 83.3377 21.4501 82.7363C21.7155 82.3878 23.4602 81.1019 23.4825 80.9482C23.5669 80.3802 23.1614 79.3348 23.1452 78.5226C23.0956 76.2806 23.0398 73.9915 23.4664 71.7941ZM138.99 78.1481C137.407 76.5993 133.916 76.4778 131.803 76.4666C131.244 76.5993 130.67 81.2582 130.685 82.0741C137.065 83.5411 140.223 90.5969 138.085 96.5628C135.094 104.911 126.631 109.696 118.949 113.053L110.348 115.542C115.447 116.39 120.67 117.671 124.892 113.684C126.863 111.824 127.107 109.031 129.968 108.135C134.917 106.582 140.31 107.175 143.613 101.781C145.229 99.1421 142.936 98.4117 143.802 95.7171C145.041 91.8655 150.417 91.7551 145.135 88.1007C144.057 87.3542 138.445 84.7836 138.22 84.2318C138.282 81.8385 141.175 80.2847 138.99 78.1481ZM126.911 96.166C129.516 96.1833 129.142 93.7243 129.094 91.7924C127.692 92.7695 126.632 94.4088 126.911 96.166ZM38.156 97.1022C37.2458 96.0693 36.0504 95.3463 34.7174 95.8585C34.5586 96.7463 34.9418 96.3656 35.4068 96.5591C36.2749 96.9187 37.1975 97.189 38.156 97.1022ZM108.469 98.9834C106.432 99.0007 104.37 99.6443 102.852 101.011C103.436 101.796 103.35 101.245 103.808 101.039C104.427 100.76 104.966 100.263 105.595 100.011C106.45 99.6691 107.955 99.7683 108.469 98.9834ZM58.7805 103.046C57.8554 103.541 52.8245 101.958 52.5666 102.139C52.4922 102.191 51.923 103.418 51.5944 103.665C52.4476 103.795 53.1606 104.387 54.0113 104.531C55.7002 104.817 57.6731 104.422 58.7805 103.046ZM83.781 102.108C82.3488 101.935 80.6599 102.524 79.7199 103.665L82.6539 103.631L83.781 102.108ZM110.032 115.547C106.791 115.926 103.628 116.807 100.411 117.327C98.8476 117.58 97.3 117.553 95.807 117.729C95.3457 117.784 94.8671 117.964 95.3432 118.354C97.7055 118.562 99.5681 119.728 101.978 118.894L110.032 115.547Z" fill="#AD1B1F"/>
<path d="M93.8877 43.1542C91.6184 44.3843 89.2028 44.8618 86.4524 44.589C86.0072 44.5443 85.6997 44.0433 85.2446 44.0458C84.0206 44.0545 82.0738 45.7695 80.2162 45.5351C79.1696 45.4037 78.8484 44.5307 78.247 44.3558C76.6014 43.8772 71.6115 45.292 71.9054 42.2887C72.1236 40.064 74.9795 39.8507 73.7803 42.4127C74.2268 42.7512 77.1433 42.1312 77.9208 42.1795C79.0443 42.249 80.1046 43.3092 80.7556 43.2782C81.9274 43.2212 83.6895 41.8894 84.9135 41.7988C86.6632 41.6699 87.2113 42.998 87.3527 42.9992C89.7112 43.0339 93.6583 41.5868 96.1669 41.2074C97.9724 40.9345 108.623 40.3592 109.096 39.9127C109.175 39.8383 108.792 39.1142 108.91 38.6529C109.44 36.5745 116.692 33.8278 118.78 33.3479C118.055 32.3199 117.45 31.5697 117.363 30.2391C117.21 27.9004 119.637 27.1675 117.392 25.2095C116.514 24.4432 115.913 24.6279 115.236 24.2262C109.196 20.6449 97.025 17.7779 89.7831 16.5664C82.0614 15.2743 78.1106 17.0041 70.8079 17.4096C69.7961 17.4654 65.8937 17.6092 65.668 16.2849C67.0134 13.465 69.7279 13.8619 72.2191 13.1947C75.5226 12.3106 76.155 10.1132 80.0451 11.9286C80.9987 12.3738 82.3441 13.8495 83.0112 13.9747C84.2786 14.2115 85.2619 13.4762 86.435 13.3485C90.7528 12.8772 90.7665 14.4843 93.7091 15.4541C98.8677 17.1542 106.173 17.4245 111.907 19.132C114.667 19.9542 116.542 21.2364 118.919 22.1193C120.887 22.8509 124.899 23.094 126.264 24.7742C126.785 25.4166 126.708 26.1259 127.086 26.7645C128.086 28.4547 129.669 28.2228 128.96 31.1841C128.454 33.2921 126.414 33.3529 125.642 34.4268C124.529 35.9719 125.262 36.9552 122.633 38.2932C120.126 39.5692 119.037 38.855 116.874 39.1489C115.409 39.3485 112.646 40.6853 110.723 41.0697C106.961 41.8249 96.1867 41.908 93.8877 43.1542ZM121.908 24.9181C123.728 26.948 125.58 28.9854 126.751 31.4717C128.738 30.0296 126.317 29.3141 125.648 28.2067C125.277 27.5929 125.333 26.8662 125.003 26.3516C124.588 25.7018 122.72 24.923 121.908 24.9181ZM113.47 37.7253C116.795 37.574 118.169 37.3917 120.944 35.6706C126.868 31.9963 124.225 30.7302 120.037 27.103C120.232 28.0207 119.098 29.3537 119.16 30.0234C119.228 30.7599 120.387 31.4259 120.593 32.3249C121.649 36.9304 115.369 34.9984 113.47 37.7253Z" fill="#AD1B1F"/>
<path d="M48.2002 25.5804C47.5728 26.6642 50.002 27.0734 50.0268 28.1907C50.0479 29.153 47.6249 31.2983 48.1643 32.0932C48.4247 32.4776 51.4901 32.294 52.0866 33.0281C52.4052 33.5254 51.7927 33.9842 51.6649 34.5199C51.3735 35.7364 52.0159 36.7136 50.033 36.4804L50.3443 33.9818C49.1005 34.0946 47.9696 33.6209 46.9106 33.0418L45.9706 35.5392C46.7605 35.7476 47.6249 34.7419 48.3007 34.918C50.2277 35.4202 45.6842 38.4868 44.3846 36.659C43.2822 35.1077 45.4535 34.0437 45.0307 33.668C42.6076 34.4468 38.5713 33.7548 40.9633 30.6969C33.1337 26.8167 42.2009 25.4701 45.6569 23.6621C45.802 22.9292 44.9178 22.7482 44.7628 22.1939C44.1874 20.123 48.9889 18.6411 50.6456 19.7733C50.8552 19.9159 51.8733 21.6706 51.8546 21.8963C51.7988 22.577 49.7106 24.4991 49.0993 25.0906C48.8451 25.3349 48.2263 25.5345 48.2002 25.5804ZM50.0318 20.5434C49.3994 20.1676 46.6502 20.7988 46.2819 21.7871C46.83 22.0761 48.0279 21.9521 48.3999 22.179C48.6628 22.339 48.5946 23.145 49.2096 23.0135C49.3386 22.985 50.653 22.0376 50.6518 21.9483C50.6506 21.8603 50.0764 21.4647 49.9115 21.1659C49.785 20.9377 50.0591 20.5595 50.0318 20.5434ZM46.5919 24.917C44.4751 25.7875 42.713 27.4479 40.3446 27.7307C40.6608 28.7698 43.4918 28.2738 43.7758 28.6731C44.0585 29.9677 42.3745 30.8866 42.0583 31.7956C41.6503 32.9624 45.3134 31.984 45.8826 31.9171C46.1802 31.8823 46.5646 32.1341 46.5894 32.1068C46.6465 32.0435 46.7333 30.9337 46.9813 30.4575C47.2107 30.0161 48.4681 28.631 48.4644 28.5082C48.4532 28.2031 45.115 26.8105 46.5919 24.917Z" fill="#AD1B1F"/>
<path d="M83.8769 35.1317C83.7021 35.0089 83.1552 34.0752 83.1911 33.8644C83.4243 32.4532 85.5708 33.8334 86.4649 33.9512C89.3716 34.3356 93.6819 33.8966 96.5266 33.129C98.3879 32.6256 102.202 30.5163 103.638 30.5225C105.377 30.5299 104.819 31.7179 103.687 32.4755C101.903 33.6672 98.4574 35.0399 96.3456 35.4479C94.0155 35.8968 85.6551 36.3817 83.8769 35.1317Z" fill="#AD1B1F"/>
<path d="M52.4716 39.6775C52.5721 39.7357 53.2702 40.9312 53.9932 41.4259C56.9668 43.4621 65.1697 44.4132 68.9432 44.9142C69.5148 44.9898 72.822 44.6773 72.5331 46.0054C72.3793 46.711 69.6339 46.5089 68.9444 46.4754C64.9887 46.2894 55.5333 44.8162 52.6936 42.1005C51.7202 41.1705 50.9352 38.7921 52.4716 39.6775Z" fill="#AD1B1F"/>
<path d="M63.3935 21.561C63.8375 21.499 65.9518 21.2497 65.9629 21.9466C65.9716 22.4724 63.7953 22.465 63.2137 22.6287C59.7676 23.5984 56.923 27.2391 58.6231 30.8551C59.0968 31.862 60.591 32.585 60.6555 32.8888C60.9916 34.4661 58.4755 32.8764 58.0031 32.4126C54.087 28.571 59.0112 22.1798 63.3935 21.561Z" fill="#AD1B1F"/>
<path d="M66.2808 31.1672C66.4916 31.3705 65.8492 32.566 65.967 32.7247C66.4469 33.3658 73.2288 33.6894 73.4681 33.9858C73.54 34.0751 73.4284 34.6579 73.4718 34.9146C72.0247 35.1812 64.7716 34.4508 64.7171 32.5871C64.6972 31.8728 65.7488 30.655 66.2808 31.1672Z" fill="#AD1B1F"/>
<path d="M106.594 29.289C106.527 29.3535 105.913 29.2531 105.659 29.2928L105.348 25.8541C106.413 25.5168 106.734 29.1539 106.594 29.289Z" fill="#AD1B1F"/>
<path d="M35.42 60.6158C35.6209 60.4063 36.0128 60.3182 36.3029 60.3901C45.1854 63.5113 54.1397 66.6375 63.6286 67.4138C70.3806 67.9656 77.1885 66.5557 83.9244 66.4676C86.185 66.4379 88.4084 66.7888 90.4867 66.8062C102.845 66.9103 114.315 63.9925 125.745 59.537C125.979 59.4452 128.204 57.8431 128.151 58.8252C128.132 59.1699 126.521 60.2649 126.088 60.5067C120.124 63.8263 109.059 66.9053 102.277 67.947C93.4455 69.3024 84.8098 67.5266 75.8145 68.0487C72.2655 68.2545 68.7673 69.0978 65.1737 68.9961C55.6328 68.7257 46.1253 66.3325 37.0408 63.6899C36.0103 63.2534 34.4515 61.624 35.42 60.6158Z" fill="#AD1B1F"/>
</svg>
