<svg width="27" height="25" viewBox="0 0 27 25" fill="none" xmlns="http://www.w3.org/2000/svg">
<path d="M24.4016 1.97358C22.8106 0.314579 20.9046 0.340579 18.9096 0.987579C18.1986 1.21858 17.5086 1.52858 16.8336 1.85258C15.4036 2.53858 14.2886 3.66958 12.9396 4.75758C11.5346 3.20058 10.3496 1.69158 8.59062 0.808579C6.06062 -0.461421 3.3416 -0.229422 1.5226 1.46258C-0.157399 3.02558 -0.45438 5.43158 0.66762 8.09058C2.92962 13.4506 6.58761 17.8666 10.2436 22.2836C10.5866 22.6986 11.0396 23.0286 11.4636 23.3696C12.7686 24.4206 12.8156 24.4576 13.9726 23.2726C16.6396 20.5396 19.3156 17.8076 21.7226 14.8386C23.3556 12.8246 24.8356 10.6906 25.7056 8.20858C26.5246 5.87658 26.1346 3.78058 24.4016 1.97358ZM23.8596 10.2926C22.9646 12.0616 21.8106 13.6846 20.4806 15.1536C18.3276 17.5316 16.1296 19.8696 13.9126 22.1886C12.8126 23.3386 12.7396 23.3206 11.6026 22.3066C10.3206 21.1646 9.24562 19.8276 8.27562 18.4236C5.83962 14.8936 2.92361 11.6706 1.41661 7.54058C0.983613 6.35358 0.640616 5.18858 0.925616 3.96158C1.33662 2.18758 3.27662 0.850579 5.27562 0.842579C7.54162 0.834579 11.1926 3.23258 12.0266 5.29258C12.1306 5.54958 12.1096 5.84858 11.8506 6.02558C11.5556 6.22758 11.3536 5.96858 11.1646 5.80658C10.4396 5.18558 9.73562 4.53958 9.00762 3.92258C8.37962 3.39058 7.69661 2.94458 6.89861 2.69458C4.34561 1.89558 2.02462 3.97958 2.52962 6.62658C2.75162 7.79358 3.36061 8.78658 3.97661 9.77258C6.33461 13.5466 9.41162 16.7916 11.8576 20.5046C12.4766 21.4446 13.0996 21.3526 13.9566 20.2886C15.4986 18.3746 16.9986 16.4276 18.5216 14.4996C19.2406 13.5896 20.0106 12.7156 20.6916 11.7786C21.6616 10.4456 22.4106 8.99058 22.8886 7.17158C23.5126 4.41358 21.3746 2.38558 18.4456 3.22458C17.0356 3.62858 15.8266 4.38258 14.7876 5.40658C14.3016 5.88558 13.8756 6.42558 13.3756 6.88858C13.1346 7.11158 12.9366 7.75958 12.4616 7.26158C12.0736 6.85558 12.5026 6.51758 12.7686 6.23158C14.0266 4.87458 15.3696 3.61158 16.9936 2.69458C17.9496 2.15558 18.9706 1.75858 20.0496 1.54558C22.7516 1.01158 25.0376 2.86958 25.2296 5.64658C25.3496 7.38858 24.5926 8.84258 23.8596 10.2926ZM11.9686 9.48758C12.1746 10.1136 12.7256 10.0896 13.1166 9.70958C13.6516 9.18958 14.0746 8.55558 14.5606 7.98258C15.6706 6.67158 16.8066 5.38358 18.5026 4.80758C19.2776 4.54458 20.0906 4.22358 20.8136 4.91858C21.6086 5.68258 21.6376 6.62658 21.2606 7.57558C20.7806 8.78258 20.2276 9.96958 19.4086 10.9886C17.3586 13.5386 15.2736 16.0596 13.0626 18.7636C10.3466 15.4036 7.8296 12.2606 5.5136 8.96258C5.0016 8.23458 4.52962 7.48058 4.22362 6.63658C3.91662 5.79058 3.99762 4.99058 4.68962 4.38658C5.39562 3.76958 6.18561 3.79658 6.94661 4.34558C8.91861 5.76458 11.1306 6.94258 11.9686 9.48758Z" fill="#AD1B1F"/>
</svg>
