<svg width="256" height="268" viewBox="0 0 256 268" fill="none" xmlns="http://www.w3.org/2000/svg">
<path d="M41.2598 233.148C42.0598 236.348 66.261 258.148 77.7599 263.648C89.2588 269.148 114.259 267.648 124.259 267.648C134.259 267.648 148.759 268.148 154.759 267.648C154.759 267.648 183.925 263.982 185.759 263.148C187.592 262.315 193.959 259.048 204.759 252.648C215.559 246.248 221.925 239.315 223.759 236.648C223.759 236.648 228.45 222.564 231.759 213.648C231.759 213.648 231.718 202.88 226.758 200.648C222.567 198.763 218.758 201.148 215.258 203.148C211.758 205.148 192.258 219.648 184.758 222.148C177.258 224.648 174.215 216.143 166.758 215.648C153.598 214.776 140.758 231.148 136.258 230.148C131.758 229.148 126.058 225.848 111.258 224.648C96.4578 223.448 94.2578 227.648 90.2578 228.648C86.2578 229.648 66.2578 222.148 66.2578 222.148C63.9238 221.315 57.4562 219.548 50.2578 219.148C43.0594 218.748 41.2598 223.982 41.2598 226.648C41.761 229.648 40.4598 229.948 41.2598 233.148Z" fill="#3A5220"/>
<path d="M20.7595 197.148C27.7635 209.304 40.7587 223.648 41.2598 226.648C41.2598 223.982 43.0594 218.748 50.2578 219.148C57.4562 219.548 63.9238 221.315 66.2578 222.148C66.2578 222.148 86.2578 229.648 90.2578 228.648C94.2578 227.648 96.4578 223.448 111.258 224.648C126.058 225.848 131.758 229.148 136.258 230.148C140.758 231.148 153.598 214.776 166.758 215.648C174.215 216.143 177.258 224.648 184.758 222.148C192.258 219.648 211.758 205.148 215.258 203.148C218.758 201.148 222.567 198.763 226.758 200.648C231.718 202.88 231.759 213.648 231.759 213.648C236.969 199.608 246.259 178.148 246.259 178.148C246.259 178.148 252.926 159.58 254.259 147.148C255.237 138.023 255.38 132.757 254.259 123.648C252.974 113.212 250.561 107.632 247.259 97.6483C242.67 83.7728 235.743 77.455 232.759 63.1483C229.569 47.8565 229.925 26.1483 232.759 23.1483C235.592 20.1483 240.959 12.9483 239.759 8.14829C238.559 3.34829 235.592 1.14829 234.259 0.648292C232.925 0.148292 229.592 -0.518375 222.259 0.648292C214.925 1.81496 198.859 4.94829 193.259 8.14829C187.659 11.3483 179.76 23.6483 177.259 23.1483C174.758 22.6483 175.107 22.5987 173.759 22.1483C167.786 20.1529 166.052 13.9421 159.759 14.1483C152.412 14.389 147.758 26.6483 145.259 26.1483C142.76 25.6483 143.712 16.5301 139.259 13.1483C135.713 10.4552 132.695 9.77041 128.259 10.1483C122.595 10.6307 119.74 13.5614 115.778 17.629L115.759 17.6483C110.515 23.0307 109.76 35.1483 107.759 35.1483C105.758 35.1483 93.5402 23.1216 85.7588 14.1483C82.4822 10.3699 81.7597 4.14829 77.7588 4.14829C73.7578 4.14829 71.9588 4.64829 66.7588 6.64829C61.5588 8.64829 56.5921 18.4816 54.7587 23.1483C52.9254 27.815 53.7597 39.6483 51.2587 41.6483C48.7578 43.6483 50.1086 42.6677 49.2587 43.1483C43.4573 46.4288 40.3782 37.7316 34.7587 34.1483C29.0508 30.5085 26.9935 25.3353 20.2587 24.6483C16.5222 24.2672 13.6114 23.705 10.7587 26.1483C7.55737 28.8903 8.19515 32.4336 8.25875 36.6483C8.37074 44.07 14.7438 46.5045 16.7587 53.6483C19.6741 63.9844 21.2585 71.9816 16.7587 81.1483C12.259 90.315 2.96483 106.998 0.759536 125.148C-0.418037 134.84 -0.0737971 147.315 0.759536 150.148C1.59287 152.982 10.8009 179.865 20.7595 197.148Z" fill="#AD1B1F"/>
</svg>
