<svg width="110" height="120" viewBox="0 0 110 120" fill="none" xmlns="http://www.w3.org/2000/svg">
<path d="M79.4764 25.2759C78.7652 26.3717 76.1915 27.0262 74.9625 27.1976C65.7054 28.482 62.4365 14.9439 53.7193 13.1196C45.7404 11.4494 44.97 18.3818 40.0185 18.0982C36.7632 17.9121 36.9221 12.3677 34.871 12.3554C34.394 12.3529 33.647 12.7831 33.5706 13.1603C33.3389 14.2943 38.3569 21.6766 39.894 22.3003C45.5296 24.5893 45.1105 20.529 47.2972 19.1398C52.0293 16.1322 54.6474 24.3884 57.0239 26.8376C60.8204 30.7488 67.1316 31.264 72.2594 30.9509C69.6326 34.7055 64.6071 39.2281 62.5351 43.1442C62.1492 43.8739 61.8041 44.5235 61.9471 45.3888C65.4638 42.1161 68.4727 38.3504 71.9869 35.0593C74.0615 33.1154 77.6386 31.2677 79.2546 28.9159C80.2382 27.4848 80.0828 25.7603 81.8085 24.7606C83.2371 24.646 82.2794 26.6626 82.8378 27.8472C83.3419 28.9171 85.4781 31.3133 86.1215 32.2809C86.4161 32.7235 86.6972 33.251 86.6774 33.7909C86.6565 34.3715 81.4535 42.5328 80.6264 43.6976C77.1603 48.5751 72.104 55.6418 65.6759 55.8304C60.0982 64.147 51.0013 72.238 45.7367 80.509C44.758 82.0474 43.5981 83.5672 43.4921 85.5C43.3577 87.9665 45.5136 89.2188 44.7827 92.4594C44.318 94.5155 36.3071 98.9468 34.0809 100.834C28.9495 105.185 25.0704 111.027 19.6492 115.025C20.2655 110.498 25.5067 107.987 28.4379 104.99C29.8924 103.503 33.6729 99.3191 34.5099 97.6501C34.982 96.7083 35.7327 95.186 35.6304 94.158C35.5108 92.9549 33.6446 90.2148 32.2579 91.7864C26.8084 96.6923 21.8408 103.124 16.2792 107.79C10.5376 112.606 13.4885 107.922 16.2792 105.211C19.3004 102.276 29.6557 94.0471 30.3941 90.4034C30.8538 88.1366 30.1821 86.5674 27.7747 87.2984C24.7696 88.2118 16.4172 99.0183 12.9449 101.877C12.0216 102.636 10.0495 104.385 8.81439 103.936C12.7921 100.161 17.5636 96.1327 20.8892 91.7667C22.6716 89.4259 25.9788 80.1146 26.9649 79.5328C28.3097 78.739 32.8113 81.5666 36.4155 78.4074C37.976 77.0392 39.4404 75.6574 41.0527 74.2756C46.3715 69.7149 56.5075 57.741 59.594 51.5507C60.0365 50.6632 60.129 49.0078 60.3891 47.9662C58.4033 50.858 56.415 53.7399 54.1901 56.4628C52.881 58.0652 47.8926 64.1396 46.7351 65.0493C46.2236 65.4512 45.4729 64.9335 45.4384 64.9877C45.3213 65.1738 45.8699 65.9035 45.4914 66.8206C45.0477 67.8955 43.3824 69.5004 42.3458 70.1463C41.8453 67.8388 40.5584 65.1208 39.4392 62.9896C32.794 50.3391 24.2568 38.6068 17.8113 25.8133C16.2545 23.7437 13.1101 25.0183 10.8753 25.2759C12.2202 26.9646 13.5514 24.9073 15.7837 26.8105C17.6228 28.3784 22.8196 37.103 24.4996 39.7569C27.5245 44.5333 41.0095 67.2853 40.7531 71.4726C40.6804 72.6571 35.8115 77.0466 34.463 77.4891C28.7116 79.375 27.0808 74.6824 22.5225 82.0548C19.3768 87.1431 16.8388 92.6382 13.1607 97.4528C12.2214 98.6818 4.82681 104.579 8.11794 105.666C10.3305 106.396 13.1644 104.031 14.7557 102.658C18.6188 99.3215 23.1536 92.6875 26.8404 89.9831C27.5418 89.4691 27.9202 89.0253 28.9285 89.2398C30.4964 90.4798 13.719 105.848 12.7144 107.324C11.5114 109.089 10.2578 111.882 13.4787 111.2L33.5681 92.8477C33.843 94.656 32.7115 96.0982 31.7205 97.443C28.65 101.607 23.8426 105.528 20.6871 109.623C19.0292 111.775 16.4616 115.357 19.3855 117.597C19.9636 117.59 22.1478 114.358 22.7727 113.772C25.8925 110.843 31.1547 105.634 34.4877 103.185C37.7074 100.818 44.7888 98.4661 46.7019 95.4005C49.2633 91.2958 45.1968 88.1982 46.0708 83.9333C46.3506 82.5651 51.7557 74.0956 52.6518 74.7921C53.5331 78.3014 54.5032 81.0354 57.9756 82.6267C59.5768 83.3614 61.2938 83.2874 62.9505 84.3573C67.563 87.3354 68.9139 93.8572 70.0369 98.9357C71.7527 106.701 74.8589 123.169 61.5687 114.625C56.113 111.117 53.4505 107.27 49.4765 102.472C49.0969 102.015 48.4571 100.808 48.5397 102.375C51.5929 107.408 55.3673 112.569 60.2275 115.966C79.84 129.675 74.2697 93.7586 68.1213 85.8907C63.1427 79.5192 55.212 82.1041 53.241 74.1203L65.7831 58.2513C70.1564 57.3836 71.7921 57.9987 74.8294 54.4018C79.5664 48.7909 82.7601 41.0992 86.9647 35.0716C88.8691 44.3682 80.9777 53.9901 85.2969 63.0426C87.7745 68.2344 97.4803 69.3697 95.6165 76.2256C94.766 79.3516 89.5211 84.3807 93.6591 87.6928C97.0267 90.3898 96.1774 86.6266 96.8972 84.7234C97.8365 82.2434 101.039 79.0065 101.552 76.4746C101.835 75.0719 101.416 71.9237 101.012 70.5407C99.5338 65.4857 94.7167 65.4203 91.942 62.0713C86.1745 55.1106 91.7916 49.7338 91.8681 42.2912C95.4809 45.0128 101.134 50.5769 105.998 50.0173C110.279 49.5255 110.099 45.9151 109.936 42.5266C109.77 39.0555 109.076 32.239 106.56 29.9155C105.2 28.6595 100.829 27.0805 100.632 26.8093C100.351 26.4222 102.115 24.307 102.211 22.94C102.419 19.9755 100.257 15.6379 101.08 12.1816L94.061 6.78635C93.2844 6.53366 92.5978 6.73088 91.8484 6.93057C91.4206 7.0452 84.6029 10.4904 83.941 10.9009C78.6074 14.2043 85.5977 20.6362 86.6996 19.591C86.564 17.9959 84.7077 17.0973 84.2516 15.5911C83.3432 12.5871 85.2353 13.5215 87.0534 12.4639C89.3843 11.108 92.1713 8.01652 94.9299 9.03468C95.9567 9.41433 99.5943 12.613 99.6559 13.6484C99.7188 14.6949 99.1936 15.7612 99.2787 16.6696C99.5067 19.0794 101.073 22.8907 99.0691 24.4845C97.2177 25.9575 95.5795 24.5683 93.6123 24.2885C92.2983 24.1012 91.0028 24.4007 89.6629 24.1024C88.2589 23.7893 87.5551 21.9823 86.7613 21.8824C85.7222 21.7505 85.1305 22.8698 84.6239 22.4531C84.1518 22.0649 81.3746 16.804 80.9321 15.8191C77.8148 8.8843 78.2463 4.95466 69.9482 1.5267C65.9779 -0.113935 63.3511 -1.16785 60.4051 2.32791C56.0884 7.44951 59.3734 11.866 62.9862 16.2271C67.4927 21.663 72.3271 24.5597 79.4764 25.2759ZM61.0879 3.26964C61.9582 2.42282 64.2977 1.57724 65.0361 2.57814C65.3023 2.9393 64.1474 4.63787 64.0327 5.43415C63.5372 8.90032 64.9633 12.1434 65.5464 15.469C62.132 12.7326 56.738 7.50498 61.0879 3.26964ZM79.9929 23.2051C76.9138 22.7342 69.7262 21.1527 68.1078 18.3312C67.5765 17.4067 65.7572 10.7505 65.6093 9.48212C65.4872 8.42945 65.1655 3.83296 66.339 3.60369C67.2573 3.42372 71.913 7.59373 72.6846 8.5971C75.4457 12.1853 75.7329 16.0792 77.6484 19.6242C78.4028 21.0221 79.787 21.7062 79.9929 23.2051ZM83.088 22.1721C82.4742 22.7884 79.7315 19.5786 79.2693 19.0326L75.8747 9.79522L77.1701 11.3311L83.088 22.1721ZM47.4982 16.4958C47.6942 15.7082 48.7061 15.22 49.4186 15.066C56.4902 13.5412 63.0343 26.5936 69.6486 28.1368L73.8014 28.8752C68.6021 30.1201 62.3366 29.4027 58.5771 25.2808C55.2637 21.647 54.3627 15.3532 47.4982 16.4958ZM40.2761 19.6008C42.0413 19.7968 43.4329 18.7898 44.9133 18.0489C45.7539 18.9475 41.0182 22.8439 40.2761 19.6008ZM84.6412 26.8142C84.4254 25.3437 85.0011 23.6919 86.6984 23.724C87.1212 24.1801 85.9823 27.2814 84.6412 26.8142ZM88.2515 25.7911C89.3819 25.7578 90.9461 25.5052 91.3442 26.8117L88.2528 26.2953L88.2515 25.7911ZM92.8924 28.3612C92.7519 27.7079 93.1118 27.0422 93.7441 26.8746C95.7225 26.3483 105.966 30.8289 106.705 32.8627C107.212 34.2569 107.209 37.103 107.329 38.6783L104.676 33.3435C101.575 30.0092 97.2103 29.1168 92.8924 28.3612ZM104.755 37.3915C105.115 39.1825 104.755 43.0246 104.755 45.1287C104.755 45.1854 106.031 46.2615 104.492 45.9102C101.459 45.2187 91.3208 34.1545 91.3233 30.6945C91.3245 28.9257 93.1438 30.7093 94.1472 30.9744C97.7921 31.942 103.822 32.7506 104.755 37.3915ZM94.9497 42.8076C93.1821 41.6256 91.4712 39.9184 91.3491 37.6503L94.9497 42.8076ZM95.4686 87.683C93.208 87.6275 93.1205 84.9884 93.4335 83.3256C94.0141 80.2465 98.4787 79.0003 98.6131 74.5357C98.8485 66.7393 88.9628 67.4973 86.8599 61.9936C84.2455 55.1513 89.3597 46.3281 89.2869 39.1985C90.1905 39.0789 89.7689 40.367 89.796 40.9957C90.1794 49.6401 84.1912 56.178 91.3319 63.7107C94.2705 66.8107 97.8809 66.5309 99.3354 71.1841C101.67 78.6514 95.9654 80.9257 95.4686 87.683ZM107.34 46.4168C107.367 45.1349 107.28 43.8307 107.335 42.5451C107.362 41.9177 106.944 40.6284 107.845 40.7479C107.818 42.0299 107.906 43.334 107.85 44.6196C107.823 45.247 108.241 46.5364 107.34 46.4168ZM99.1924 46.3342C99.1234 46.2307 99.2873 44.2597 99.3366 43.8418L104.755 47.9601C103.615 48.2941 99.7076 47.1145 99.1924 46.3342Z" fill="#AD1B1F"/>
<path d="M57.8118 86.1326C57.6158 85.075 55.2862 84.9875 54.5022 85.1095C51.7214 85.5446 49.7689 89.5149 49.5544 92.0739C49.1427 96.965 53.0379 104.019 56.3216 107.49C58.8879 110.203 64.6468 115.494 67.0492 110.074C67.419 109.238 68.5728 104.824 67.0973 105.99C66.2258 106.679 66.1087 112.595 62.9839 111.174C62.4736 110.942 58.7092 106.964 58.1163 106.212C56.5706 104.255 52.3118 97.638 51.8533 95.4525C50.9362 91.0816 52.3204 85.2328 57.8118 86.1326Z" fill="#AD1B1F"/>
<path d="M17.582 11.8633C21.2799 14.7267 19.6121 17.7738 20.8214 21.7737C21.7372 24.801 24.1815 27.7433 25.2354 30.7707L44.4004 62.9252C37.9291 49.0815 29.2723 36.3742 22.4311 22.6969C22.8441 17.2548 24.3048 13.176 17.582 11.8633Z" fill="#AD1B1F"/>
<path d="M8.81705 23.2017C9.73659 23.214 9.38159 20.9423 9.32119 20.374C9.0648 17.9593 7.85431 14.3908 6.4565 12.4063C4.93173 10.2405 0.75932 8.18078 1.67763 5.00798C2.37284 2.60434 6.39984 2.2629 8.44848 2.56489C9.65646 5.36297 13.2484 6.60055 11.9085 9.79184L14.502 8.99555C12.2795 4.2573 6.70433 -2.32127 1.31771 2.5575C-2.39868 5.9226 2.77097 10.7927 4.26862 13.5637C5.9561 16.6872 7.29351 20.0018 8.81705 23.2017Z" fill="#AD1B1F"/>
<path d="M6.23336 6.18627C5.11043 7.30181 9.58986 14.2724 10.5945 15.4902C10.947 15.9179 14.7632 19.6479 15.043 19.8106C16.8352 20.8509 20.7933 21.36 18.5942 18.8393C18.0876 18.2575 16.5197 17.7016 15.7691 17.0174C14.8557 16.1854 12.6221 14.0086 11.9146 13.1371C10.6906 11.6284 8.78367 7.4152 8.02807 6.7089C7.3834 6.10491 7.111 6.0778 6.23336 6.18627Z" fill="#AD1B1F"/>
<path d="M70.7134 46.4286C71.4826 50.6873 76.2011 46.2313 76.3922 44.0668C76.497 42.8761 75.3087 41.8703 75.5885 41.2527C75.8733 40.629 79.7227 37.8692 78.961 37.1357C73.228 37.9123 75.3075 45.0086 70.7134 46.4286Z" fill="#AD1B1F"/>
<path d="M68.6458 43.3316C68.7555 43.8567 69.0477 44.3165 69.669 44.1057C74.1656 42.5785 75.1172 36.2045 78.6832 33.4989C79.3833 32.9676 80.5679 33.3608 80.5076 32.4968C73.7576 32.4055 74.5526 41.8167 68.6458 43.3316Z" fill="#AD1B1F"/>
<path d="M38.7294 91.2969L40.2714 88.2018C39.6453 88.9475 36.0324 90.7447 37.5362 91.3068C37.853 91.4263 38.531 91.1687 38.7294 91.2969C38.775 91.3265 38.5248 92.1955 39.0696 92.3422C41.832 93.0842 44.487 89.3235 41.8283 87.6865C42.1266 90.1222 41.3365 91.6014 38.7294 91.2969Z" fill="#AD1B1F"/>
<path d="M64.002 52.6067C60.7614 52.5439 61.8547 54.8587 63.7468 56.2097L64.002 52.6067Z" fill="#AD1B1F"/>
<path d="M14.9991 9.80059C15.3713 10.6413 16.1319 11.5078 17.0625 11.3377C16.6903 10.497 15.9297 9.63172 14.9991 9.80059Z" fill="#AD1B1F"/>
<path d="M80.5146 35.0723H82.0566V36.0991H80.5146V35.0723Z" fill="#AD1B1F"/>
</svg>
