<svg width="125" height="98" viewBox="0 0 125 98" fill="none" xmlns="http://www.w3.org/2000/svg">
<path fill-rule="evenodd" clip-rule="evenodd" d="M69.5727 76.9835C69.0437 74.9495 66.4016 73.4005 64.4746 74.6555C63.0736 75.5675 61.8876 76.8515 60.9306 78.3395C60.5716 76.2165 60.6916 73.9135 61.1836 71.9295C61.5616 70.4115 62.9736 68.5515 64.6516 67.2195C65.1866 68.1135 65.9486 68.9025 66.9026 69.5115C68.7406 70.6865 71.2996 70.4975 71.5186 68.1365C71.5726 68.3425 71.6217 68.5605 71.6617 68.7935C71.6967 69.0025 72.0366 68.9515 72.0276 68.7425C71.7926 63.3695 68.2256 64.2595 65.0846 66.6475C63.6636 64.0795 65.2596 60.9135 67.0406 58.7575C70.3496 54.7535 70.3676 60.8035 73.1236 61.6005C76.8086 62.6645 78.4546 56.4305 76.7176 52.9535C78.4196 52.5815 79.9076 50.4295 80.7766 48.3715C81.3166 48.4985 81.9046 48.5075 82.4786 48.3725C82.7346 48.3125 82.6237 47.9405 82.3727 47.9855C80.5947 48.3055 79.2126 47.0065 79.5956 45.2075C79.9766 43.4245 81.9366 42.9945 83.4406 43.4665C84.1866 43.7005 85.1677 44.4585 85.9247 45.3615C84.9477 46.5965 84.5397 48.2725 85.1617 49.7715C85.2257 49.9215 85.3567 50.0245 85.5287 49.9795C88.2087 49.2745 88.0686 47.2515 86.8766 45.4995C87.2946 45.0315 87.7776 44.5715 88.3006 44.0755C88.4296 43.9525 88.2986 43.7115 88.1236 43.7715C87.4696 43.9935 86.8876 44.3805 86.3896 44.8625C85.3916 43.6995 83.9827 42.7645 82.7577 42.6055C80.7047 42.3375 78.8847 43.7155 78.7887 45.8225C78.7317 47.0555 79.3906 47.8455 80.2976 48.2195C79.9186 48.7035 79.5536 49.1975 79.2096 49.7055C78.8106 50.2195 78.4096 50.7325 78.0096 51.2475C76.6616 51.1145 75.7096 51.1015 75.1316 51.2055C74.8126 51.0235 74.4606 50.8825 74.0686 50.8065C73.7596 50.7455 73.3606 51.0955 73.6036 51.4105C74.3656 52.4005 75.1287 52.8725 75.8697 52.9815C75.9307 53.0215 75.9826 53.0575 76.0486 53.0975C77.0066 54.5955 76.7536 56.7865 76.3166 58.3885C75.6286 60.9095 72.9377 61.6945 71.6377 59.3155C71.2747 58.6525 71.0016 57.9455 70.6176 57.2915C68.8576 54.3105 65.4256 59.6405 64.6786 60.8935C63.4496 62.9595 63.5306 65.2165 64.5636 67.0585C62.8206 68.4955 61.2776 70.3245 60.6176 71.6885C59.9446 73.0765 59.7857 76.3725 60.3517 79.2955C57.1937 85.1095 57.4627 93.4355 63.1957 96.8705C63.5937 97.1085 63.9386 96.5045 63.5556 96.2545C58.7456 93.1285 58.6056 88.0085 59.9126 82.9895C60.1346 82.2345 60.4106 81.5005 60.7116 80.7745C61.5876 83.6685 63.3226 85.7005 66.1806 84.1395C69.0256 82.5875 70.4087 80.1925 69.5727 76.9835ZM85.6916 49.3155C85.4416 47.9285 85.7757 46.9335 86.4297 46.0465C87.2997 47.3865 87.4766 48.8225 85.6916 49.3155ZM71.3366 67.5605C71.1406 67.4985 70.8936 67.5795 70.9126 67.8355C71.1506 71.1135 67.0756 68.8365 66.0216 67.8475C65.6746 67.5215 65.3996 67.1785 65.1816 66.8255C67.5436 65.1645 70.2516 64.6635 71.3366 67.5605ZM61.4756 80.4435C61.3786 80.1755 61.2966 79.8975 61.2196 79.6175C61.2366 79.5825 61.2496 79.5455 61.2676 79.5095C62.3396 76.6505 64.7836 75.6345 68.5956 76.4605C71.9596 81.1585 63.5296 86.1045 61.4756 80.4435Z" fill="#AD1B1F"/>
<path fill-rule="evenodd" clip-rule="evenodd" d="M53.8666 68.5264C54.6806 63.7654 49.9996 58.3554 45.6756 56.4024H45.6726C45.3916 52.8634 41.9296 49.5714 38.3956 49.3894C38.1746 43.6424 32.5706 40.5814 27.4986 39.6164C26.9806 39.5174 26.7596 40.2664 27.2776 40.4154C30.6886 41.3794 34.6586 42.7254 36.5556 45.9664C37.1486 46.9794 37.3736 48.2334 37.4646 49.4194C36.5136 49.5264 35.5776 49.8554 34.7206 50.5154C34.4726 50.7054 34.4376 50.9714 34.6296 51.2194C36.7226 53.9084 38.2656 52.8404 38.3926 50.1044C38.8226 50.0494 39.1686 50.0294 39.2906 50.0504C41.7246 50.4824 43.4276 53.1264 44.2666 55.2294C44.3846 55.5254 44.4716 55.8344 44.5406 56.1444C42.2926 55.7124 39.4996 56.3844 40.0036 59.2984C40.3576 61.3484 44.2086 61.0024 45.0266 59.5014C45.4586 58.7114 45.6496 57.8904 45.6786 57.0704C49.2026 59.2034 53.5976 63.5174 53.0106 67.9574C50.6226 66.5174 47.7036 65.8544 47.1586 68.7504C46.7446 70.9564 48.6996 74.8304 51.3346 72.6624C52.6276 71.5984 53.3826 70.3944 53.7296 69.1314C53.8756 69.2704 54.0196 69.3894 54.1676 69.5524C55.5746 70.7434 56.1496 72.7094 56.6146 74.4064C58.0526 79.6494 56.8456 85.7644 56.1216 91.0404C56.0666 91.4244 56.6466 91.5984 56.7136 91.2034C57.8246 84.5564 59.2396 77.1274 56.1136 70.8184C55.7896 70.1564 54.9286 69.2944 53.8666 68.5264ZM35.8416 51.3154C35.3586 50.8444 36.4426 50.4664 37.5276 50.2474C37.7146 51.3944 37.1576 51.7544 35.8416 51.3154ZM44.6156 58.3354C44.3496 59.3614 43.6466 59.8674 42.5086 59.8534C41.9406 59.3334 41.3716 58.8134 40.8036 58.2924C41.9076 56.8424 43.1836 56.2834 44.6256 56.5934C44.7106 57.1704 44.7176 57.7584 44.6156 58.3354ZM51.4266 71.4424C50.2966 71.1824 49.1646 70.9254 48.0336 70.6674C49.5376 68.0504 51.1686 67.3424 52.9206 68.4794C52.6996 69.4714 52.2356 70.4664 51.4266 71.4424Z" fill="#AD1B1F"/>
<path fill-rule="evenodd" clip-rule="evenodd" d="M61.0924 42.312C60.9654 41.881 60.3335 41.871 60.2115 42.312C59.3135 45.554 55.8135 48.059 53.9635 43.66C52.5595 40.32 56.3734 37.721 59.0354 36.856C59.6464 36.658 60.7574 36.633 61.1814 36.02C63.1224 33.209 61.2124 27.642 59.8394 24.964C59.5684 24.434 58.7824 24.9 59.0434 25.429C60.3044 27.985 60.7445 30.653 60.8435 33.48C60.9375 36.13 59.1204 35.68 57.6914 36.342C55.2014 37.498 53.4035 39.059 52.8695 41.828C52.4005 44.257 55.1174 48.397 57.9654 47.149C58.9384 46.723 60.9815 45.155 60.6535 44.05C61.3965 46.56 62.3954 54.529 57.6084 54.387C56.9154 54.366 56.1495 54.758 55.4825 54.942C50.7005 56.258 57.6974 65.663 59.1944 66.874C59.5404 67.154 60.0364 66.684 59.6914 66.376C59.2604 65.992 52.0755 55.813 56.1355 55.813C57.1465 55.813 58.5004 55.428 59.5164 55.162C63.8654 54.022 61.8324 44.81 61.0924 42.312Z" fill="#AD1B1F"/>
<path fill-rule="evenodd" clip-rule="evenodd" d="M105.802 58.1874C106.225 58.0464 106.053 57.4424 105.62 57.5254C86.4416 61.2924 71.8256 77.6434 68.1966 96.4764C68.1166 96.8894 68.7316 97.0694 68.8346 96.6514C73.7386 76.6764 86.6246 64.5344 105.802 58.1874Z" fill="#AD1B1F"/>
<path fill-rule="evenodd" clip-rule="evenodd" d="M75.3984 26.7525C75.1664 26.8315 75.1435 27.1075 75.3345 27.2445C75.5785 27.4205 75.8764 27.5005 76.1864 27.5465C70.0414 36.1365 66.0034 47.2445 63.5104 57.2065C63.4554 57.4275 63.7645 57.5005 63.8445 57.2985C66.1355 51.4585 68.1314 45.5345 70.6634 39.7885C72.5494 35.5155 74.9674 31.5805 77.2654 27.5515C77.4724 27.5245 77.6755 27.4885 77.8605 27.4495C78.8565 27.2365 79.6685 26.5575 80.2905 25.7835C80.6085 25.3885 80.0704 24.8215 79.7234 25.2165C79.1994 25.8085 78.6154 26.2095 77.8874 26.4525C78.1574 25.9725 78.4255 25.4925 78.6885 25.0095C78.8065 24.7935 78.5055 24.5335 78.3365 24.7365C77.8265 25.3485 77.3334 25.9825 76.8504 26.6275C76.3574 26.6345 75.8614 26.5945 75.3984 26.7525Z" fill="#AD1B1F"/>
<path fill-rule="evenodd" clip-rule="evenodd" d="M51.3054 55.1341C50.8194 45.5701 43.8894 33.7021 36.3304 27.9261C36.0044 27.6791 35.6804 28.1881 35.9174 28.4621C42.5644 36.1751 49.5864 44.5521 50.6454 55.1341C50.6854 55.5501 51.3284 55.5671 51.3054 55.1341Z" fill="#AD1B1F"/>
<path fill-rule="evenodd" clip-rule="evenodd" d="M42.7578 27.1343C43.0958 26.9163 43.4099 26.6733 43.7259 26.4293C44.0319 26.2533 44.3439 26.1243 44.6639 26.0463C44.6749 26.1773 44.6959 26.3093 44.7099 26.4413C44.3489 27.0493 44.0188 27.6693 43.7218 28.3023C43.6048 28.1253 43.4919 27.9423 43.3739 27.7663C43.1569 27.4423 42.6919 27.7203 42.8559 28.0693C43.0229 28.4243 43.2019 28.7733 43.3769 29.1263C43.3729 29.2373 43.4209 29.3363 43.5129 29.4033C45.9639 34.2963 48.9369 38.8663 50.1729 44.3023C50.2339 44.5683 50.6138 44.4503 50.5728 44.1923C49.7118 38.8473 47.1319 33.6433 44.2079 29.0563C44.5299 28.6263 44.8448 28.1873 45.1438 27.7333C45.3948 27.7473 45.6898 27.5313 45.6408 27.2003C45.6308 27.1313 45.6249 27.0593 45.6159 26.9893C45.8049 26.6883 45.9939 26.3893 46.1759 26.0843C46.5609 26.2083 46.9428 26.4253 47.3098 26.7473C47.6408 27.0373 48.2969 26.7673 48.1159 26.2773C47.8639 25.5973 47.5399 24.9663 47.1919 24.3463C47.3859 24.0063 47.5809 23.6643 47.7759 23.3283C48.0279 22.8913 47.5299 22.4193 47.0979 22.6513C46.8639 22.7793 46.6529 22.9373 46.4319 23.0833C46.0609 22.5063 45.6779 21.9333 45.2929 21.3543C45.0719 21.0213 44.4918 21.1253 44.5058 21.5683C44.5368 22.5473 44.5398 23.5163 44.5728 24.4843C44.0948 24.8863 43.6099 25.2813 43.1129 25.6613C42.7869 25.8583 42.4659 26.0843 42.1609 26.3613C41.7479 26.7373 42.2868 27.4373 42.7578 27.1343Z" fill="#AD1B1F"/>
<path fill-rule="evenodd" clip-rule="evenodd" d="M32.3388 20.3591C32.3938 18.8451 32.7428 17.4051 33.4108 16.0451C33.7328 15.3861 34.1768 14.8111 34.6878 14.2901C35.0828 13.8911 35.5158 13.7291 35.7548 13.2201C35.8358 13.0471 35.7348 12.8901 35.5528 12.8681C34.2398 12.7071 33.1258 14.5941 32.5968 15.5691C31.8128 17.0191 31.5168 18.7261 31.5098 20.3591C31.5088 20.8941 32.3188 20.8901 32.3388 20.3591Z" fill="#AD1B1F"/>
<path fill-rule="evenodd" clip-rule="evenodd" d="M33.7084 18.3504C33.4914 18.7914 34.1293 19.1764 34.3733 18.7394C34.8443 17.8934 35.4203 17.1424 36.2013 16.5614C36.6133 16.2524 37.0783 16.0714 37.5923 16.0444C37.9593 16.0254 38.2694 16.1224 38.6304 16.0194C38.7624 15.9814 38.8134 15.8364 38.7524 15.7204C38.2644 14.7734 36.9433 15.1304 36.1803 15.4914C35.0423 16.0274 34.2404 17.2634 33.7084 18.3504Z" fill="#AD1B1F"/>
<path fill-rule="evenodd" clip-rule="evenodd" d="M34.8504 21.6151C35.7274 20.9521 36.6644 20.5071 37.7414 20.2631C38.9784 19.9831 39.8744 20.5601 40.8844 21.1571C41.0484 21.2551 41.2754 21.0941 41.2134 20.9051C40.2324 17.8461 35.9824 19.6291 34.3614 20.9801C34.0104 21.2731 34.4844 21.8901 34.8504 21.6151Z" fill="#AD1B1F"/>
<path fill-rule="evenodd" clip-rule="evenodd" d="M38.5752 23.6852C39.3002 24.0912 39.8363 24.7312 40.5403 25.1582C40.7553 25.2872 41.0873 25.0712 40.9883 24.8132C40.3333 23.1202 38.1942 22.4052 36.5592 22.1162C36.0942 22.0342 35.8862 22.7192 36.3612 22.8362C37.1422 23.0282 37.8722 23.2912 38.5752 23.6852Z" fill="#AD1B1F"/>
<path fill-rule="evenodd" clip-rule="evenodd" d="M34.3058 23.724C33.9578 23.389 33.4447 23.903 33.7777 24.251C34.2687 24.762 34.7568 25.274 35.1908 25.835C35.5368 26.282 35.8137 27.119 36.3897 27.269C36.5397 27.308 36.6667 27.22 36.7177 27.083C36.9307 26.512 36.3217 25.9 35.9887 25.479C35.4867 24.842 34.8878 24.283 34.3058 23.724Z" fill="#AD1B1F"/>
<path fill-rule="evenodd" clip-rule="evenodd" d="M31.8212 33.2593C33.9682 31.5953 33.8472 28.7933 32.8792 26.5033C32.7002 26.0813 31.9732 26.3883 32.1372 26.8163C32.9852 29.0463 32.6762 30.9503 31.3772 32.9173C31.1832 33.2103 31.5882 33.4413 31.8212 33.2593Z" fill="#AD1B1F"/>
<path fill-rule="evenodd" clip-rule="evenodd" d="M28.0343 28.6427C28.7113 28.3637 29.2223 27.8647 29.5593 27.2197C29.8053 26.7477 29.1063 26.3347 28.8463 26.8017C28.5353 27.3577 28.1073 27.7017 27.5043 27.9037C27.0373 28.0597 26.4673 28.0248 26.0573 28.3158C25.9053 28.4228 25.9003 28.6257 26.0573 28.7307C26.6103 29.1047 27.4693 28.8777 28.0343 28.6427Z" fill="#AD1B1F"/>
<path fill-rule="evenodd" clip-rule="evenodd" d="M26.9735 24.3117C27.4135 24.0887 27.0286 23.4727 26.5946 23.6627C26.0776 23.8897 25.5716 24.0037 25.0066 23.9807C24.4676 23.9577 24.0275 23.5837 23.5105 23.4937C23.3625 23.4687 23.2276 23.5817 23.2666 23.7387C23.6636 25.3237 25.9615 24.8257 26.9735 24.3117Z" fill="#AD1B1F"/>
<path fill-rule="evenodd" clip-rule="evenodd" d="M25.4748 21.6258C25.9378 21.7808 26.1128 21.0768 25.6728 20.9058C23.8508 20.1988 23.5177 18.6758 23.1347 16.9538C23.0727 16.6798 22.6227 16.6688 22.5697 16.9538C22.1757 19.0758 23.4928 20.9658 25.4748 21.6258Z" fill="#AD1B1F"/>
<path fill-rule="evenodd" clip-rule="evenodd" d="M28.011 19.5673C27.386 18.5163 27.0169 17.4123 26.7939 16.2173C26.5949 15.1513 26.847 14.0983 26.693 13.0443C26.663 12.8323 26.388 12.8573 26.292 12.9903C24.911 14.8753 26.245 18.2433 27.371 19.9403C27.634 20.3373 28.258 19.9813 28.011 19.5673Z" fill="#AD1B1F"/>
<path fill-rule="evenodd" clip-rule="evenodd" d="M29.2604 16.9329C29.1144 16.2689 29.0604 15.6089 29.0654 14.9309C29.0714 14.2969 29.1904 13.6789 29.0914 13.0469C29.0634 12.8619 28.8154 12.8759 28.7294 12.9999C27.9604 14.1049 28.2485 15.9029 28.5415 17.1309C28.6515 17.5999 29.3634 17.3999 29.2604 16.9329Z" fill="#AD1B1F"/>
<path fill-rule="evenodd" clip-rule="evenodd" d="M80.7902 24.7338C81.2732 24.9278 81.6232 24.0958 81.1462 23.8918C81.0672 23.8588 80.9962 23.8148 80.9212 23.7758C81.0052 23.8408 81.1081 23.8778 81.2151 23.8758C82.6331 23.8368 84.1101 23.2488 84.1891 21.6448C84.2541 20.3008 83.0162 19.2439 81.8032 19.0059C81.4142 18.9289 81.0162 18.9298 80.6322 18.9958C80.6682 18.9258 80.6882 18.8438 80.6702 18.7458C80.4512 17.5828 80.5012 16.4208 80.7582 15.2668C81.0352 14.0268 81.8362 13.1378 82.3482 12.0238C82.4562 11.7898 82.2351 11.5328 81.9911 11.6648C79.5941 12.9568 79.3592 16.6348 79.9462 18.9468C79.9692 19.0408 80.0191 19.1009 80.0771 19.1439C79.2331 19.4549 78.5552 20.1228 78.4112 21.0908C78.1662 22.7238 79.3502 24.1578 80.7902 24.7338ZM81.4812 21.2478C81.5982 20.7698 82.1632 20.6048 82.5452 20.3748C82.8992 20.6638 83.1632 21.0608 83.2122 21.5088C83.3142 22.4568 82.3812 22.7799 81.5892 22.8639C81.4542 22.3339 81.3502 21.7848 81.4812 21.2478ZM81.2582 19.9348C80.2722 20.5808 80.4412 22.4268 80.7392 23.5138C80.7682 23.6168 80.8322 23.7068 80.9162 23.7728C79.0802 22.7798 78.7112 19.9458 81.2582 19.9348Z" fill="#AD1B1F"/>
<path fill-rule="evenodd" clip-rule="evenodd" d="M82.1838 17.7371C82.5198 16.5661 82.9798 15.4631 83.6828 14.4631C84.4258 13.4031 85.5738 13.128 86.5128 12.352C86.6388 12.248 86.5718 12.011 86.4138 11.981C85.1258 11.723 83.9178 12.7741 83.1458 13.6951C82.2338 14.7841 81.7728 16.1751 81.4548 17.5381C81.3458 18.0091 82.0508 18.2081 82.1838 17.7371Z" fill="#AD1B1F"/>
<path fill-rule="evenodd" clip-rule="evenodd" d="M85.1278 17.92C85.8278 17.284 86.5868 16.879 87.5448 16.851C88.4968 16.824 89.1028 17.537 89.9308 17.84C90.0878 17.899 90.2258 17.726 90.1898 17.582C89.9418 16.581 88.7878 15.977 87.8048 15.935C86.5338 15.881 85.4488 16.487 84.5628 17.356C84.1938 17.717 84.7488 18.264 85.1278 17.92Z" fill="#AD1B1F"/>
<path fill-rule="evenodd" clip-rule="evenodd" d="M86.9616 19.5088C87.8656 19.5628 88.6906 19.8318 89.3996 20.4078C90.1116 20.9878 90.4756 21.8598 90.9416 22.6248C91.0876 22.8658 91.5056 22.7778 91.4916 22.4758C91.3786 20.1288 89.1366 18.7528 86.9626 18.7908C86.4966 18.7978 86.5026 19.4808 86.9616 19.5088Z" fill="#AD1B1F"/>
<path fill-rule="evenodd" clip-rule="evenodd" d="M88.5721 26.16C88.6071 26.337 88.8751 26.367 88.9571 26.211C89.8401 24.505 88.7561 22.517 87.5291 21.302C87.1821 20.956 86.6681 21.478 86.9951 21.835C87.5431 22.435 87.9501 23.073 88.2091 23.846C88.4581 24.59 88.4201 25.395 88.5721 26.16Z" fill="#AD1B1F"/>
<path fill-rule="evenodd" clip-rule="evenodd" d="M82.8828 30.1894C82.7788 30.3154 82.8288 30.5674 83.0308 30.5474C85.8648 30.2764 86.9868 26.8044 86.1308 24.4884C85.9588 24.0214 85.2229 24.2064 85.3739 24.6964C85.7089 25.7784 85.6818 26.7904 85.1668 27.8084C84.6438 28.8424 83.5938 29.3374 82.8828 30.1894Z" fill="#AD1B1F"/>
<path fill-rule="evenodd" clip-rule="evenodd" d="M82.3859 25.7083C82.0299 26.6673 81.5088 27.4783 80.8198 28.2323C80.2558 28.8493 79.3248 29.2043 78.9028 29.9213C78.8108 30.0793 78.9319 30.2503 79.0989 30.2633C80.0599 30.3363 81.0029 29.3103 81.5889 28.6553C82.2859 27.8773 82.7458 26.8823 83.0688 25.8973C83.2138 25.4573 82.5429 25.2863 82.3859 25.7083Z" fill="#AD1B1F"/>
<path fill-rule="evenodd" clip-rule="evenodd" d="M76.4888 24.6935C77.0248 24.5915 76.7888 23.8075 76.2668 23.8875C75.6678 23.9785 75.0708 23.8685 74.6098 23.4615C74.1938 23.0955 74.1178 22.5135 73.8908 22.0355C73.7778 21.7985 73.4718 21.9075 73.3938 22.1005C73.0908 22.8515 73.5148 23.6795 74.0798 24.1845C74.7408 24.7765 75.6558 24.8525 76.4888 24.6935Z" fill="#AD1B1F"/>
<path fill-rule="evenodd" clip-rule="evenodd" d="M74.0557 17.5177C73.6037 18.2887 74.0437 19.3637 74.4687 20.0567C74.9417 20.8317 75.7487 21.3247 76.5727 21.6527C76.9947 21.8207 77.2957 21.1037 76.8827 20.9187C76.2097 20.6177 75.6597 20.2187 75.2387 19.6067C74.7997 18.9677 74.8677 18.1477 74.4647 17.5177C74.3697 17.3707 74.1487 17.3597 74.0557 17.5177Z" fill="#AD1B1F"/>
<path fill-rule="evenodd" clip-rule="evenodd" d="M27.716 23.2996C27.929 24.5716 29.14 25.3106 30.311 25.5676C30.793 25.6746 30.996 24.9566 30.515 24.8266C29.753 24.6166 28.988 24.1926 28.677 23.4226C28.388 22.7066 28.889 22.1596 29.531 21.9126C30.265 21.6256 31.537 21.4736 32.049 22.2336C32.527 22.9476 31.535 23.4196 31.108 23.7746C30.89 23.9576 31.086 24.2706 31.32 24.2876C32.466 24.3686 33.302 23.1586 32.99 22.1066C32.575 20.6986 30.802 20.6856 29.653 20.9286C28.537 21.1646 27.51 22.0756 27.716 23.2996Z" fill="#AD1B1F"/>
<path fill-rule="evenodd" clip-rule="evenodd" d="M11.3055 62.3665C11.4855 62.6615 11.6725 62.9475 11.8445 63.2455C12.1155 63.7145 12.9544 63.3935 12.7414 62.8675C12.7254 62.8275 12.7065 62.7915 12.6885 62.7515C12.6905 62.7515 12.6905 62.7505 12.6925 62.7505C12.6885 62.7425 12.6825 62.7355 12.6785 62.7295C11.9695 61.0205 11.0515 59.4895 9.91545 58.0255C9.81845 57.9035 9.72645 57.7865 9.63945 57.6755C10.3855 57.0925 11.1085 56.4815 11.7785 55.8055C12.1655 55.6095 12.5675 55.4315 12.9995 55.2885C13.5755 55.1005 13.3365 54.2045 12.7475 54.3775C12.7395 54.3795 12.7315 54.3845 12.7245 54.3865C12.6715 54.1935 12.5215 54.0355 12.2695 54.0325C11.3065 54.0225 10.3465 53.9765 9.38646 53.9175C9.34746 53.1695 9.26447 52.4495 9.06047 51.6925C9.03947 51.6135 8.99246 51.5555 8.93846 51.5085C8.88446 51.2665 8.84749 51.0255 8.78649 50.7795C8.68249 50.3575 7.96247 50.3135 7.89147 50.7795C7.75747 51.6555 7.56147 52.7195 7.45647 53.7775C6.33947 53.6815 5.22346 53.5735 4.10546 53.4555C3.64246 53.4055 3.55347 53.9795 3.77147 54.2605C4.66747 55.4135 5.55846 56.6015 6.49846 57.7455C6.35346 58.3585 6.08046 58.9265 5.68346 59.4345C5.12346 59.8785 4.57349 60.3345 4.05449 60.8305C3.63849 61.2275 4.17249 61.9015 4.66149 61.6165C5.35649 61.2105 5.92146 60.7175 6.37346 60.1635C6.81146 59.8165 7.25548 59.4745 7.70348 59.1415C8.78848 60.3435 9.96547 61.4535 11.3055 62.3665ZM9.40648 54.9025C9.99348 54.9415 10.5825 54.9695 11.1705 54.9915C11.1375 55.0255 11.1075 55.0635 11.0735 55.0955C10.4845 55.4185 9.9265 55.7935 9.4005 56.2265C9.3925 55.8375 9.3795 55.4495 9.3615 55.0635C9.3865 55.0165 9.39848 54.9635 9.40648 54.9025ZM5.1505 54.5135C5.5545 54.5585 5.95945 54.6035 6.36345 54.6445C6.32645 54.7345 6.31249 54.8395 6.35149 54.9625C6.50149 55.4385 6.57444 55.9015 6.60344 56.3545C6.11244 55.7445 5.6295 55.1305 5.1505 54.5135Z" fill="#AD1B1F"/>
<path fill-rule="evenodd" clip-rule="evenodd" d="M117.368 52.5261C116.5 52.6841 115.635 52.8631 114.772 53.0501C114.89 52.2761 115.06 51.5021 115.276 50.7341C115.407 50.2631 114.765 49.8391 114.42 50.2371C113.474 51.3391 112.628 52.5051 111.826 53.7061C111.317 53.8171 110.807 53.9211 110.297 54.0261C108.969 52.9961 107.44 52.2331 105.538 51.9371C104.916 51.8401 104.648 52.7891 105.277 52.8891C106.689 53.1141 107.881 53.6141 108.937 54.2931C108.166 54.4361 107.396 54.5701 106.617 54.6711C106.041 54.7451 106.01 55.6451 106.617 55.5981C107.774 55.5071 108.917 55.3301 110.054 55.1181C110.246 55.2791 110.433 55.4431 110.617 55.6141C109.773 57.0401 108.993 58.5061 108.293 60.0161C108.098 60.4361 108.53 61.0401 108.992 60.7171C110.26 59.8321 111.547 58.9511 112.795 58.0231C113.52 58.9361 114.221 59.8911 114.948 60.8331V60.8341C114.975 60.8681 115.002 60.9031 115.027 60.9381C115.393 61.4091 116.087 60.8091 115.825 60.3231C115.169 59.1041 114.816 57.8371 114.675 56.5471C115.825 55.5821 116.908 54.5471 117.864 53.3791C118.194 52.9751 117.887 52.4341 117.368 52.5261ZM110.456 58.4471C110.329 58.5371 110.203 58.6301 110.075 58.7201C110.42 58.0411 110.79 57.3781 111.167 56.7201C111.184 56.7871 111.222 56.8441 111.273 56.8881C110.987 57.4001 110.716 57.9191 110.456 58.4471ZM112.939 56.6341C112.874 56.5591 112.805 56.4891 112.742 56.4151C113.039 56.1451 113.255 55.7901 113.391 55.4031C113.394 55.3981 113.398 55.3921 113.401 55.3871L113.398 55.3861C113.413 55.3441 113.44 55.3091 113.452 55.2681C113.623 54.6861 112.855 54.4481 112.535 54.8811C112.498 54.9321 112.47 54.9881 112.433 55.0391C112.326 55.0161 112.215 55.0351 112.124 55.0971C112.229 54.9421 112.332 54.7861 112.434 54.6271C112.828 54.5391 113.22 54.4511 113.613 54.3611C113.578 54.9371 113.589 55.5101 113.625 56.0811C113.397 56.2671 113.171 56.4531 112.939 56.6341ZM114.607 55.2491C114.607 54.8761 114.62 54.5031 114.65 54.1271C115.139 54.0181 115.628 53.9111 116.119 53.8091C115.637 54.3131 115.129 54.7891 114.607 55.2491Z" fill="#AD1B1F"/>
<path fill-rule="evenodd" clip-rule="evenodd" d="M63.9933 37.3085C64.6173 36.6205 65.2773 35.9395 65.9353 35.2465C65.9403 35.2655 65.9423 35.2825 65.9463 35.3005C66.0893 35.8955 66.9503 35.6365 66.8483 35.0525C66.8083 34.8255 66.7833 34.5985 66.7563 34.3715C66.9743 34.1355 67.1903 33.8965 67.4013 33.6555C67.9973 33.7185 68.5873 33.8495 69.1673 34.0955C69.6003 34.2805 70.1303 33.8845 69.8523 33.4105C69.5343 32.8665 69.2143 32.3255 68.8973 31.7845C69.2423 31.3015 69.5703 30.8065 69.8513 30.2875C70.1153 29.8045 69.4503 29.2345 69.0653 29.6805C68.7923 29.9975 68.5083 30.2995 68.2163 30.5925C67.6743 29.6005 67.1793 28.5855 66.7993 27.5045C66.6433 27.0575 65.9993 27.1335 65.9773 27.6145C65.8983 29.2465 65.6623 30.8755 65.6543 32.4985C65.4733 32.5865 65.2843 32.6555 65.0953 32.7275C64.3743 32.8255 63.6543 32.9785 62.9343 33.1735C62.3873 33.3205 62.4883 34.2005 63.0693 34.1705C63.8793 34.1305 64.6273 33.9605 65.3303 33.7055C65.4543 33.6875 65.5773 33.6765 65.7003 33.6625C65.7053 33.7295 65.7133 33.7965 65.7183 33.8635C64.8503 34.7815 63.9903 35.7065 63.2863 36.7625C63.0053 37.1895 63.6513 37.6845 63.9933 37.3085ZM66.7573 29.7545C66.9853 30.2655 67.2313 30.7695 67.4943 31.2645C67.2263 31.4925 66.9503 31.7075 66.6633 31.9035C66.6803 31.1875 66.7203 30.4715 66.7573 29.7545Z" fill="#AD1B1F"/>
<path fill-rule="evenodd" clip-rule="evenodd" d="M38.3285 40.1375C38.7385 40.3885 39.2815 39.8805 39.0025 39.4625C38.6375 38.9155 38.2745 38.3665 37.9075 37.8205C38.0955 37.3845 38.2765 36.9485 38.4535 36.5175C38.6415 36.0565 37.9305 35.6625 37.6195 36.0335C37.4495 36.2365 37.2575 36.4135 37.0745 36.6005C36.5925 35.9065 36.0965 35.2195 35.5635 34.5595C35.2795 34.2045 34.6995 34.5865 34.8225 34.9925C35.1115 35.9385 35.3905 36.8895 35.6445 37.8465C35.2725 38.1115 34.8825 38.3495 34.4765 38.5655C33.9455 38.7165 33.4125 38.9495 32.8785 39.2785C32.4075 39.5695 32.7125 40.3965 33.2675 40.1985C33.3085 40.1825 33.3455 40.1615 33.3865 40.1475C33.3885 40.1465 33.3905 40.1455 33.3905 40.1455C33.8805 39.9635 34.3545 39.7555 34.8125 39.5195C35.2055 39.4145 35.5935 39.3645 35.9845 39.3755C35.7095 39.9155 35.4375 40.4575 35.1895 41.0115C34.9645 41.5115 35.5895 41.8685 35.9165 41.4375C36.0675 41.2355 36.1975 41.0165 36.3365 40.8045C36.5035 41.3095 37.3055 41.0575 37.2135 40.4955C37.1655 40.1985 37.1025 39.9055 37.0435 39.6125C37.0535 39.5925 37.0645 39.5755 37.0735 39.5555C37.4865 39.6855 37.9025 39.8785 38.3285 40.1375Z" fill="#AD1B1F"/>
<path fill-rule="evenodd" clip-rule="evenodd" d="M13.7802 57.1852C13.3602 57.1362 13.2912 57.8052 13.6822 57.9102C31.7212 62.7112 51.2802 75.4872 50.2152 96.5632C50.1842 97.1572 51.0902 97.1482 51.1312 96.5632C52.5422 76.7602 32.4072 59.3252 13.7802 57.1852Z" fill="#AD1B1F"/>
<path fill-rule="evenodd" clip-rule="evenodd" d="M24.5164 54.7885C29.3324 57.5715 33.6954 60.3085 37.6644 64.2745C41.1994 67.8065 44.1694 71.8425 47.4204 75.6255C47.6974 75.9475 48.1274 75.4875 47.8774 75.1675C41.6584 67.1545 34.7824 57.6165 24.7454 54.2435C24.4204 54.1335 24.2274 54.6215 24.5164 54.7885Z" fill="#AD1B1F"/>
<path fill-rule="evenodd" clip-rule="evenodd" d="M21.8859 57.1908C22.2789 56.6958 22.5779 56.1078 22.8079 55.4728C23.1249 55.9238 23.4279 56.3848 23.7089 56.8538C23.9819 57.3028 24.6788 56.8978 24.4148 56.4388C24.0178 55.7488 23.5709 55.0978 23.1019 54.4668C23.2049 54.0278 23.2788 53.5768 23.3298 53.1238C23.6168 53.0438 23.8979 52.9478 24.1959 52.8958C24.7339 52.8028 24.6139 52.0818 24.1959 51.9268C23.9409 51.8328 23.6809 51.7548 23.4219 51.6728C23.4279 51.0868 23.4038 50.5158 23.3538 49.9918C23.2978 49.4238 22.5758 49.3208 22.3738 49.8588C22.2018 50.3128 22.0248 50.7758 21.8368 51.2348C21.0148 51.0448 20.1828 50.8928 19.3498 50.7508C18.8328 50.6618 18.5329 51.3028 18.9899 51.6058C19.6339 52.0298 20.2159 52.5398 20.7689 53.0798C19.7689 53.6818 18.8899 54.4858 18.1829 55.4808C17.8499 55.9488 18.4678 56.3488 18.8768 56.1758C20.0618 55.6758 20.9008 54.8558 21.5608 53.8848C21.7098 54.0538 21.8438 54.2318 21.9858 54.4068C21.7478 55.2528 21.4019 56.0678 21.3029 56.9458C21.2689 57.2358 21.7059 57.4178 21.8859 57.1908Z" fill="#AD1B1F"/>
<path fill-rule="evenodd" clip-rule="evenodd" d="M100.09 77.9397C100.599 78.4827 101.264 78.9077 101.966 79.1447C102.509 79.3297 102.719 78.4957 102.199 78.2967C101.848 78.1627 101.531 77.9877 101.247 77.7737C101.508 77.7377 101.507 77.2867 101.247 77.2497C101.054 77.2237 100.856 77.2057 100.661 77.1847C100.585 77.0887 100.508 76.9957 100.441 76.8877C100.049 76.2467 100.045 75.4347 99.9469 74.7127C99.9139 74.4647 99.5069 74.4187 99.4069 74.6427C99.0219 75.5137 99.1279 76.3567 99.5009 77.0877C87.6759 76.4227 73.2279 85.2327 71.1059 97.0497C71.0049 97.6127 71.8599 97.8587 71.9719 97.2877C74.6159 83.8837 88.3069 79.6837 100.09 77.9397Z" fill="#AD1B1F"/>
<path fill-rule="evenodd" clip-rule="evenodd" d="M21.5471 75.8925C20.6941 75.2735 19.659 74.8645 18.726 74.7105C18.23 74.6285 18.0071 75.3645 18.5131 75.4755C19.3381 75.6565 20.0501 75.9955 20.7371 76.4815C21.4761 77.0015 21.957 77.7555 22.617 78.3525C22.857 78.5695 23.2711 78.3625 23.1751 78.0285C23.0241 77.5045 22.731 77.0405 22.364 76.6275C34.833 76.8725 44.192 84.4725 46.929 96.9825C47.051 97.5405 47.848 97.2905 47.768 96.7505C46.002 84.9205 34.0831 73.3745 21.5471 75.8925Z" fill="#AD1B1F"/>
<path fill-rule="evenodd" clip-rule="evenodd" d="M17.9595 67.6022C18.0165 67.4272 17.8685 67.2942 17.7115 67.2752C16.8525 67.1742 16.1106 68.2542 15.8016 68.9412C15.4186 69.7902 15.4725 70.7212 15.8105 71.5722C15.9985 72.0442 16.7545 71.8612 16.5895 71.3572C16.3495 70.6252 16.3485 69.9192 16.6935 69.2212C17.0105 68.5862 17.7445 68.2612 17.9595 67.6022Z" fill="#AD1B1F"/>
<path fill-rule="evenodd" clip-rule="evenodd" d="M18.3902 72.0693C18.4362 71.3083 18.6952 70.6423 19.2342 70.0973C19.7072 69.6193 20.3432 69.6242 20.9042 69.3302C21.1092 69.2222 21.1292 68.8613 20.9042 68.7593C20.1012 68.3913 19.1773 68.9043 18.5863 69.4493C17.8733 70.1073 17.6252 71.1343 17.6392 72.0683C17.6462 72.5573 18.3602 72.5493 18.3902 72.0693Z" fill="#AD1B1F"/>
<path fill-rule="evenodd" clip-rule="evenodd" d="M19.1284 73.6341C19.7064 73.2441 20.3074 72.964 21.0074 72.904C21.6914 72.844 22.2044 73.251 22.8534 73.275C23.1004 73.284 23.1954 73.0201 23.1104 72.8271C22.8074 72.1381 21.9294 71.9951 21.2484 71.9611C20.3364 71.9151 19.4204 72.3971 18.7154 72.9261C18.3004 73.2341 18.6814 73.9351 19.1284 73.6341Z" fill="#AD1B1F"/>
<path fill-rule="evenodd" clip-rule="evenodd" d="M18.5261 77.7555C18.0701 77.4585 17.6701 78.1715 18.1051 78.4795C20.3081 80.0375 20.1771 82.4844 19.0781 84.6854C18.9901 84.8614 19.1951 85.0095 19.3421 84.8885C21.8121 82.8545 21.0001 79.3705 18.5261 77.7555Z" fill="#AD1B1F"/>
<path fill-rule="evenodd" clip-rule="evenodd" d="M16.4528 81.1402C16.3768 82.0492 15.9518 82.7891 15.1618 83.2531C14.4038 83.6981 13.5698 83.3532 12.8048 83.6092C12.6158 83.6732 12.5508 83.8972 12.6898 84.0472C13.4328 84.8582 14.9808 84.4652 15.7988 83.9832C16.7918 83.3952 17.1848 82.2402 17.1578 81.1402C17.1458 80.6812 16.4908 80.6942 16.4528 81.1402Z" fill="#AD1B1F"/>
<path fill-rule="evenodd" clip-rule="evenodd" d="M11.9657 80.7674C11.4287 80.7504 10.8987 80.7274 10.3667 80.6434C9.89672 80.5684 9.48674 80.3164 9.02474 80.2344C8.78574 80.1904 8.49074 80.4484 8.67074 80.6944C9.37674 81.6704 10.9057 81.5474 11.9657 81.5144C12.4477 81.4994 12.4477 80.7834 11.9657 80.7674Z" fill="#AD1B1F"/>
<path fill-rule="evenodd" clip-rule="evenodd" d="M9.54895 77.103C8.86395 77.076 8.23092 76.933 7.74792 76.419C7.28092 75.923 7.44893 75.101 6.97693 74.64C6.89493 74.56 6.75796 74.555 6.67596 74.64C6.10096 75.239 6.57192 76.43 7.02392 76.974C7.64692 77.726 8.61395 77.927 9.54895 77.92C10.0759 77.916 10.0729 77.125 9.54895 77.103Z" fill="#AD1B1F"/>
<path fill-rule="evenodd" clip-rule="evenodd" d="M10.7477 74.7698C10.3627 74.2058 10.0467 73.6248 9.83175 72.9688C9.59775 72.2538 9.76575 71.4718 9.50075 70.7878C9.43575 70.6218 9.19774 70.5028 9.05874 70.6718C8.00274 71.9448 9.28971 74.2218 10.0937 75.3038C10.2107 75.4608 10.3847 75.5038 10.5387 75.4738C10.1637 77.4808 12.3277 78.9378 13.9737 79.4188C14.4847 79.5668 14.6867 78.7978 14.1927 78.6288C12.8427 78.1718 11.1437 77.0028 11.5257 75.3628C11.7797 74.2718 12.8577 73.5518 13.9197 73.6138C14.6927 73.6608 15.4807 74.1608 15.8927 74.8038C16.3927 75.5858 15.8167 76.1878 15.1637 76.5758C14.9227 76.0658 14.9527 75.4468 14.5877 74.9728C14.4427 74.7838 14.1808 74.8518 14.1518 75.0918C14.0468 75.9848 14.0567 76.8368 14.6537 77.5458C14.7997 77.7198 15.0487 77.7038 15.2317 77.6198C16.3997 77.0858 17.3997 76.0508 16.8917 74.6878C16.4417 73.4808 15.1307 72.7998 13.9187 72.6588C12.5097 72.4968 11.2787 73.5198 10.7477 74.7698Z" fill="#AD1B1F"/>
<path fill-rule="evenodd" clip-rule="evenodd" d="M12.4725 69.0448C12.4725 68.8818 12.3035 68.8057 12.1655 68.8687C10.8575 69.4907 11.1075 71.5278 11.6055 72.5828C11.8375 73.0748 12.5404 72.6458 12.3284 72.1598C12.0604 71.5448 12.0275 70.9437 12.1785 70.2957C12.2765 69.8667 12.4735 69.4968 12.4725 69.0448Z" fill="#AD1B1F"/>
<path fill-rule="evenodd" clip-rule="evenodd" d="M105.598 71.6517C105.445 72.1177 106.155 72.4107 106.383 71.9837C106.759 71.2867 107.188 70.6777 107.858 70.2337C108.473 69.8257 109.3 69.7297 110.012 69.5977C110.229 69.5577 110.273 69.2177 110.075 69.1227C108.225 68.2407 106.173 69.9057 105.598 71.6517Z" fill="#AD1B1F"/>
<path fill-rule="evenodd" clip-rule="evenodd" d="M114.178 72.3456C114.381 72.3506 114.533 72.1066 114.417 71.9296C113.419 70.3976 110.655 70.7796 109.22 71.3296C108.682 71.5346 108.905 72.4026 109.46 72.2036C110.216 71.9326 110.954 71.8086 111.759 71.8316C112.612 71.8556 113.347 72.3286 114.178 72.3456Z" fill="#AD1B1F"/>
<path fill-rule="evenodd" clip-rule="evenodd" d="M113.482 74.127C113.016 73.846 112.613 74.556 113.059 74.851C113.836 75.361 114.411 76.008 114.865 76.818C115.244 77.496 115.354 78.263 115.837 78.88C115.945 79.017 116.16 78.923 116.204 78.781C116.766 76.997 114.865 74.963 113.482 74.127Z" fill="#AD1B1F"/>
<path fill-rule="evenodd" clip-rule="evenodd" d="M112.909 77.4223C113.328 78.0423 113.594 78.6903 113.756 79.4203C113.887 80.0053 113.751 80.6343 113.966 81.1993C114.023 81.3523 114.207 81.4213 114.333 81.2973C115.435 80.2133 114.366 77.9843 113.632 76.9993C113.316 76.5773 112.601 76.9663 112.909 77.4223Z" fill="#AD1B1F"/>
<path fill-rule="evenodd" clip-rule="evenodd" d="M111.392 80.6373C111.621 81.4953 111.546 82.2343 111.141 83.0253C110.772 83.7473 110.115 84.2424 109.681 84.9194C109.546 85.1294 109.773 85.4693 110.026 85.3663C111.913 84.6033 112.723 82.2903 112.126 80.4343C111.975 79.9703 111.264 80.1603 111.392 80.6373Z" fill="#AD1B1F"/>
<path fill-rule="evenodd" clip-rule="evenodd" d="M108.465 82.989C107.884 83.65 107.243 84.191 106.459 84.597C105.719 84.983 104.899 84.877 104.129 85.121C103.907 85.191 103.873 85.475 104.065 85.6C105.8 86.725 108.009 84.802 109.004 83.526C109.296 83.151 108.795 82.613 108.465 82.989Z" fill="#AD1B1F"/>
<path fill-rule="evenodd" clip-rule="evenodd" d="M104.684 83.4318C103.898 83.6648 103.126 83.8008 102.304 83.7668C101.428 83.7298 100.843 83.1198 100.039 82.9828C99.8286 82.9458 99.6285 83.1068 99.6885 83.3328C99.8995 84.1488 100.847 84.4748 101.594 84.6478C102.692 84.9028 103.875 84.6368 104.92 84.2928C105.464 84.1138 105.24 83.2668 104.684 83.4318Z" fill="#AD1B1F"/>
<path fill-rule="evenodd" clip-rule="evenodd" d="M100.34 78.7578C100.258 78.7298 100.128 78.7578 100.072 78.8288C99.6272 79.4008 100.256 80.1708 100.694 80.5618C101.297 81.0978 102.097 81.3868 102.867 81.5798C103.437 81.7258 103.677 80.8548 103.11 80.7008C102.485 80.5308 101.872 80.3058 101.367 79.8878C100.975 79.5658 100.82 78.9258 100.34 78.7578Z" fill="#AD1B1F"/>
<path fill-rule="evenodd" clip-rule="evenodd" d="M102.55 72.7442C101.936 73.0752 102.003 73.8902 102.008 74.4882C102.012 74.9722 102.753 74.9722 102.759 74.4882C102.766 73.9922 102.808 73.5262 102.947 73.0492C103.014 72.8132 102.753 72.6342 102.55 72.7442Z" fill="#AD1B1F"/>
<path fill-rule="evenodd" clip-rule="evenodd" d="M107.471 77.1572C107.718 76.8942 107.472 76.4902 107.129 76.5682C106.214 76.7732 105.186 77.6072 105.176 78.6172C105.165 79.4422 105.967 79.9432 106.647 80.1922C108.296 80.7962 110.776 80.2292 111.052 78.2302C111.456 75.3202 108.43 73.3722 105.887 74.5522C104.699 75.1032 103.741 76.1092 103.403 77.3912C103.009 78.8872 103.85 80.2532 104.984 81.1552C105.147 81.2862 105.319 81.4012 105.491 81.5162C105.963 81.8322 106.378 81.0862 105.931 80.7652C104.968 80.0762 104.089 79.0612 104.283 77.7942C104.43 76.8432 105.141 76.0772 105.931 75.5932C107.866 74.4052 110.204 75.6492 110.116 77.9792C110.065 79.3872 108.247 79.5702 107.207 79.3202C106.836 79.2312 106.29 79.0422 106.182 78.6262C106.046 78.1062 107.199 77.4462 107.471 77.1572Z" fill="#AD1B1F"/>
<path fill-rule="evenodd" clip-rule="evenodd" d="M52.4604 15.1251C52.4304 15.2201 52.3905 15.3072 52.3625 15.4032C52.2365 15.8262 52.7985 16.1271 53.0815 15.8651C54.2825 17.2781 55.6125 18.6582 57.0165 19.9102C57.0345 20.0832 57.0324 20.2642 57.0614 20.4332C57.1154 20.7282 57.5024 20.6572 57.5904 20.4332C57.5914 20.4292 57.5924 20.4241 57.5934 20.4211C57.7464 20.5501 57.9024 20.6721 58.0574 20.8001C58.0434 21.1581 58.0264 21.5192 58.0304 21.8712C58.0324 22.0592 58.3235 22.1671 58.4095 21.9741C58.5055 21.7531 58.5764 21.5191 58.6614 21.2921C59.0344 21.5831 59.4105 21.8601 59.7925 22.1201C59.7575 22.1691 59.7205 22.2171 59.6855 22.2631C59.3885 22.6641 60.0094 23.0772 60.3454 22.7732C60.4094 22.7142 60.4694 22.6491 60.5334 22.5901C60.8504 22.6871 61.1574 22.3542 61.0804 22.0572C64.3584 18.8322 67.0274 14.4691 69.0704 10.4651C70.1904 8.27114 72.3854 3.36214 70.2914 1.08914C66.7114 -2.79486 60.6684 4.68814 59.9964 8.21914C59.8614 7.95614 59.7074 7.69416 59.5354 7.43316C59.5864 7.17716 59.4045 7.00616 59.1985 6.97216C56.3945 3.20416 50.1624 0.155159 48.2384 5.61816C47.2094 8.54316 49.8925 11.8452 51.5295 13.9582C51.8295 14.3442 52.1404 14.7351 52.4604 15.1251ZM58.1564 19.3481C58.0964 19.2931 58.0354 19.2422 57.9764 19.1872C58.2884 17.9152 58.4224 16.5581 58.7294 15.3051C58.8034 15.0041 58.9004 14.7091 58.9814 14.4091C58.6064 16.0511 58.3114 17.7171 58.1564 19.3481ZM60.7414 8.67214C61.2494 6.28614 62.5844 4.44815 64.4084 2.87515C65.0414 2.32815 65.7675 1.88916 66.5395 1.56216C65.7695 2.47116 65.1455 3.49516 64.3025 4.35116C64.2245 4.43116 64.1965 4.51916 64.1935 4.60516C63.1235 8.18916 61.9804 11.7702 60.8904 15.3552C61.3574 12.7882 61.5625 10.1381 61.8655 7.65814C61.9065 7.31814 61.3205 7.23914 61.2665 7.57714C61.1715 8.16514 61.0635 8.74514 60.9615 9.32714C60.8665 9.14314 60.5875 9.08314 60.4255 9.22814C60.4115 9.21114 60.4074 9.18816 60.3924 9.17416C60.3694 9.10316 60.3484 9.03014 60.3224 8.95614C60.5054 8.97014 60.6984 8.88414 60.7414 8.67214ZM59.9515 20.1761C60.3205 19.6491 60.6514 19.0931 60.9544 18.5201C61.0524 18.5261 61.1504 18.4991 61.2124 18.3921C63.1624 14.9791 63.8244 10.8062 65.2774 7.16015C65.4734 6.67315 64.6894 6.46916 64.4944 6.94616C64.4244 7.11816 64.3564 7.29814 64.2864 7.47314C64.4874 6.58014 64.6954 5.70214 64.9234 4.85714C65.8624 3.89214 66.9234 2.70915 67.1864 1.35815C67.1884 1.34615 67.1824 1.33716 67.1824 1.32516C67.3024 1.28616 67.4214 1.23816 67.5444 1.20416C70.2574 0.454158 70.1285 3.74115 69.8655 5.41415C69.2815 9.14115 67.2484 12.4702 64.9184 15.5832C65.3494 14.5522 65.7324 13.4981 66.0854 12.4311C66.1744 12.4331 66.2654 12.4112 66.3224 12.3282C67.4514 10.6602 68.2334 8.73315 69.1184 6.92715C69.3124 6.52915 68.7224 6.17714 68.5174 6.57714C68.0074 7.57714 67.4564 8.57316 66.9474 9.58816C67.6354 7.15316 68.2244 4.69116 68.8604 2.31216C68.9814 1.86416 68.2994 1.67816 68.1694 2.12216C66.4164 8.03916 64.7524 13.7961 62.0024 19.2961C61.4464 19.9881 60.8995 20.6722 60.3785 21.3502C60.0525 21.0652 59.7324 20.7731 59.4114 20.4811C59.4564 20.3801 59.4884 20.2731 59.5314 20.1711C59.6084 20.3061 59.8405 20.3371 59.9515 20.1761ZM59.2024 8.63815C59.3444 8.90415 59.4684 9.17115 59.5774 9.44015C58.6274 12.0112 57.2124 15.2832 56.9934 18.2642C56.7474 18.0322 56.4934 17.8031 56.2514 17.5671C56.8824 16.5991 57.1724 15.1221 57.5014 14.1881C58.1424 12.3671 58.6884 10.5041 59.2024 8.63815ZM57.5874 6.42913C56.7474 8.76813 55.8194 11.0702 55.0074 13.4192C54.8504 13.8782 54.4354 14.7842 54.7254 15.2812C54.9894 15.7292 55.4214 15.3302 55.5054 14.9972C55.5174 14.9492 55.5034 14.9131 55.4974 14.8741C55.5054 14.8621 55.5154 14.8552 55.5224 14.8422C55.6374 14.6312 55.6924 14.3842 55.7614 14.1562C56.0224 13.2852 56.3115 12.4242 56.6025 11.5622C57.1125 10.0482 57.6104 8.52814 58.0964 7.00314C58.2804 7.22414 58.4504 7.45016 58.6144 7.68316C58.0484 9.59616 57.4135 11.4842 56.7635 13.3712C56.4345 14.3292 55.7224 15.5721 55.3814 16.7141C54.7624 16.0891 54.1564 15.4531 53.5744 14.7971C54.0474 13.6761 54.4375 12.5272 54.7895 11.3632C54.7935 11.3552 54.7965 11.3482 54.8005 11.3412C54.8015 11.3372 54.7995 11.3351 54.8005 11.3311C55.1325 10.2331 55.4524 9.13216 55.8324 8.04916C55.9764 7.64016 55.3404 7.47615 55.1894 7.87115C54.5374 9.59715 53.9844 11.3562 53.3304 13.0792C53.1684 13.3872 53.0194 13.7011 52.8794 14.0201L52.8755 14.0171C54.1645 11.1441 54.1065 7.38714 54.3445 4.33114C54.3505 4.24514 54.3144 4.19314 54.2784 4.14114C55.4914 4.62214 56.6384 5.44313 57.5874 6.42913ZM50.9684 4.24615C50.4894 6.09015 49.9985 8.39015 50.2455 10.4011C50.2405 10.3931 50.2344 10.3862 50.2294 10.3772C48.5494 7.60216 48.6695 2.91816 53.0735 3.77316C53.3715 3.83216 53.6675 3.92515 53.9615 4.02615C53.8145 4.05415 53.6754 4.14516 53.6554 4.33316C53.4704 6.09216 53.2614 7.84313 53.0074 9.59313C52.8234 10.8491 52.4924 12.0871 52.3354 13.3431C51.8374 12.7161 51.3554 12.0771 50.9054 11.4081C51.1304 10.5581 51.1114 9.68114 51.1394 8.80014C51.1864 7.32614 51.2944 5.86415 51.5884 4.41815C51.6704 4.01515 51.0734 3.84215 50.9684 4.24615Z" fill="#AD1B1F"/>
<path fill-rule="evenodd" clip-rule="evenodd" d="M52.4143 11.7219C52.8693 10.7749 52.8822 9.65789 52.9992 8.62189C53.1382 7.39889 53.1812 6.16288 53.1712 4.93488C53.1672 4.44388 52.4243 4.44588 52.4093 4.93488C52.3803 6.01188 52.2862 7.07987 52.1612 8.14887C52.0262 9.29487 51.7022 10.5159 51.9312 11.6589C51.9732 11.8779 52.3163 11.9249 52.4143 11.7219Z" fill="#AD1B1F"/>
<path fill-rule="evenodd" clip-rule="evenodd" d="M16.2815 41.2916C18.3915 41.0186 21.7335 40.6606 23.5365 39.2686C23.8025 39.2266 24.0365 39.0046 23.9345 38.6736C22.8545 35.2026 21.3695 31.8216 19.7715 28.5616C18.6585 26.2886 17.2805 23.3416 14.5315 22.7526C10.7355 21.9396 13.7955 30.8256 14.7615 32.7426C14.4865 32.8106 14.1955 32.8926 13.8925 32.9856C13.7345 32.9456 13.5615 33.0086 13.4595 33.1316C12.6835 33.3916 11.8645 33.7136 11.0965 34.1096C11.0685 34.0776 11.0405 34.0466 11.0135 34.0136C10.7185 33.6806 10.2795 34.1096 10.4655 34.4556C8.16347 35.8156 6.6875 37.8016 9.2065 40.2076C11.0525 41.9726 13.9775 41.5916 16.2815 41.2916ZM13.9625 27.6906C13.7195 26.7076 13.5795 25.7066 13.6165 24.6926C14.6805 26.5786 15.8055 28.6696 17.0935 30.6196C16.2825 29.6276 15.4655 28.6416 14.6465 27.6586C14.3825 27.3426 13.9715 27.6876 14.0505 28.0236C14.0205 27.9126 13.9895 27.8016 13.9625 27.6906ZM14.0565 28.0486C14.0715 28.0936 14.0915 28.1376 14.1255 28.1806C15.5305 29.9276 16.9315 31.6806 18.2965 33.4606C18.7675 34.0766 19.2135 34.7246 19.6655 35.3706C19.4105 35.0736 19.1575 34.7766 18.9195 34.4746C17.9995 33.3126 17.1105 32.1266 16.1425 31.0016C15.8495 30.6616 15.3745 31.1496 15.6545 31.4876C15.9065 31.7946 16.1545 32.1216 16.4005 32.4576C16.0935 32.2816 15.6355 32.6006 15.8785 32.9456C17.2405 34.8836 18.7365 37.6086 20.8975 38.7456C21.1245 38.8656 21.4615 38.6026 21.2815 38.3606C21.1275 38.1516 20.9445 37.9656 20.7745 37.7706C20.9225 37.8826 21.0645 38.0066 21.2185 38.1086C21.4065 38.2306 21.6185 38.0216 21.5625 37.8296C21.7285 38.0176 21.8835 38.2146 22.0595 38.3896C22.2905 38.6196 22.5915 38.3286 22.4785 38.0656C21.9065 36.7156 20.9885 35.4956 20.0555 34.3206C20.3145 34.5766 20.5715 34.8366 20.8435 35.0696C21.0785 35.2716 21.4315 35.0206 21.2775 34.7346C20.3325 32.9806 18.9255 31.4186 17.7705 29.7916C16.4645 27.9516 15.2495 26.0456 14.0755 24.1196C14.0085 24.0116 13.9134 23.9676 13.8154 23.9616C14.4494 23.0656 16.4295 24.8276 16.8655 25.4036C19.6545 29.0936 21.4595 34.1096 22.8515 38.5256C21.7035 38.8296 20.5715 39.1546 19.4395 39.4636C19.4495 39.4276 19.4555 39.3896 19.4435 39.3506C19.1115 38.2626 18.2775 37.3576 17.6435 36.4276C16.9195 35.3666 16.2775 34.2586 15.7325 33.0966C15.7295 33.0466 15.7205 32.9966 15.7015 32.9486C15.7645 32.8286 15.7795 32.6816 15.6935 32.5246C14.9275 31.1236 14.4505 29.5896 14.0565 28.0486ZM15.1405 33.5886C15.6605 34.7156 16.2705 35.7906 16.9395 36.8386C17.5455 37.7886 18.1525 38.8776 19.0635 39.5656C18.7465 39.6516 18.4265 39.7446 18.1075 39.8226C17.7325 38.8806 17.0575 38.0246 16.5445 37.1646C15.8825 36.0516 15.2165 34.9396 14.5365 33.8376C14.7395 33.7586 14.9385 33.6726 15.1405 33.5886ZM13.7615 34.1286C14.4435 35.2836 15.0895 36.4586 15.7625 37.6196C16.0255 38.0766 16.2855 38.5636 16.5725 39.0306C16.1155 38.4386 15.5625 37.8896 15.1475 37.2966C14.5055 36.3766 13.9665 35.4026 13.4935 34.3886C13.4675 34.3326 13.4305 34.2956 13.3865 34.2666C13.5115 34.2196 13.6365 34.1726 13.7615 34.1286ZM12.8145 34.4826C12.7985 34.5386 12.7945 34.6016 12.8235 34.6696C13.2655 35.7376 13.7724 36.7616 14.3804 37.7456C14.4164 37.8046 14.4625 37.8716 14.4995 37.9336C14.2595 37.7036 14.0285 37.4746 13.8265 37.2446C13.1445 36.4696 12.4695 35.6886 11.7925 34.9096C12.1285 34.7546 12.4705 34.6146 12.8145 34.4826ZM10.9935 35.3076C11.0225 35.2896 11.0565 35.2786 11.0875 35.2616C11.7835 36.1386 12.4695 37.0246 13.1795 37.8906C13.8375 38.6956 14.6335 39.7916 15.5965 40.3346C15.3905 40.3626 15.1885 40.4116 14.9815 40.4316C15.0155 40.3426 15.0255 40.2456 14.9765 40.1496C14.5755 39.3766 13.6455 38.8036 13.0065 38.2186C12.1405 37.4206 11.2905 36.6096 10.4445 35.7906C10.4055 35.7516 10.3625 35.7286 10.3195 35.7106C10.5695 35.5506 10.8095 35.4146 10.9935 35.3076ZM9.74745 36.1156C9.75145 36.2036 9.78045 36.2946 9.85945 36.3766C10.6765 37.2216 11.4965 38.0646 12.3385 38.8866C12.8925 39.4276 13.5385 40.1486 14.2735 40.4906C13.7805 40.5166 13.2845 40.5226 12.7805 40.4916C12.8335 40.4266 12.8625 40.3406 12.8425 40.2426C12.6875 39.4986 11.8685 38.8906 11.3765 38.3416C10.7625 37.6536 10.1265 36.9866 9.47249 36.3366C9.55949 36.2596 9.65345 36.1866 9.74745 36.1156ZM8.93148 37.0036C9.46948 37.5916 9.99145 38.1936 10.5185 38.7936C10.9655 39.2976 11.4795 40.0866 12.1185 40.4376C12.0135 40.4246 11.9115 40.4266 11.8055 40.4116C10.5205 40.2286 9.2755 39.2346 8.8235 38.0076C8.6905 37.6476 8.76348 37.3136 8.93148 37.0036Z" fill="#AD1B1F"/>
<path fill-rule="evenodd" clip-rule="evenodd" d="M16.2122 26.2728C17.4272 28.3758 18.6843 30.7718 20.2823 32.6038C20.4213 32.7638 20.7073 32.5958 20.6373 32.3978C19.8373 30.0918 18.0152 28.0378 16.7902 25.9348C16.5742 25.5598 15.9942 25.8978 16.2122 26.2728Z" fill="#AD1B1F"/>
<path fill-rule="evenodd" clip-rule="evenodd" d="M89.3399 45.1553C89.3409 45.4843 89.8199 45.6413 89.9779 45.3293C90.0349 45.2173 90.0749 45.0963 90.1279 44.9833C90.2119 45.2083 90.4269 45.3963 90.7269 45.3463C95.6259 44.5533 100.787 44.0543 105.375 42.0323C107.276 41.1943 110.996 39.8153 110.897 37.1633C110.749 33.1833 103.363 34.2213 100.5 35.5813C101.475 33.4423 102.837 30.6463 101.596 28.5803C100.308 26.4383 98.6109 25.7293 96.3159 26.9063C93.9649 28.1123 92.7279 30.9783 91.8989 33.4283C91.8779 33.4553 91.8509 33.4793 91.8319 33.5053C91.7809 33.5723 91.7819 33.6503 91.8019 33.7253C91.7469 33.8903 91.6899 34.0603 91.6389 34.2193C90.5899 37.4953 89.3309 41.7023 89.3399 45.1553ZM107.836 35.7373C108.193 35.8733 108.507 36.0413 108.768 36.2343C107.86 36.9543 106.917 37.6293 106.001 38.3393C105.039 39.0833 103.81 39.9133 103.276 41.0383C103.129 41.3443 103.446 41.7653 103.778 41.5423C104.726 40.9093 105.508 39.9993 106.402 39.2843C107.387 38.4953 108.405 37.7443 109.386 36.9463C109.656 37.5023 109.542 38.1653 108.861 38.8813C108.909 38.5233 108.562 38.1363 108.197 38.4033C106.889 39.3603 105.414 40.1293 104.335 41.3623C104.298 41.4043 104.286 41.4493 104.28 41.4933C102.851 42.0453 101.356 42.4713 99.8269 42.8093C100.534 42.3313 101.212 41.8033 101.881 41.3173C103.393 40.2253 104.842 39.0443 106.299 37.8823C106.552 37.6793 106.38 37.3083 106.129 37.2083C106.651 36.8113 107.174 36.4243 107.692 36.0673C107.816 35.9813 107.854 35.8533 107.836 35.7373ZM92.0139 37.2333C93.0099 36.6083 93.9149 35.7933 94.8029 35.0543C96.2679 33.8373 97.6699 32.5523 99.0129 31.2003C99.3439 30.8663 98.8359 30.3583 98.4979 30.6843C97.2629 31.8783 95.9639 32.9933 94.6339 34.0793C93.8669 34.7033 93.0349 35.2993 92.2599 35.9463C92.4209 35.1543 92.6039 34.3803 92.8359 33.6463C92.8369 33.6413 92.8399 33.6363 92.8409 33.6303C92.9789 33.5493 93.1119 33.4543 93.2449 33.3633C93.0639 33.6083 92.8969 33.8593 92.7739 34.1303C92.6689 34.3603 92.8949 34.6583 93.1459 34.5023C94.1839 33.8533 95.0039 32.8363 95.9089 32.0173C96.9649 31.0613 98.0329 30.1193 99.0319 29.1033C99.1319 29.0023 99.1559 28.8893 99.1399 28.7823C99.2719 28.6983 99.4009 28.6063 99.5359 28.5243C99.9259 28.2893 99.5819 27.6993 99.1819 27.9173C97.8039 28.6633 96.5299 29.5453 95.2949 30.5073C94.7289 30.9503 94.1039 31.3933 93.5069 31.8663C94.4679 29.6933 96.0279 27.5043 98.4039 27.2193C102.405 26.7413 100.864 31.9273 100.338 33.4203C100.122 34.0333 99.8709 34.6333 99.6289 35.2353C99.6149 35.2353 99.6059 35.2273 99.5929 35.2293C98.1459 35.4313 96.6199 35.9673 95.1499 36.6633C95.2189 36.6063 95.2899 36.5483 95.3599 36.4923C97.0669 35.1263 98.7209 33.7013 100.271 32.1553C100.669 31.7603 100.06 31.1513 99.6569 31.5413C98.2419 32.9103 96.7429 34.1773 95.2089 35.4083C94.1479 36.2593 92.9289 37.0593 91.8829 37.9903C91.9269 37.7403 91.9689 37.4843 92.0139 37.2333ZM96.8639 37.3793C97.0099 37.3053 97.0719 37.1903 97.0849 37.0713C97.8719 36.7543 98.6409 36.4013 99.3529 35.9633C99.3169 36.0663 99.2699 36.1653 99.2359 36.2693C99.1579 36.5043 99.2689 36.6613 99.4299 36.7383C96.8859 37.6883 94.4299 39.2173 92.1979 40.5703C91.7469 40.8423 92.1529 41.5423 92.6109 41.2763C95.6289 39.5203 98.9139 38.3543 101.947 36.6763C102.296 36.4853 102.05 35.9883 101.689 36.0633C101.556 36.0903 101.425 36.1333 101.293 36.1653C102.635 35.5523 104.054 35.3153 105.59 35.3343C106.179 35.3413 106.751 35.4173 107.268 35.5533C106.873 35.7933 106.488 36.0463 106.099 36.2943C106.07 36.2613 106.031 36.2383 105.976 36.2583C105.19 36.5303 104.421 36.8463 103.661 37.1783C103.629 37.1583 103.592 37.1463 103.555 37.1533C99.5999 37.9523 95.7419 40.2503 91.9889 41.7183C91.4789 41.9183 91.6969 42.7453 92.2179 42.5473C93.3559 42.1133 94.5739 41.6903 95.8079 41.2473C95.5679 41.3773 95.3279 41.5043 95.0859 41.6343C94.2199 42.0773 93.3539 42.5193 92.4899 42.9713C91.9929 43.2323 92.4289 43.9483 92.9249 43.7153C96.2149 42.1663 99.4589 40.4343 102.615 38.5913C102.599 38.6013 102.583 38.6113 102.568 38.6223C100.778 39.8413 98.8099 40.8703 97.0999 42.1903C96.8639 42.3723 96.9849 42.8093 97.3189 42.7083C98.0019 42.5013 98.6649 42.2103 99.3179 41.8863C98.6539 42.3183 98.0099 42.7713 97.4289 43.2883C95.0609 43.7023 92.6849 43.9983 90.4539 44.3603C90.4249 44.3653 90.4079 44.3803 90.3819 44.3873C90.9079 43.0693 91.2329 41.6143 91.5049 40.1313C93.3259 39.2803 95.0799 38.3023 96.8639 37.3793Z" fill="#AD1B1F"/>
<path fill-rule="evenodd" clip-rule="evenodd" d="M91.9573 56.2036C90.9693 56.4996 91.1863 55.1246 90.7853 54.6386C90.6873 54.5196 90.4963 54.5406 90.3953 54.6386C89.8513 55.1556 90.0783 56.2446 90.5543 56.7566C91.0003 57.2356 91.6103 57.3296 92.2283 57.1916C93.3803 56.9336 94.3862 55.5766 93.4582 54.5526C92.1372 53.0926 89.6113 52.9396 88.1703 54.2506C87.4963 54.8626 87.3322 55.7686 87.4532 56.6266C87.5032 56.9876 87.7013 57.5646 87.9953 58.0096C81.8413 62.0216 75.7402 69.5986 73.5702 76.4996C73.4352 76.9276 74.1193 77.2286 74.3043 76.8086C77.6433 69.2496 82.9792 64.3226 88.5312 58.5376C88.7562 58.6576 89.0043 58.6826 89.2723 58.5246C89.4193 58.4396 89.5213 58.2716 89.5153 58.1016C89.4993 57.6636 89.0463 57.3986 88.8243 57.0456C88.7673 56.9566 88.6923 56.9086 88.6163 56.8826C88.3103 56.1106 88.3333 55.3016 89.1773 54.7296C90.2613 53.9966 91.7253 54.4166 92.6493 55.1936C93.1503 55.6146 92.3343 56.0916 91.9573 56.2036Z" fill="#AD1B1F"/>
<path fill-rule="evenodd" clip-rule="evenodd" d="M44.8658 84.9832C45.1538 85.4402 45.8598 85.0322 45.5928 84.5572C43.1588 80.2442 39.0328 76.2652 34.4698 74.2752C34.1738 74.1462 33.9618 74.5082 34.2188 74.7022C38.2918 77.7812 42.1038 80.5832 44.8658 84.9832Z" fill="#AD1B1F"/>
<path fill-rule="evenodd" clip-rule="evenodd" d="M33.2268 88.3644C32.8648 88.3034 32.5758 88.8183 32.9578 89.0043C36.4418 90.6853 40.7738 90.4453 43.1748 93.9823C43.3738 94.2773 43.8448 94.0133 43.6568 93.7013C41.5068 90.1233 37.1088 89.0264 33.2268 88.3644Z" fill="#AD1B1F"/>
<path fill-rule="evenodd" clip-rule="evenodd" d="M85.5368 88.9872C83.5188 88.6842 81.0078 90.0912 79.3408 91.1092C77.4448 92.2702 75.8988 93.9622 75.3588 96.1462C75.2248 96.6862 76.0268 96.9042 76.1868 96.3762C76.8328 94.2532 78.4238 92.8152 80.2738 91.7002C81.9528 90.6882 83.9658 90.5222 85.6178 89.5932C85.8458 89.4622 85.8298 89.0302 85.5368 88.9872Z" fill="#AD1B1F"/>
<path fill-rule="evenodd" clip-rule="evenodd" d="M26.3131 86.1706C25.5341 88.4456 28.0481 90.5746 30.1101 90.5846C30.5921 90.5876 30.5831 89.8745 30.1101 89.8435C28.5921 89.7395 26.9261 88.2186 27.1781 86.5926C27.3951 85.1866 29.8751 84.5676 30.8951 85.4536C31.5441 86.0176 31.5861 87.1645 31.2531 87.9045C30.7831 88.9465 30.0611 87.3955 29.7091 86.9855C29.5511 86.8025 29.1911 86.9435 29.2171 87.1895C29.3501 88.5325 30.8011 90.1186 31.9191 88.6306C32.7481 87.5276 32.4701 85.5896 31.4591 84.7096C29.9321 83.3796 26.9421 84.3356 26.3131 86.1706Z" fill="#AD1B1F"/>
<path fill-rule="evenodd" clip-rule="evenodd" d="M32.7643 54.5784C33.8443 55.6194 34.9143 56.6764 35.9483 57.7634C36.2193 58.0464 36.5943 57.6374 36.3673 57.3454C35.4313 56.1554 34.4673 55.0164 33.4063 53.9364C32.4833 52.9944 31.4643 51.8204 30.2563 51.2554C30.0143 51.1434 29.6853 51.3884 29.8593 51.6534C30.5943 52.7734 31.8023 53.6474 32.7643 54.5784Z" fill="#AD1B1F"/>
<path fill-rule="evenodd" clip-rule="evenodd" d="M70.0139 49.6042C69.8809 49.9512 70.4569 50.1932 70.6149 49.8572C72.8349 45.0902 76.3979 41.5662 79.6849 37.5762C80.0119 37.1792 79.5179 36.6782 79.1199 37.0112C75.2139 40.2932 71.8339 44.8412 70.0139 49.6042Z" fill="#AD1B1F"/>
<path fill-rule="evenodd" clip-rule="evenodd" d="M83.115 35.5633C82.199 36.3253 81.8469 37.8263 82.9179 38.6123C83.8379 39.2883 85.1819 38.6443 85.8369 37.9183C87.1579 36.4513 87.1369 33.7574 85.1529 32.9324C83.5939 32.2834 81.5429 32.7783 80.3599 33.9513C78.6509 35.6463 80.0229 37.8573 81.5199 39.1073C81.9339 39.4523 82.5309 38.8803 82.1209 38.5043C81.1249 37.5913 79.9099 36.1643 80.8559 34.8143C81.5339 33.8463 82.9899 33.5133 84.0949 33.6103C85.4139 33.7263 85.998 34.7523 85.784 35.9953C85.612 36.9773 85.0109 37.9494 83.9159 37.9804C82.6509 38.0184 83.442 36.4654 83.628 35.8634C83.726 35.5474 83.336 35.3803 83.115 35.5633Z" fill="#AD1B1F"/>
<path fill-rule="evenodd" clip-rule="evenodd" d="M54.208 35.7816C54.71 31.7986 53.813 27.4926 51.538 24.1386C51.354 23.8686 50.879 24.0306 50.989 24.3706C52.246 28.2526 53.681 31.6016 53.792 35.7816C53.799 36.0566 54.175 36.0416 54.208 35.7816Z" fill="#AD1B1F"/>
<path fill-rule="evenodd" clip-rule="evenodd" d="M68.1271 25.8016C68.1301 26.3036 68.8771 26.2976 68.9021 25.8016C69.0851 22.2106 70.5221 19.2696 71.4871 15.8916C71.5731 15.5916 71.1771 15.4637 71.0121 15.6917C68.9931 18.4807 68.1161 22.4076 68.1271 25.8016Z" fill="#AD1B1F"/>
<path fill-rule="evenodd" clip-rule="evenodd" d="M26.1799 44.2109C24.9609 44.2109 24.9609 46.101 26.1799 46.101C27.3989 46.101 27.3979 44.2109 26.1799 44.2109Z" fill="#AD1B1F"/>
<path fill-rule="evenodd" clip-rule="evenodd" d="M21.0373 43.3701C19.9043 43.3701 19.9043 45.1281 21.0373 45.1281C22.1712 45.1281 22.1712 43.3701 21.0373 43.3701Z" fill="#AD1B1F"/>
<path fill-rule="evenodd" clip-rule="evenodd" d="M20.4326 91.168C19.3246 91.168 19.3246 92.888 20.4326 92.888C21.5436 92.887 21.5436 91.168 20.4326 91.168Z" fill="#AD1B1F"/>
<path fill-rule="evenodd" clip-rule="evenodd" d="M13.4788 91.9521C12.6008 91.9521 12.6008 93.3122 13.4788 93.3122C14.3568 93.3122 14.3568 91.9521 13.4788 91.9521Z" fill="#AD1B1F"/>
<path fill-rule="evenodd" clip-rule="evenodd" d="M20.4321 87.0906C20.6961 87.0906 20.6961 86.6846 20.4321 86.6846C20.1711 86.6836 20.1711 87.0906 20.4321 87.0906Z" fill="#AD1B1F"/>
<path fill-rule="evenodd" clip-rule="evenodd" d="M16.8043 46.3232C17.5303 46.3232 17.5303 45.1982 16.8043 45.1982C16.0783 45.1982 16.0783 46.3232 16.8043 46.3232Z" fill="#AD1B1F"/>
<path fill-rule="evenodd" clip-rule="evenodd" d="M64.3716 42.4082C65.4736 43.0382 66.3966 42.1132 65.7676 41.0122C64.9306 39.5462 62.9056 41.5712 64.3716 42.4082Z" fill="#AD1B1F"/>
<path fill-rule="evenodd" clip-rule="evenodd" d="M67.0025 38.8906C66.3325 38.8906 66.3325 39.9296 67.0025 39.9296C67.6735 39.9296 67.6735 38.8906 67.0025 38.8906Z" fill="#AD1B1F"/>
<path fill-rule="evenodd" clip-rule="evenodd" d="M87.8678 30.5039C88.8608 30.5039 88.8608 28.9639 87.8678 28.9639C86.8748 28.9639 86.8748 30.5039 87.8678 30.5039Z" fill="#AD1B1F"/>
<path fill-rule="evenodd" clip-rule="evenodd" d="M97.2435 52.9089C95.9345 52.9759 95.9345 54.8739 97.2435 54.9409C97.5865 54.9579 97.8475 54.9299 98.1605 54.7659C98.7955 54.4329 98.7955 53.4159 98.1605 53.0829C97.8485 52.9209 97.5865 52.8909 97.2435 52.9089Z" fill="#AD1B1F"/>
<path fill-rule="evenodd" clip-rule="evenodd" d="M94.8227 51.6852C95.8347 51.6852 95.8347 50.1172 94.8227 50.1172C93.8117 50.1172 93.8117 51.6852 94.8227 51.6852Z" fill="#AD1B1F"/>
<path fill-rule="evenodd" clip-rule="evenodd" d="M96.0329 70.5438C96.4049 70.5438 96.4049 69.9668 96.0329 69.9668C95.6609 69.9658 95.6609 70.5438 96.0329 70.5438Z" fill="#AD1B1F"/>
<path fill-rule="evenodd" clip-rule="evenodd" d="M87.5315 85.5817C87.5475 85.5607 87.5605 85.5407 87.5755 85.5207C87.7445 85.2897 87.7445 84.8547 87.5755 84.6237C87.5605 84.6037 87.5475 84.5837 87.5315 84.5607C86.9715 83.7817 85.6465 83.9977 85.6465 85.0717C85.6465 86.1457 86.9715 86.3617 87.5315 85.5817Z" fill="#AD1B1F"/>
<path fill-rule="evenodd" clip-rule="evenodd" d="M87.5666 89.3965C86.5116 89.3965 86.5116 91.0305 87.5666 91.0305C88.6206 91.0305 88.6206 89.3965 87.5666 89.3965Z" fill="#AD1B1F"/>
<path fill-rule="evenodd" clip-rule="evenodd" d="M90.288 86.6885C89.253 86.6885 89.253 88.2945 90.288 88.2945C91.324 88.2955 91.324 86.6885 90.288 86.6885Z" fill="#AD1B1F"/>
<path fill-rule="evenodd" clip-rule="evenodd" d="M95.7308 89.4863C94.7928 89.4863 94.7928 90.9403 95.7308 90.9403C96.6698 90.9403 96.6698 89.4863 95.7308 89.4863Z" fill="#AD1B1F"/>
<path fill-rule="evenodd" clip-rule="evenodd" d="M44.927 17.7643C46.262 17.7643 46.262 15.6953 44.927 15.6953C43.592 15.6953 43.592 17.7643 44.927 17.7643Z" fill="#AD1B1F"/>
<path fill-rule="evenodd" clip-rule="evenodd" d="M40.9978 13.7675C41.8568 13.7675 41.8568 12.4355 40.9978 12.4355C40.1388 12.4355 40.1388 13.7675 40.9978 13.7675Z" fill="#AD1B1F"/>
<path fill-rule="evenodd" clip-rule="evenodd" d="M73.6557 14.1728C74.6487 14.1728 74.6487 12.6328 73.6557 12.6328C72.6617 12.6338 72.6617 14.1728 73.6557 14.1728Z" fill="#AD1B1F"/>
<path fill-rule="evenodd" clip-rule="evenodd" d="M100.268 47.7627C98.9525 47.7627 98.9525 49.8047 100.268 49.8047C101.584 49.8047 101.584 47.7627 100.268 47.7627Z" fill="#AD1B1F"/>
<path fill-rule="evenodd" clip-rule="evenodd" d="M98.1493 49.4834C97.1013 49.4834 97.1013 51.1094 98.1493 51.1094C99.1973 51.1094 99.1973 49.4834 98.1493 49.4834Z" fill="#AD1B1F"/>
<path fill-rule="evenodd" clip-rule="evenodd" d="M101.778 54.6379C102.699 54.6379 102.699 53.2109 101.778 53.2109C100.858 53.2119 100.858 54.6379 101.778 54.6379Z" fill="#AD1B1F"/>
<path fill-rule="evenodd" clip-rule="evenodd" d="M105.105 48.5337C105.952 48.5337 105.952 47.2197 105.105 47.2197C104.259 47.2187 104.259 48.5337 105.105 48.5337Z" fill="#AD1B1F"/>
<path fill-rule="evenodd" clip-rule="evenodd" d="M97.8472 70.9019C99.0732 70.9019 99.0732 69.0029 97.8472 69.0029C96.6212 69.0029 96.6212 70.9019 97.8472 70.9019Z" fill="#AD1B1F"/>
<path fill-rule="evenodd" clip-rule="evenodd" d="M93.9152 72.6689C92.7392 72.6689 92.7392 74.493 93.9152 74.493C95.0922 74.493 95.0922 72.6689 93.9152 72.6689Z" fill="#AD1B1F"/>
<path fill-rule="evenodd" clip-rule="evenodd" d="M94.2196 68.0576C93.3356 68.0576 93.3356 69.4286 94.2196 69.4286C95.1016 69.4286 95.1016 68.0576 94.2196 68.0576Z" fill="#AD1B1F"/>
<path fill-rule="evenodd" clip-rule="evenodd" d="M25.2713 68.6152C24.3263 68.6152 24.3263 70.0802 25.2713 70.0802C26.2153 70.0802 26.2153 68.6152 25.2713 68.6152Z" fill="#AD1B1F"/>
<path fill-rule="evenodd" clip-rule="evenodd" d="M11.6648 67.0283C11.0128 67.0283 11.0128 68.0393 11.6648 68.0393C12.3158 68.0393 12.3158 67.0283 11.6648 67.0283Z" fill="#AD1B1F"/>
<path fill-rule="evenodd" clip-rule="evenodd" d="M8.03488 88.6406C7.17588 88.6406 7.17588 89.9726 8.03488 89.9726C8.89388 89.9726 8.89388 88.6406 8.03488 88.6406Z" fill="#AD1B1F"/>
<path fill-rule="evenodd" clip-rule="evenodd" d="M10.4546 85.7764C9.41358 85.7764 9.41358 87.3924 10.4546 87.3924C11.4966 87.3924 11.4966 85.7764 10.4546 85.7764Z" fill="#AD1B1F"/>
<path fill-rule="evenodd" clip-rule="evenodd" d="M43.7172 46.5352C42.7662 46.5352 42.7662 48.0102 43.7172 48.0102C44.6682 48.0092 44.6682 46.5352 43.7172 46.5352Z" fill="#AD1B1F"/>
<path fill-rule="evenodd" clip-rule="evenodd" d="M52.2259 78.6771C51.6109 78.8461 51.3128 79.5761 51.6358 80.1261C52.0068 80.7621 52.9719 80.7731 53.3409 80.1261C53.7659 79.3841 53.0949 78.4391 52.2259 78.6771Z" fill="#AD1B1F"/>
<path fill-rule="evenodd" clip-rule="evenodd" d="M53.3949 74.9609C52.4439 74.9609 52.4439 76.4349 53.3949 76.4349C54.3469 76.4339 54.3469 74.9609 53.3949 74.9609Z" fill="#AD1B1F"/>
<path fill-rule="evenodd" clip-rule="evenodd" d="M49.7673 78.0752C49.3223 78.0752 49.3223 78.7642 49.7673 78.7642C50.2113 78.7642 50.2113 78.0752 49.7673 78.0752Z" fill="#AD1B1F"/>
<path fill-rule="evenodd" clip-rule="evenodd" d="M63.6767 87.8223C62.5427 87.8223 62.5427 89.5803 63.6767 89.5803C64.8107 89.5803 64.8107 87.8223 63.6767 87.8223Z" fill="#AD1B1F"/>
<path fill-rule="evenodd" clip-rule="evenodd" d="M63.9789 91.5928C63.0279 91.5928 63.0279 93.0668 63.9789 93.0668C64.9299 93.0668 64.9299 91.5928 63.9789 91.5928Z" fill="#AD1B1F"/>
<path fill-rule="evenodd" clip-rule="evenodd" d="M75.1675 65.6338C74.2775 65.6338 74.2775 67.0128 75.1675 67.0128C76.0555 67.0118 76.0555 65.6338 75.1675 65.6338Z" fill="#AD1B1F"/>
<path fill-rule="evenodd" clip-rule="evenodd" d="M61.2577 62.4489C62.1107 62.4489 62.1107 61.127 61.2577 61.127C60.4037 61.127 60.4037 62.4489 61.2577 62.4489Z" fill="#AD1B1F"/>
<path fill-rule="evenodd" clip-rule="evenodd" d="M69.0547 73.2782V73.5341C69.0547 74.7901 71.0007 74.7901 71.0007 73.5341V73.2782C71.0007 72.0232 69.0547 72.0232 69.0547 73.2782Z" fill="#AD1B1F"/>
<path fill-rule="evenodd" clip-rule="evenodd" d="M55.5125 51.1514C54.2745 51.1514 54.2745 53.0704 55.5125 53.0704C56.7485 53.0704 56.7485 51.1514 55.5125 51.1514Z" fill="#AD1B1F"/>
<path fill-rule="evenodd" clip-rule="evenodd" d="M53.0934 51.2175C53.8924 51.2175 53.8924 49.9805 53.0934 49.9805C52.2944 49.9805 52.2944 51.2175 53.0934 51.2175Z" fill="#AD1B1F"/>
<path fill-rule="evenodd" clip-rule="evenodd" d="M44.9289 51.1898C45.6919 51.1898 45.6919 50.0078 44.9289 50.0078C44.1669 50.0088 44.1669 51.1898 44.9289 51.1898Z" fill="#AD1B1F"/>
<path fill-rule="evenodd" clip-rule="evenodd" d="M44.6269 4.55289C45.3029 4.55289 45.3029 3.50488 44.6269 3.50488C43.9499 3.50488 43.9499 4.55289 44.6269 4.55289Z" fill="#AD1B1F"/>
<path fill-rule="evenodd" clip-rule="evenodd" d="M40.6931 6.87906C41.6371 6.87906 41.6371 5.41406 40.6931 5.41406C39.7481 5.41406 39.7481 6.87906 40.6931 6.87906Z" fill="#AD1B1F"/>
<path fill-rule="evenodd" clip-rule="evenodd" d="M7.12819 47.9283C7.97519 47.9283 7.97519 46.6152 7.12819 46.6152C6.28019 46.6162 6.28019 47.9283 7.12819 47.9283Z" fill="#AD1B1F"/>
<path fill-rule="evenodd" clip-rule="evenodd" d="M4.40642 43.303C5.13742 43.303 5.13742 42.168 4.40642 42.168C3.67442 42.169 3.67442 43.303 4.40642 43.303Z" fill="#AD1B1F"/>
<path fill-rule="evenodd" clip-rule="evenodd" d="M96.3364 22.5561C97.6094 22.5561 97.6094 20.5801 96.3364 20.5801C95.0624 20.5811 95.0624 22.5561 96.3364 22.5561Z" fill="#AD1B1F"/>
<path fill-rule="evenodd" clip-rule="evenodd" d="M93.3123 18.36C94.2433 18.36 94.2433 16.9141 93.3123 16.9141C92.3803 16.9141 92.3803 18.36 93.3123 18.36Z" fill="#AD1B1F"/>
<path fill-rule="evenodd" clip-rule="evenodd" d="M93.0102 11.6411C93.8572 11.6411 93.8572 10.3271 93.0102 10.3271C92.1632 10.3281 92.1632 11.6411 93.0102 11.6411Z" fill="#AD1B1F"/>
<path fill-rule="evenodd" clip-rule="evenodd" d="M0.777 69.7539C-0.259 69.7539 -0.259 71.3609 0.777 71.3609C1.813 71.3609 1.813 69.7539 0.777 69.7539Z" fill="#AD1B1F"/>
<path fill-rule="evenodd" clip-rule="evenodd" d="M118.107 65.8369C117.089 65.8369 117.089 67.4149 118.107 67.4149C119.125 67.4149 119.125 65.8369 118.107 65.8369Z" fill="#AD1B1F"/>
<path fill-rule="evenodd" clip-rule="evenodd" d="M119.621 70.4863C118.749 70.4863 118.749 71.8383 119.621 71.8383C120.493 71.8383 120.493 70.4863 119.621 70.4863Z" fill="#AD1B1F"/>
<path fill-rule="evenodd" clip-rule="evenodd" d="M123.854 70.3916C122.861 70.3916 122.861 71.9326 123.854 71.9326C124.848 71.9326 124.848 70.3916 123.854 70.3916Z" fill="#AD1B1F"/>
</svg>
