<svg width="88" height="57" viewBox="0 0 88 57" fill="none" xmlns="http://www.w3.org/2000/svg">
<path d="M61.298 48.116C58.501 47.514 54.403 39.152 60.668 40.167C59.407 42.571 63.596 45.714 65.686 46.239C68.4 46.921 77.576 46.715 78.977 47.793C79.147 47.924 79.486 48.677 79.316 48.961C78.894 49.664 74.494 51.019 74.488 51.673C75.588 52.745 77.305 54.658 75.875 56.091C68.14 56.063 61.41 53.04 54.599 49.793C54.648 54.509 47.423 50.892 45.096 49.671C42.523 48.32 40.569 45.9 37.49 45.575C36.626 49.41 29.559 57.849 25.398 54.415C24.441 53.625 24.943 52.391 24.475 51.467C22.635 52.671 17.603 56.44 15.458 55.037C14.375 54.329 15.923 52.416 16.243 51.604L20.495 45.608C18.656 46.074 16.925 47.08 15.071 47.504C9.02001 48.887 5.441 47.323 0 44.979C0.024 44.072 14.814 38.374 16.623 37.757C17.643 37.409 21.977 36.604 22.173 36.397C22.294 36.268 21.491 35.303 21.795 34.784C21.839 34.71 22.667 34.458 23.015 34.124C24.208 32.976 25.284 31.346 26.98 30.958L25.937 33.468C29.665 33.954 27.183 36.149 24.681 35.986L25.936 37.235C17.866 36.698 10.845 42.146 3.34201 44.36C2.60101 45.153 5.807 45.88 6.16 45.929C13.955 47.005 15.842 43.278 21.829 41.712C23.91 41.168 25.004 41.324 24.982 43.812C24.96 46.361 18.723 50.314 17.989 53.139C18.556 53.698 24.226 49.087 24.963 49.016C26.665 48.854 26.334 52.385 27.178 52.97C28.293 53.743 32.647 50.141 33.459 49.154C36.329 45.663 34.423 42.257 40.927 43.802C43.672 44.454 49.176 47.768 51.345 48.041C52.19 48.147 52.941 47.596 54.076 47.776C56.641 48.183 62.836 51.589 66.008 52.617C68.005 53.264 70.274 54.342 72.387 53.771C71.477 53.008 68.663 52.662 69.835 50.825C70.751 49.39 73.586 49.352 75.138 48.968C75.848 48.792 76.352 49.383 76.155 48.12C71.936 47.494 65.186 48.953 61.298 48.116Z" fill="#AD1B1F"/>
<path d="M71.9683 16.7261C72.4933 17.1911 76.2883 13.919 76.8283 13.836C77.3073 13.762 77.6513 14.082 77.7793 14.488C78.6263 17.186 71.9983 22.3521 70.2953 24.2581C74.4483 23.2161 78.6793 21.4031 83.0393 21.3121C84.3853 21.2841 86.1583 21.128 86.8203 22.599C88.8013 27.001 77.6383 30.82 74.4813 31.379C74.3393 32.589 75.7173 32.347 75.9923 33.445C76.7633 36.526 71.0523 38.5731 68.8453 39.3431C67.6043 39.7761 64.0163 40.9401 62.9143 40.9861C61.5653 41.0431 60.7903 39.83 62.0363 39.229C63.4993 38.524 65.9473 38.269 67.5893 37.668C68.5463 37.318 75.5753 34.97 74.0583 33.47C72.8733 33.304 65.7223 34.1331 68.3193 31.4861C69.5233 30.2581 78.2143 27.9361 80.6223 26.8481C81.9593 26.2441 84.9753 25.024 85.3523 23.625C85.5993 22.707 84.8733 23.077 84.3493 22.948C82.6363 22.526 79.1223 23.1581 77.3233 23.5491C75.4683 23.9521 67.4993 26.9281 66.7463 26.7731C66.4793 26.7181 66.1913 26.346 66.2913 25.922C66.7023 24.186 75.3293 18.758 76.1523 15.896L63.1793 22.5841C64.2533 20.1301 66.7923 19.08 68.6253 17.363C73.3013 12.984 77.6863 7.97905 80.3323 2.08305C77.4293 4.50905 74.6793 7.26805 71.5103 9.36805C63.9603 14.3721 58.4743 15.3421 52.0843 23.0021C50.4143 25.0041 49.3723 27.5621 47.4973 29.2951C46.7873 29.9521 41.9383 33.1781 41.2023 33.4641C40.0953 33.8951 40.8303 32.076 40.5643 31.811C40.4963 31.743 39.3963 31.8181 38.6783 31.4021C37.3643 30.64 36.3243 28.026 34.9433 27.182C30.7943 24.648 29.9213 29.4871 27.6133 31.7951C28.2473 29.4731 29.7963 25.0161 32.3983 24.6611C37.4503 23.9711 39.7633 26.514 41.2073 30.957C42.6823 29.585 44.8443 28.624 46.2493 27.211C48.0423 25.408 49.2403 22.6081 51.0463 20.7091C57.5953 13.8211 64.8003 12.32 72.0973 7.44505C73.6343 6.41805 80.7883 0.00804203 81.3833 4.20305e-05C81.8453 -0.00695797 82.0123 0.862061 81.9343 1.36906C81.8163 2.13406 80.0673 5.60305 79.5703 6.54805C77.5893 10.323 74.8143 13.5931 71.9683 16.7261Z" fill="#AD1B1F"/>
<path d="M32.2101 36.3985L29.2871 34.9365C29.9361 33.3165 32.8121 35.8085 32.2101 36.3985Z" fill="#AD1B1F"/>
</svg>
