<svg width="34" height="30" viewBox="0 0 34 30" fill="none" xmlns="http://www.w3.org/2000/svg">
<path d="M2.388 18.255C3.484 17.201 3.44198 16.241 3.33298 15.298C3.24798 14.562 3.413 14.165 4.211 13.945C6.178 13.402 6.79 11.955 6.578 10.04C6.512 9.44501 6.263 8.781 7.263 8.642C9.312 8.357 9.951 6.579 10.827 4.664C13.062 7.237 15.145 6.87501 16.997 4.64801C19.347 7.58701 19.602 7.643 23.059 6.03C23.681 8.483 25.236 9.799 27.89 9.509C27.89 9.978 27.919 10.295 27.885 10.605C27.648 12.821 28.029 14.676 30.648 15.106C32.037 15.334 30.623 16.659 31.59 17.114C32.168 16.199 32.748 15.28 33.265 14.46C32.891 13.783 32.445 13.963 32.053 13.941C29.109 13.772 28.436 12.771 29.09 9.91C29.33 8.857 30.169 8.042 30.39 7.026C29.483 6.673 29.19 7.24599 28.757 7.48099C25.917 9.02599 24.443 8.176 24.177 4.897C24.109 4.064 24.504 3.13899 23.966 2.14499C22.957 3.20499 22.686 4.39298 21.762 5.15698C20.26 6.39898 19.47 6.307 18.563 4.578C18.066 3.631 17.821 2.617 17.832 1.53C17.838 0.939999 17.997 0.211 17.096 0C16.094 0.563 16.796 1.50899 16.6 2.24899C16.24 3.60699 15.696 5.044 14.222 5.319C12.803 5.584 12.107 4.25301 11.34 3.23001C10.784 2.48801 11.134 1.25099 9.854 0.804993C9.049 2.10499 9.63299 3.64401 9.17599 5.01001C8.29699 7.64001 7.29399 8.018 5.20599 6.276C4.84399 5.974 4.59799 5.373 3.94199 5.793C3.70899 6.66 4.494 7.07801 4.742 7.71701C5.316 9.19301 6.02399 10.775 4.91599 12.206C3.80499 13.642 2.27198 13.057 0.846985 12.591C0.735985 12.555 0.542 12.773 0 13.123C2.435 13.983 2.408 16.032 2.388 18.255Z" fill="#3A5220"/>
<path d="M25.3201 15.2434C24.4971 13.8904 23.0761 13.7824 21.6601 13.9594C19.8171 14.1894 18.3471 15.2244 16.8741 16.4204C15.8951 14.8394 15.1781 13.1674 13.8871 11.8944C12.5811 10.6064 10.8701 10.1784 9.57407 10.7964C8.32307 11.3924 7.52807 13.0844 7.85807 14.8864C8.06407 16.0114 8.52309 17.0974 8.93109 18.1764C10.3631 21.9654 13.4531 24.7844 15.0061 28.5154C15.3041 29.2324 16.0591 29.1914 16.5791 28.6364C19.5351 25.4834 22.6101 22.4284 25.0431 18.8264C25.7991 17.7094 26.0421 16.4294 25.3201 15.2434ZM23.6771 18.5364C22.1021 20.5194 20.5371 22.5134 18.8921 24.4374C18.0851 25.3814 17.3851 26.4694 16.0541 27.1474C14.0311 23.7054 11.4021 20.6464 9.93808 16.8784C8.97708 14.4044 9.16707 12.3374 10.4451 12.0804C12.5631 11.6534 13.2961 13.4814 14.2791 14.7984C15.3401 16.2194 15.5731 18.1344 16.9591 19.4964C17.6991 17.1524 19.3401 16.0764 21.5291 15.6094C22.5191 15.3984 23.5231 15.3064 24.1071 16.1894C24.6131 16.9514 24.2281 17.8424 23.6771 18.5364Z" fill="#3A5220"/>
</svg>
