<svg width="22" height="28" viewBox="0 0 22 28" fill="none" xmlns="http://www.w3.org/2000/svg">
<path d="M20.3782 8.07946C20.1862 7.81346 20.2542 7.59645 20.4572 7.35845C21.2542 6.42245 21.3792 5.41446 20.2362 4.76446C19.1332 4.13646 20.1312 2.68945 19.0242 2.18545C18.7812 2.07445 18.4762 1.92344 18.2492 1.98244C17.1622 2.26444 16.4002 1.85144 15.5692 1.15444C14.8842 0.57844 14.1692 1.07744 13.6612 1.74444C13.4462 2.02644 13.4962 2.74346 12.9432 2.49746C12.2002 2.16746 11.2942 2.49344 10.6512 1.80144C10.1412 1.25244 9.43018 1.09246 8.78118 1.48946C8.04018 1.94146 7.82417 1.61446 7.43517 1.00146C6.73617 -0.100545 6.01617 -0.304537 5.30217 0.446463C4.67817 1.10246 4.20617 1.14746 3.38317 0.941458C2.09717 0.620458 0.847165 1.55146 1.23217 2.57946C1.70017 3.83146 1.32417 4.51545 0.491168 5.28545C0.218168 5.53745 0.0321754 6.00146 0.00517535 6.38146C-0.108825 8.02546 1.70617 9.29346 0.953173 11.1015C0.881173 11.2735 1.11417 11.6044 1.25817 11.8274C1.53017 12.2524 1.95216 12.4924 2.44216 12.5634C3.01816 12.6464 3.25918 12.9384 3.23018 13.5214C3.21718 13.7854 3.28017 14.0724 3.38317 14.3184C3.73717 15.1604 4.89918 15.1465 5.22618 15.7735C5.54518 16.3855 4.83418 17.3705 5.64818 18.0285C5.90418 18.2355 6.23718 18.3994 6.04418 18.8364C5.40418 20.2894 6.35418 20.9675 7.54018 21.6705C7.16718 22.3495 6.61316 22.8635 6.83916 23.6265C7.04116 24.3085 7.59018 24.5454 8.23018 24.6594C8.60018 24.7254 8.55316 25.0224 8.54216 25.2924C8.52016 25.8484 8.63617 26.3884 8.91017 26.8584C9.31117 27.5454 10.1522 27.5995 10.6012 26.9545C10.8252 26.6325 10.9832 26.2074 11.0102 25.8184C11.0602 25.0824 11.2322 24.6515 12.0792 24.4335C12.9702 24.2045 13.3172 23.4775 12.9522 22.4845C12.8532 22.2155 12.4092 21.7095 12.9602 21.4545C13.9852 20.9795 14.3502 20.2325 14.1882 19.1405C14.1442 18.8465 14.4542 18.7104 14.7032 18.5894C15.0682 18.4114 15.4642 18.2654 15.7772 18.0174C16.5532 17.4034 16.2192 16.3015 16.6602 15.6565C17.1002 15.0125 18.3312 15.0335 18.5452 13.9805C18.7892 12.7825 19.8472 12.0554 20.2072 10.8144C20.4972 9.82044 21.0942 9.06946 20.3782 8.07946ZM18.8022 5.63744C18.8972 5.40244 19.3772 5.20244 19.6532 5.28344C20.1992 5.48944 20.2982 5.88644 20.1262 6.39644C19.9902 6.80044 19.7282 7.10446 19.3052 7.16546C18.9992 7.21046 18.6322 6.06044 18.8022 5.63744ZM18.3572 2.84344C18.8432 3.00544 18.8892 3.39245 18.7752 3.82445C18.5922 4.08945 18.4682 4.59746 18.0992 4.39846C17.6772 4.16946 16.9512 3.95646 17.1542 3.27746C17.3012 2.78346 17.8552 2.67544 18.3572 2.84344ZM14.9752 1.82046C15.8152 1.75246 15.8802 2.63545 16.0742 3.29345C15.4392 3.60145 14.8642 3.52544 14.2702 3.43944C14.1242 2.70344 14.1302 1.88946 14.9752 1.82046ZM10.9902 3.65545C11.1052 3.19145 11.4732 3.03246 11.9142 3.10146C12.3122 3.16446 12.7222 3.28744 12.8472 3.73644C12.9622 4.14744 12.5742 4.28345 12.3392 4.48745C11.9422 4.83045 11.5352 5.16045 10.9882 5.61645C10.6142 4.78145 10.8512 4.21545 10.9902 3.65545ZM8.70818 2.50646C9.11618 2.18446 9.61919 2.00545 9.97219 2.46645C10.5242 3.18645 10.0032 3.71246 9.48516 4.20846C8.99316 3.95546 8.64619 3.56345 8.33419 3.16445C8.22819 2.79145 8.50818 2.66346 8.70818 2.50646ZM5.93617 0.949453C6.89517 0.776453 6.88116 1.65146 7.24416 2.54946C6.40216 2.30446 5.69016 3.06146 5.37816 2.14046C5.21016 1.64546 5.55217 1.01845 5.93617 0.949453ZM2.09416 2.10946C2.42216 1.48446 2.97217 1.57845 3.50017 1.76745C4.00517 1.94845 4.49117 2.18346 4.49617 2.75646C4.32517 3.24946 3.17017 3.92546 2.84517 3.79946C2.27417 3.57746 1.82916 2.61546 2.09416 2.10946ZM0.779162 6.70244C0.822162 5.83744 1.30216 5.20046 2.34816 4.94546C2.19816 6.02146 1.91316 6.97745 2.08916 8.06945C1.04116 7.99445 0.745162 7.38544 0.779162 6.70244ZM1.92717 11.3245C1.30917 10.6265 1.74218 9.81745 2.40718 8.96645C2.90118 9.57145 3.24817 9.98046 3.57717 10.4035C3.86117 10.7675 4.35516 10.9605 4.48216 11.5525C3.57416 12.0295 2.59617 12.0785 1.92717 11.3245ZM5.05217 14.6045C4.58117 14.4695 4.17417 14.1775 4.14617 13.6435C4.11917 13.1315 4.44917 12.7635 4.88317 12.5405C5.51517 12.2155 5.68216 12.8105 5.93016 13.1535C6.19616 13.5215 6.60116 13.8365 6.55516 14.3895C6.09316 14.7205 5.57117 14.7535 5.05217 14.6045ZM6.13817 17.0535C5.88817 16.4115 6.38718 15.6674 6.91918 15.6374C7.92218 15.5814 7.60318 16.7275 8.19918 17.2565C7.18118 17.6615 6.46517 17.8925 6.13817 17.0535ZM6.79216 19.8035C6.61516 18.8055 7.64418 18.6564 8.36818 18.3874C8.84918 19.1664 8.87616 19.9494 8.94716 20.7844C7.93816 20.9244 6.96616 20.7875 6.79216 19.8035ZM8.56917 23.7184C8.21917 23.8324 7.79916 23.7625 7.75316 23.4065C7.64516 22.5885 8.31918 22.3105 8.98918 21.9725C9.33918 22.8005 9.47517 23.4234 8.56917 23.7184ZM10.1012 20.3964C9.43918 17.3144 8.16317 14.5595 6.49517 11.9545C5.82117 10.9005 4.89316 10.0924 4.13716 9.12844C2.99316 7.66944 2.90718 6.30045 3.83318 4.98745C4.92818 3.43445 6.77216 3.33744 7.97716 4.80944C8.68216 5.67144 9.05918 6.69545 9.25218 7.79445C9.37818 8.51445 9.27316 9.31746 9.89516 9.87746C10.6442 9.90246 10.7132 9.21546 11.0152 8.81246C11.5872 8.04946 12.0352 7.19145 12.6302 6.44945C13.3442 5.55945 14.3042 5.06444 15.4862 5.08544C16.7392 5.10744 17.2292 5.47344 17.4652 6.69344C17.7792 8.31344 17.5122 9.82245 16.4602 11.1384C16.1622 11.5104 15.8232 11.8514 15.4942 12.1974C12.4442 15.4064 11.8952 16.2634 10.1012 20.3964ZM9.97917 26.3685C9.83617 26.4895 9.65817 26.5314 9.49617 26.3004C9.06517 25.6854 9.28418 25.2114 9.89418 24.5944C10.2762 25.3174 10.5912 25.8495 9.97917 26.3685ZM12.1342 23.5095C11.8342 23.8115 11.4422 24.0025 11.0402 23.7905C10.7012 23.6115 10.2702 23.4194 10.3092 22.9144C10.3512 22.3704 10.5082 21.8545 10.8372 21.2905C11.6622 21.4715 11.9292 22.0394 12.2152 22.5694C12.3822 22.8794 12.4082 23.2345 12.1342 23.5095ZM12.5042 20.6525C12.2222 20.7355 11.9562 20.6915 11.7492 20.5115C11.5372 20.3275 11.4702 20.0704 11.6092 19.7924C11.7292 19.5514 11.8442 19.3085 11.9582 19.0655C12.1012 18.7575 12.2502 18.4554 12.6052 18.3364C13.5342 19.6334 13.5042 20.3585 12.5042 20.6525ZM13.7282 17.6275C13.4252 17.5225 13.1312 17.3165 13.2632 16.8715C13.4782 16.1495 14.6812 14.9385 15.0002 15.1695C15.4882 15.5245 15.5692 16.0505 15.4352 16.6175C15.2372 17.3725 14.4372 17.8735 13.7282 17.6275ZM16.2462 14.4694C16.0652 14.4664 15.8432 14.3585 15.7202 14.2255C15.5772 14.0695 15.6432 13.8535 15.8082 13.7005C16.2982 13.2465 16.6292 12.6054 17.3282 12.3874C17.7292 13.8624 17.4062 14.4904 16.2462 14.4694ZM18.5602 11.7475C18.2912 11.7395 18.0462 11.6405 17.9972 11.3465C17.9842 11.2655 18.1272 11.0985 18.2262 11.0715C18.5782 10.9745 18.6162 11.3124 18.7392 11.4444C18.8032 11.6504 18.7372 11.7525 18.5602 11.7475ZM19.6092 10.0405C19.3142 10.2305 18.9902 10.2665 18.6022 10.0665C18.6352 9.83546 18.6472 9.57846 18.7132 9.33446C18.8092 8.97646 18.7712 8.46746 19.3732 8.54546C19.6412 8.58046 19.8572 8.72344 19.9662 9.01244C20.1372 9.46744 19.9872 9.79846 19.6092 10.0405Z" fill="#AD1B1F"/>
</svg>
