<svg width="829" height="156" viewBox="0 0 829 156" fill="none" xmlns="http://www.w3.org/2000/svg">
<path d="M201.4 50.459C201.4 50.459 198.217 49.871 192.663 48.75C187.111 47.617 179.156 46.127 169.656 44.095C150.625 40.194 125.332 34.575 100.149 28.489C74.96 22.423 49.897 15.842 31.164 10.68C21.79 8.12499 14.0079 5.89 8.55695 4.341C3.11095 2.771 0 1.875 0 1.875L0.544983 0C0.544983 0 3.65397 0.89605 9.09497 2.46405C14.542 4.01205 22.317 6.24503 31.683 8.79803C50.4 13.956 75.442 20.531 100.608 26.592C125.769 32.673 151.04 38.287 170.054 42.185C179.545 44.215 187.494 45.704 193.04 46.836C198.589 47.955 201.77 48.543 201.77 48.543L201.4 50.459Z" fill="#3A5220"/>
<path d="M104.778 43.0089C104.778 43.0089 109.331 32.9968 105.865 28.7788C102.404 24.5518 96.2348 23.6139 92.1018 28.0999C87.9618 32.6059 87.2168 42.5139 87.2168 42.5139C87.2168 42.5139 89.2909 40.8538 92.5179 40.0858C95.7499 39.3038 100.128 39.4148 104.778 43.0089Z" fill="#3A5220"/>
<path d="M106.231 34.1082C106.183 32.4312 105.696 30.4152 104.195 29.4012C103.819 29.1462 103.466 29.5782 103.534 29.9112C103.874 31.5782 104.542 32.9682 104.524 34.7202C104.506 36.4052 103.49 38.2682 104.123 39.8742C104.238 40.1682 104.589 40.2442 104.824 40.0422C106.292 38.7802 106.283 35.9282 106.231 34.1082Z" fill="#3A5220"/>
<path d="M96.572 39.674C95.443 32.641 99.594 28.4059 102.643 26.2809C99.226 24.3299 94.887 24.5799 91.73 28.0079C87.589 32.5129 86.842 42.4219 86.842 42.4219C86.842 42.4219 90.933 39.18 96.572 39.674Z" fill="#3A5220"/>
<g filter="url(#filter0_f_661_1828)">
<path d="M107.666 59.8371C105.678 68.3611 97.0866 73.6031 88.4786 71.5451C79.8716 69.4811 74.6466 60.8171 76.7716 52.3421C78.9036 43.8361 87.4666 38.7071 95.9336 40.7361C104.402 42.7611 109.655 51.3131 107.666 59.8371Z" fill="#E08A00"/>
</g>
<path d="M107.369 59.5442C105.381 68.0682 96.7897 73.3102 88.1817 71.2522C79.5747 69.1882 74.3497 60.5242 76.4747 52.0492C78.6067 43.5432 87.1697 38.4142 95.6367 40.4432C104.105 42.4682 109.358 51.0202 107.369 59.5442Z" fill="#FFD905"/>
<path d="M106.825 45.9532C106.402 45.8522 106.069 45.5022 106.027 45.0682C105.935 44.1322 106.105 42.7472 106.319 40.9942C106.953 35.8042 107.916 27.9622 102.47 26.6602C100.252 26.1302 98.3243 26.4162 96.5733 27.5312C93.9483 29.2092 92.2602 32.4042 91.2222 35.2162C90.7032 36.6202 90.3492 37.9242 90.1232 38.8832C90.0102 39.3622 89.9292 39.7553 89.8762 40.0323C89.8262 40.3093 89.7983 40.4683 89.7963 40.4803C89.7153 41.0143 89.1953 41.3702 88.6333 41.2782C88.0783 41.1992 87.6843 40.6792 87.7653 40.1452C87.8273 39.7182 89.4463 29.6692 95.4213 25.8982C97.6393 24.4852 100.163 24.1022 102.927 24.7632C110.153 26.4912 109.026 35.7422 108.355 41.2712C108.165 42.8452 107.999 44.2062 108.071 44.9392C108.124 45.4792 107.709 45.9472 107.144 45.9822C107.035 45.9872 106.927 45.9772 106.825 45.9532Z" fill="#3A5220"/>
<path d="M111.301 59.6659C113.389 50.6479 107.768 41.5579 98.7722 39.3989C89.7672 37.2809 80.6522 42.7049 78.3942 51.7299C76.1492 60.7049 81.7292 69.9569 90.8932 72.1139C100.048 74.3109 109.203 68.7239 111.301 59.6659ZM109.281 59.2019C107.419 67.2049 99.3792 72.1309 91.3512 70.2149C83.3182 68.3229 78.4282 60.1719 80.4062 52.2299C82.3912 44.2569 90.4052 39.4359 98.3152 41.2979C106.22 43.1839 111.136 51.2309 109.281 59.2019Z" fill="#3A5220"/>
<path d="M111.301 59.6659C113.389 50.6479 107.768 41.5579 98.7722 39.3989C89.7672 37.2809 80.6522 42.7049 78.3942 51.7299C76.1492 60.7049 81.7292 69.9569 90.8932 72.1139C100.048 74.3109 109.203 68.7239 111.301 59.6659ZM109.281 59.2019C107.419 67.2049 99.3792 72.1309 91.3512 70.2149C83.3182 68.3229 78.4282 60.1719 80.4062 52.2299C82.3912 44.2569 90.4052 39.4359 98.3152 41.2979C106.22 43.1839 111.136 51.2309 109.281 59.2019Z" fill="#3A5220"/>
<path d="M106.884 39.9804C106.71 39.9384 106.544 39.8543 106.405 39.7243C101.876 35.5093 98.0807 34.4744 95.3707 34.5114C92.6607 34.5564 91.0508 35.6413 90.9198 35.7373C90.4728 36.0523 89.8287 35.9574 89.4857 35.5244C89.1397 35.0904 89.2167 34.4814 89.6597 34.1604C89.6697 34.1534 89.7987 34.0624 90.0377 33.9284C90.2767 33.7944 90.6248 33.6163 91.0728 33.4353C91.9698 33.0693 93.2607 32.7053 94.8787 32.6173C98.1137 32.4513 102.617 33.4983 107.814 38.3363C108.224 38.7193 108.242 39.3384 107.853 39.7224C107.596 39.9754 107.225 40.0614 106.884 39.9804Z" fill="#3A5220"/>
<path d="M104.381 51.4109C104.111 51.0649 103.316 51.0579 103.283 51.5029C103.059 54.5339 104.008 57.2249 102.635 60.1319C102.022 61.4279 101.089 62.4909 99.9239 63.4699C98.7059 64.4939 97.4159 64.6959 96.6219 65.9779C96.3089 66.4829 96.6768 67.3829 97.5178 67.4939C101.371 68.0019 103.945 64.8859 105.377 62.4729C107.086 59.5879 106.662 54.3329 104.381 51.4109Z" fill="#FFF580"/>
<path d="M172.783 58.0782C172.783 58.0782 177.02 47.9352 173.429 43.8152C169.839 39.6962 163.657 38.9002 159.657 43.5502C155.656 48.2002 155.219 58.1172 155.219 58.1172C155.219 58.1172 157.244 56.3792 160.447 55.5042C163.651 54.6282 168.027 54.6152 172.783 58.0782Z" fill="#3A5220"/>
<path d="M173.958 49.1344C173.858 47.4574 173.309 45.4565 171.779 44.4845C171.395 44.2405 171.057 44.6825 171.135 45.0135C171.526 46.6715 172.237 48.0425 172.272 49.7955C172.306 51.4815 171.35 53.3734 172.031 54.9624C172.155 55.2534 172.508 55.3195 172.737 55.1105C174.165 53.8055 174.067 50.9534 173.958 49.1344Z" fill="#3A5220"/>
<path d="M164.483 54.9752C163.138 47.9732 167.153 43.6191 170.133 41.4081C166.66 39.5541 162.336 39.9212 159.281 43.4722C155.279 48.1212 154.84 58.0381 154.84 58.0381C154.84 58.0381 158.838 54.6262 164.483 54.9752Z" fill="#3A5220"/>
<g filter="url(#filter1_f_661_1828)">
<path d="M176.2 74.7778C175.335 79.0678 172.803 82.6038 169.394 84.8498C165.989 87.0768 161.713 87.9868 157.384 87.0828C153.056 86.1758 149.504 83.6218 147.277 80.2218C145.054 76.7978 144.154 72.5438 145.082 68.2658C146.01 63.9888 148.583 60.4978 151.98 58.3068C155.384 56.0918 159.613 55.1638 163.879 56.0568C168.145 56.9478 171.645 59.5008 173.876 62.8888C176.108 66.2568 177.065 70.4878 176.2 74.7778Z" fill="#E08A00"/>
</g>
<path d="M176.2 74.7778C175.335 79.0678 172.803 82.6038 169.394 84.8498C165.989 87.0768 161.713 87.9868 157.384 87.0828C153.056 86.1758 149.504 83.6218 147.277 80.2218C145.054 76.7978 144.154 72.5438 145.082 68.2658C146.01 63.9888 148.583 60.4978 151.98 58.3068C155.384 56.0918 159.613 55.1638 163.879 56.0568C168.145 56.9478 171.645 59.5008 173.876 62.8888C176.108 66.2568 177.065 70.4878 176.2 74.7778Z" fill="#FFD905"/>
<path d="M174.924 60.9536C174.498 60.8686 174.154 60.5336 174.098 60.1006C173.977 59.1676 174.104 57.7756 174.263 56.0166C174.735 50.8096 175.454 42.9385 169.975 41.7915C167.745 41.3245 165.83 41.6636 164.116 42.8286C161.551 44.5716 159.958 47.8365 159.006 50.6795C158.53 52.1005 158.215 53.4165 158.018 54.3825C157.919 54.8655 157.851 55.2616 157.806 55.5396C157.765 55.8186 157.741 55.9776 157.739 55.9906C157.674 56.5266 157.164 56.9006 156.6 56.8296C156.041 56.7706 155.631 56.2666 155.696 55.7306C155.744 55.3026 157.052 45.2116 162.91 41.2286C165.083 39.7526 167.59 39.2976 170.371 39.8796C177.641 41.4076 176.803 50.6816 176.308 56.2196C176.166 57.7996 176.044 59.1636 176.139 59.8926C176.209 60.4296 175.809 60.9115 175.244 60.9685C175.135 60.9805 175.027 60.9746 174.924 60.9536Z" fill="#3A5220"/>
<path d="M179.829 74.4945C181.64 65.3815 175.721 56.5675 166.674 54.6375C157.618 52.7525 148.653 58.5636 146.686 67.6076C144.709 76.6936 150.597 85.6626 159.816 87.5816C169.025 89.5456 178.023 83.5805 179.829 74.4945ZM177.796 74.0905C176.189 82.1295 168.287 87.3896 160.214 85.6706C152.136 83.9746 146.971 76.0906 148.71 68.0526C150.439 60.0606 158.325 54.8806 166.276 56.5496C174.223 58.2436 179.404 66.0465 177.796 74.0905Z" fill="#3A5220"/>
<path d="M179.829 74.4945C181.64 65.3815 175.721 56.5675 166.674 54.6375C157.618 52.7525 148.653 58.5636 146.686 67.6076C144.709 76.6936 150.597 85.6626 159.816 87.5816C169.025 89.5456 178.023 83.5805 179.829 74.4945ZM177.796 74.0905C176.189 82.1295 168.287 87.3896 160.214 85.6706C152.136 83.9746 146.971 76.0906 148.71 68.0526C150.439 60.0606 158.325 54.8806 166.276 56.5496C174.223 58.2436 179.404 66.0465 177.796 74.0905Z" fill="#3A5220"/>
<path d="M174.793 54.9889C174.618 54.9519 174.449 54.8719 174.307 54.7469C165.015 46.5809 158.978 51.0259 158.713 51.2159C158.275 51.5469 157.628 51.4759 157.272 51.0569C156.912 50.6369 156.971 50.0249 157.403 49.6889C157.412 49.6809 157.539 49.5859 157.773 49.4429C158.008 49.2999 158.351 49.11 158.793 48.912C159.678 48.517 160.961 48.0929 162.573 47.9629C165.799 47.7029 170.329 48.6259 175.673 53.3149C176.096 53.6809 176.133 54.2989 175.755 54.6969C175.505 54.9589 175.136 55.0619 174.793 54.9889Z" fill="#3A5220"/>
<path d="M172.647 66.4924C172.366 66.1534 171.572 66.1694 171.553 66.6154C171.422 69.6574 172.456 72.3114 171.174 75.2614C170.601 76.5804 169.702 77.6654 168.568 78.6794C167.383 79.7384 166.1 79.9764 165.346 81.2814C165.049 81.7954 165.444 82.6844 166.288 82.7714C170.151 83.1804 172.635 79.9484 173.991 77.4924C175.613 74.5504 175.022 69.3234 172.647 66.4924Z" fill="#FFF580"/>
<path d="M406.341 79.3799C406.341 79.3799 403.122 79.08 397.488 78.556C391.854 78.035 383.804 77.314 374.16 76.246C354.856 74.3 329.169 71.1369 303.54 67.5209C297.137 66.5809 290.722 65.7389 284.43 64.7319C278.134 63.7569 271.938 62.797 265.942 61.868C253.972 59.865 242.787 58.0689 233.235 56.3199C228.455 55.4699 224.073 54.6909 220.189 53.9999C216.312 53.2689 212.932 52.632 210.148 52.108C204.581 51.059 201.399 50.46 201.399 50.46L201.768 48.5419C201.768 48.5419 204.946 49.141 210.509 50.189C213.29 50.713 216.667 51.349 220.541 52.079C224.421 52.769 228.799 53.548 233.575 54.397C243.119 56.145 254.293 57.9399 266.252 59.9399C272.242 60.8679 278.432 61.8269 284.722 62.8019C291.008 63.8069 297.417 64.648 303.814 65.588C329.418 69.2 355.08 72.36 374.364 74.304C383.998 75.371 392.04 76.0909 397.668 76.6119C403.296 77.1359 406.512 77.436 406.512 77.436L406.341 79.3799Z" fill="#3A5220"/>
<path d="M240.718 70.8966C240.718 70.8966 241.7 68.3236 242.212 65.2556C242.724 62.1886 242.768 58.6246 240.91 56.6186C237.193 52.6116 230.993 52.0066 227.143 56.7776C223.292 61.5486 223.168 71.4766 223.168 71.4766C223.168 71.4766 225.137 69.6766 228.309 68.7026C231.484 67.7296 235.856 67.5816 240.718 70.8966Z" fill="#3A5220"/>
<path d="M241.608 61.9188C241.455 60.2458 240.843 58.2619 239.283 57.3379C238.892 57.1059 238.568 57.5579 238.656 57.8869C239.1 59.5319 239.853 60.8809 239.944 62.6319C240.032 64.3169 239.136 66.2368 239.867 67.8048C240.001 68.0918 240.355 68.1469 240.577 67.9309C241.963 66.5829 241.775 63.7348 241.608 61.9188Z" fill="#3A5220"/>
<path d="M232.324 68.0503C230.759 61.0923 234.633 56.6163 237.539 54.3133C234.011 52.5663 229.703 53.0673 226.763 56.7103C222.911 61.4813 222.785 71.4083 222.785 71.4083C222.785 71.4083 226.672 67.8753 232.324 68.0503Z" fill="#3A5220"/>
<g filter="url(#filter2_f_661_1828)">
<path d="M244.668 87.4654C243.223 96.0974 234.963 101.944 226.248 100.365C217.527 98.8194 211.751 90.5874 213.352 81.9574C214.943 73.3744 223.185 67.6304 231.756 69.1504C240.32 70.7024 246.113 78.8314 244.668 87.4654Z" fill="#E08A00"/>
</g>
<path d="M244.668 87.4654C243.223 96.0974 234.963 101.944 226.248 100.365C217.527 98.8194 211.751 90.5874 213.352 81.9574C214.943 73.3744 223.185 67.6304 231.756 69.1504C240.32 70.7024 246.113 78.8314 244.668 87.4654Z" fill="#FFD905"/>
<path d="M242.949 73.6876C242.52 73.6166 242.165 73.2905 242.096 72.8615C241.945 71.9355 242.027 70.5436 242.13 68.7816C242.434 63.5706 242.903 55.6815 237.393 54.7015C235.15 54.3035 233.248 54.7015 231.572 55.9185C229.064 57.7395 227.576 61.0536 226.715 63.9246C226.285 65.3596 226.011 66.6846 225.845 67.6566C225.762 68.1426 225.706 68.5405 225.67 68.8195C225.638 69.0995 225.619 69.2595 225.618 69.2715C225.57 69.8095 225.072 70.1995 224.506 70.1455C223.948 70.1045 223.521 69.6125 223.568 69.0745C223.602 68.6445 224.59 58.5185 230.318 54.3555C232.441 52.8125 234.933 52.2805 237.729 52.7775C245.038 54.0875 244.501 63.3515 244.181 68.9135C244.09 70.4955 244.012 71.8626 244.13 72.5886C244.217 73.1236 243.832 73.6175 243.27 73.6925C243.161 73.7075 243.053 73.7046 242.949 73.6876Z" fill="#3A5220"/>
<path d="M248.285 87.0688C249.049 82.4928 247.873 78.0338 245.376 74.5298C242.875 71.0398 239.06 68.4688 234.503 67.6458C225.398 66.0258 216.616 72.1418 214.932 81.2518C213.244 90.3878 219.42 99.1418 228.694 100.791C233.323 101.627 237.849 100.491 241.401 97.9778C244.952 95.4808 247.522 91.6438 248.285 87.0688ZM246.241 86.7278C244.895 94.7998 237.156 100.344 229.032 98.8678C220.901 97.4248 215.491 89.6878 216.972 81.6208C218.453 73.5558 226.166 68.1498 234.166 69.5698C242.159 71.0238 247.593 78.6218 246.241 86.7278Z" fill="#3A5220"/>
<path d="M248.285 87.0688C249.049 82.4928 247.873 78.0338 245.376 74.5298C242.875 71.0398 239.06 68.4688 234.503 67.6458C225.398 66.0258 216.616 72.1418 214.932 81.2518C213.244 90.3878 219.42 99.1418 228.694 100.791C233.323 101.627 237.849 100.491 241.401 97.9778C244.952 95.4808 247.522 91.6438 248.285 87.0688ZM246.241 86.7278C244.895 94.7998 237.156 100.344 229.032 98.8678C220.901 97.4248 215.491 89.6878 216.972 81.6208C218.453 73.5558 226.166 68.1498 234.166 69.5698C242.159 71.0238 247.593 78.6218 246.241 86.7278Z" fill="#3A5220"/>
<path d="M242.63 67.7313C242.454 67.7023 242.282 67.6293 242.136 67.5103C232.588 59.6453 226.7 64.2673 226.442 64.4693C226.014 64.8133 225.368 64.7633 224.997 64.3543C224.624 63.9453 224.663 63.3323 225.085 62.9833C225.094 62.9753 225.218 62.8763 225.448 62.7263C225.678 62.5763 226.015 62.3753 226.451 62.1643C227.323 61.7423 228.592 61.2793 230.198 61.1013C233.414 60.7363 237.965 61.5433 243.456 66.0293C243.89 66.3813 243.947 66.9983 243.583 67.4073C243.34 67.6773 242.975 67.7893 242.63 67.7313Z" fill="#3A5220"/>
<path d="M240.851 79.2964C240.559 78.9704 239.764 79.0184 239.76 79.4644C239.728 82.5004 240.846 85.1164 239.658 88.1074C239.128 89.4404 238.262 90.5654 237.16 91.6214C236.009 92.7164 234.735 92.9944 234.023 94.3214C233.743 94.8444 234.166 95.7214 235.012 95.7824C238.89 96.0524 241.27 92.7464 242.546 90.2494C244.073 87.2574 243.315 82.0504 240.851 79.2964Z" fill="#FFF580"/>
<path d="M612.825 85.5085C612.825 85.5085 609.6 85.5905 603.955 85.7335C598.309 85.8475 590.25 86.1685 580.565 86.1915C575.724 86.2355 570.48 86.2835 564.933 86.3335C559.386 86.3645 553.533 86.2745 547.481 86.2485C544.454 86.2285 541.378 86.2075 538.263 86.1865C535.148 86.1645 531.995 86.0594 528.817 85.9994C522.461 85.8524 516.004 85.7014 509.547 85.5514C483.72 84.7304 457.908 83.2985 438.564 81.9315C428.891 81.2725 420.84 80.5495 415.2 80.1255C409.56 79.6965 406.342 79.3765 406.342 79.3765L406.514 77.4305C406.514 77.4305 409.729 77.7495 415.363 78.1785C420.997 78.6025 429.04 79.3245 438.703 79.9825C458.026 81.3475 483.81 82.7774 509.608 83.5984C516.057 83.7484 522.507 83.8975 528.856 84.0455C532.03 84.1055 535.18 84.2104 538.291 84.2314C541.402 84.2524 544.476 84.2734 547.499 84.2934C553.545 84.3184 559.39 84.4095 564.931 84.3775C570.471 84.3275 575.71 84.2795 580.545 84.2355C590.218 84.2125 598.267 83.8914 603.906 83.7784C609.544 83.6354 612.765 83.5535 612.765 83.5535L612.825 85.5085Z" fill="#3A5220"/>
<path d="M447.522 95.5968C447.522 95.5968 450.329 84.9618 446.216 81.3878C442.106 77.8028 435.886 77.9198 432.558 83.0318C429.228 88.1548 430.132 98.0538 430.132 98.0538C430.132 98.0538 431.901 96.0908 434.954 94.7778C438.01 93.4628 442.34 92.8368 447.522 95.5968Z" fill="#3A5220"/>
<path d="M447.463 86.579C447.135 84.934 446.32 83.029 444.674 82.282C444.261 82.094 443.987 82.579 444.109 82.896C444.721 84.482 445.611 85.74 445.885 87.47C446.149 89.134 445.46 91.141 446.35 92.618C446.513 92.888 446.871 92.904 447.069 92.665C448.305 91.174 447.819 88.365 447.463 86.579Z" fill="#3A5220"/>
<path d="M438.88 93.6905C436.599 86.9485 439.984 82.0764 442.629 79.4684C438.944 78.1104 434.716 79.1145 432.176 83.0025C428.845 88.1245 429.747 98.0245 429.747 98.0245C429.747 98.0245 433.241 94.1575 438.88 93.6905Z" fill="#3A5220"/>
<g filter="url(#filter3_f_661_1828)">
<path d="M453.194 111.701C452.67 120.438 445.065 127.049 436.209 126.465C431.785 126.196 427.916 124.094 425.248 121.003C422.579 117.913 421.111 113.822 421.456 109.459C421.8 105.096 423.883 101.287 426.953 98.6542C430.025 96.0232 434.083 94.5811 438.429 94.8451C447.108 95.4161 453.718 102.963 453.194 111.701Z" fill="#E08A00"/>
</g>
<path d="M453.194 111.701C452.67 120.438 445.065 127.049 436.209 126.465C431.785 126.196 427.916 124.094 425.248 121.003C422.579 117.913 421.111 113.822 421.456 109.459C421.8 105.096 423.883 101.287 426.953 98.6542C430.025 96.0232 434.083 94.5811 438.429 94.8451C447.108 95.4161 453.718 102.963 453.194 111.701Z" fill="#FFD905"/>
<path d="M450.032 98.1549C449.598 98.1259 449.212 97.8369 449.098 97.4169C448.851 96.5099 448.786 95.1159 448.704 93.3519C448.459 88.1289 448.097 80.2379 442.524 79.8709C440.255 79.7209 438.408 80.3259 436.869 81.7189C434.567 83.8099 433.432 87.2529 432.875 90.1919C432.596 91.6629 432.462 93.0089 432.397 93.9929C432.365 94.4849 432.35 94.8859 432.344 95.1679C432.341 95.4499 432.339 95.6109 432.339 95.6239C432.347 96.1639 431.893 96.6009 431.325 96.6009C430.766 96.6139 430.29 96.1649 430.282 95.6239C430.271 95.1869 430.206 85.0239 435.461 80.3039C437.41 78.5379 439.828 77.7359 442.657 77.9219C450.051 78.4089 450.489 87.7179 450.755 93.2809C450.831 94.8649 450.897 96.2339 451.09 96.9439C451.233 97.4679 450.903 97.9979 450.352 98.1279C450.244 98.1539 450.136 98.1619 450.032 98.1549Z" fill="#3A5220"/>
<path d="M456.749 110.947C457.286 101.686 450.223 93.6562 441.004 93.0492C436.387 92.7552 432.067 94.3502 428.801 97.1262C425.535 99.9222 423.318 103.965 422.957 108.589C422.595 113.214 424.166 117.558 427.015 120.842C429.86 124.145 433.989 126.321 438.693 126.621C448.111 127.241 456.211 120.209 456.749 110.947ZM454.679 110.811C454.193 118.998 447.081 125.216 438.826 124.672C430.566 124.168 424.384 116.914 425.023 108.754C425.664 100.564 432.765 94.5052 440.869 94.9982C448.969 95.5312 455.165 102.626 454.679 110.811Z" fill="#3A5220"/>
<path d="M456.749 110.947C457.286 101.686 450.223 93.6562 441.004 93.0492C436.387 92.7552 432.067 94.3502 428.801 97.1262C425.535 99.9222 423.318 103.965 422.957 108.589C422.595 113.214 424.166 117.558 427.015 120.842C429.86 124.145 433.989 126.321 438.693 126.621C448.111 127.241 456.211 120.209 456.749 110.947ZM454.679 110.811C454.193 118.998 447.081 125.216 438.826 124.672C430.566 124.168 424.384 116.914 425.023 108.754C425.664 100.564 432.765 94.5052 440.869 94.9982C448.969 95.5312 455.165 102.626 454.679 110.811Z" fill="#3A5220"/>
<path d="M449.09 92.2575C448.912 92.2455 448.734 92.1905 448.576 92.0865C443.411 88.6935 439.504 88.3105 436.841 88.8035C434.18 89.3045 432.772 90.6525 432.66 90.7615C432.271 91.1455 431.623 91.1575 431.212 90.7855C430.799 90.4135 430.775 89.7995 431.157 89.4115C431.165 89.4025 431.278 89.2925 431.491 89.1205C431.704 88.9495 432.018 88.7165 432.429 88.4645C433.251 87.9635 434.463 87.3785 436.042 87.0185C439.2 86.3115 443.806 86.5855 449.732 90.4805C450.2 90.7885 450.321 91.3965 450.002 91.8405C449.791 92.1335 449.44 92.2805 449.09 92.2575Z" fill="#3A5220"/>
<path d="M448.538 103.946C448.213 103.65 447.428 103.777 447.471 104.221C447.758 107.247 449.146 109.74 448.279 112.836C447.892 114.216 447.149 115.421 446.163 116.582C445.132 117.796 443.892 118.211 443.323 119.609C443.099 120.16 443.613 120.984 444.462 120.953C448.353 120.807 450.371 117.303 451.378 114.684C452.58 111.553 451.277 106.443 448.538 103.946Z" fill="#FFF580"/>
<path d="M517.045 98.7888C517.045 98.7888 519.432 88.0429 515.185 84.6519C510.941 81.2999 504.738 81.5048 501.611 86.7758C498.483 92.0338 499.767 101.885 499.767 101.885C499.767 101.885 501.459 99.8298 504.458 98.4268C505.958 97.7258 507.784 97.1879 509.895 97.1519C512.006 97.1029 514.401 97.5178 517.045 98.7888Z" fill="#3A5220"/>
<path d="M516.636 89.7813C516.244 88.1523 515.355 86.2853 513.683 85.6103C513.264 85.4413 513.008 85.9373 513.142 86.2483C513.815 87.8063 514.753 89.0233 515.094 90.7403C515.423 92.3913 514.812 94.4253 515.76 95.8623C515.933 96.1253 516.292 96.1253 516.48 95.8783C517.656 94.3353 517.06 91.5503 516.636 89.7813Z" fill="#3A5220"/>
<path d="M508.338 97.2262C505.798 90.5462 508.99 85.5892 511.53 82.8892C507.798 81.6632 503.617 82.7412 501.23 86.7612C498.101 92.0192 499.383 101.87 499.383 101.87C499.383 101.87 502.726 97.8332 508.338 97.2262Z" fill="#3A5220"/>
<g filter="url(#filter4_f_661_1828)">
<path d="M523.345 114.627C523.167 123.361 515.819 130.351 506.941 130.076C498.066 129.746 491.168 122.389 491.534 113.643C491.9 104.898 499.241 98.0702 507.931 98.3932C516.621 98.6632 523.524 105.858 523.345 114.627Z" fill="#E08A00"/>
</g>
<path d="M523.345 114.627C523.167 123.361 515.819 130.351 506.941 130.076C498.066 129.746 491.168 122.389 491.534 113.643C491.9 104.898 499.241 98.0702 507.931 98.3932C516.621 98.6632 523.524 105.858 523.345 114.627Z" fill="#FFD905"/>
<path d="M519.655 101.233C519.221 101.224 518.823 100.951 518.693 100.537C518.411 99.6423 518.291 98.2523 518.14 96.4933C517.691 91.2863 517.02 83.4193 511.441 83.2953C509.168 83.2253 507.346 83.8743 505.863 85.3143C503.643 87.4703 502.643 90.9583 502.201 93.9183C501.98 95.3983 501.899 96.7473 501.873 97.7323C501.86 98.2243 501.861 98.6263 501.866 98.9073C501.874 99.1883 501.879 99.3503 501.879 99.3623C501.909 99.9013 501.472 100.356 500.904 100.381C500.345 100.418 499.853 99.9893 499.825 99.4503C499.797 99.0203 499.342 88.8523 504.407 83.9373C506.284 82.1123 508.668 81.2523 511.499 81.3423C518.9 81.5063 519.702 90.7863 520.187 96.3313C520.325 97.9103 520.444 99.2753 520.666 99.9763C520.83 100.493 520.52 101.037 519.975 101.191C519.868 101.222 519.76 101.235 519.655 101.233Z" fill="#3A5220"/>
<path d="M526.871 113.72C527.04 104.444 519.667 96.7325 510.434 96.5245C501.204 96.1805 493.385 103.443 493.003 112.712C492.621 121.981 499.99 129.81 509.43 130.16C518.876 130.375 526.701 122.995 526.871 113.72ZM524.796 113.674C524.635 121.873 517.767 128.397 509.487 128.208C501.214 127.901 494.749 120.984 495.075 112.789C495.401 104.596 502.265 98.1746 510.375 98.4766C518.488 98.6606 524.958 105.476 524.796 113.674Z" fill="#3A5220"/>
<path d="M526.871 113.72C527.04 104.444 519.667 96.7325 510.434 96.5245C501.204 96.1805 493.385 103.443 493.003 112.712C492.621 121.981 499.99 129.81 509.43 130.16C518.876 130.375 526.701 122.995 526.871 113.72ZM524.796 113.674C524.635 121.873 517.767 128.397 509.487 128.208C501.214 127.901 494.749 120.984 495.075 112.789C495.401 104.596 502.265 98.1746 510.375 98.4766C518.488 98.6606 524.958 105.476 524.796 113.674Z" fill="#3A5220"/>
<path d="M518.48 95.3826C518.302 95.3786 518.121 95.3306 517.959 95.2336C515.312 93.6516 513.011 92.8076 511.04 92.4346C509.07 92.0436 507.429 92.1096 506.11 92.3966C503.472 92.9656 502.118 94.3746 502.01 94.4906C501.637 94.8906 500.989 94.9296 500.565 94.5766C500.138 94.2226 500.09 93.6106 500.457 93.2056C500.465 93.1966 500.573 93.0816 500.779 92.9006C500.985 92.7196 501.29 92.4746 501.691 92.2056C502.493 91.6666 503.681 91.0336 505.243 90.6346C506.805 90.2336 508.74 90.0766 511.042 90.4686C513.345 90.8356 516.013 91.7616 519.051 93.5776C519.531 93.8646 519.675 94.4666 519.374 94.9236C519.175 95.2286 518.83 95.3906 518.48 95.3826Z" fill="#3A5220"/>
<path d="M518.387 107.085C518.051 106.804 517.271 106.964 517.331 107.406C517.736 110.416 519.221 112.846 518.476 115.977C518.143 117.373 517.448 118.608 516.507 119.811C515.524 121.068 514.3 121.538 513.785 122.958C513.582 123.518 514.129 124.319 514.977 124.25C518.863 123.935 520.743 120.347 521.646 117.686C522.726 114.507 521.222 109.46 518.387 107.085Z" fill="#FFF580"/>
<path d="M817.776 64.4568C817.776 64.4568 814.607 65.0169 809.062 65.9979C803.529 67.0449 795.569 68.2368 786.027 69.7238C776.5 71.3028 765.317 72.7278 753.352 74.3568C751.856 74.5588 750.348 74.7628 748.829 74.9688C747.306 75.1458 745.772 75.3238 744.228 75.5038C741.14 75.8598 738.015 76.2199 734.865 76.5839C728.562 77.2899 722.172 78.1128 715.75 78.6738C709.335 79.2908 702.92 79.9088 696.605 80.5158C690.284 81.0648 684.053 81.5059 678.028 81.9879C675.015 82.2219 672.052 82.4529 669.152 82.6779C666.248 82.8559 663.407 83.0308 660.641 83.1998C655.109 83.5298 649.878 83.8429 645.05 84.1309C635.39 84.6539 627.327 84.9118 621.69 85.1758C618.87 85.2938 616.655 85.3869 615.144 85.4509C613.632 85.4889 612.826 85.5098 612.826 85.5098L612.763 83.5579C612.763 83.5579 613.568 83.5378 615.079 83.4988C616.588 83.4358 618.8 83.3429 621.617 83.2249C627.248 82.9609 635.3 82.7028 644.948 82.1808C649.77 81.8928 654.994 81.5809 660.519 81.2509C663.281 81.0819 666.119 80.9069 669.019 80.7299C671.915 80.5049 674.874 80.2748 677.883 80.0408C683.9 79.5598 690.123 79.1199 696.435 78.5709C702.741 77.9639 709.148 77.3478 715.554 76.7308C721.968 76.1708 728.348 75.3499 734.642 74.6439C737.788 74.2809 740.909 73.9209 743.992 73.5659C745.533 73.3869 747.066 73.2089 748.587 73.0319C750.104 72.8269 751.61 72.6228 753.104 72.4208C765.052 70.7948 776.219 69.3719 785.732 67.7949C795.26 66.3099 803.209 65.1189 808.733 64.0739C814.27 63.0949 817.434 62.5358 817.434 62.5358L817.776 64.4568Z" fill="#3A5220"/>
<path d="M655.616 96.5663C655.616 96.5663 657.074 85.6633 652.559 82.6313C648.046 79.5783 641.911 80.5013 639.238 85.9493C636.566 91.4373 638.673 101.154 638.673 101.154C638.673 101.154 640.187 98.9824 643.055 97.3254C645.923 95.6394 650.136 94.4753 655.616 96.5663Z" fill="#3A5220"/>
<path d="M654.439 87.6261C653.91 86.0351 652.866 84.2471 651.145 83.7111C650.713 83.5761 650.501 84.0921 650.661 84.3911C651.463 85.8881 652.5 87.0251 652.986 88.7071C653.454 90.3261 653.019 92.4021 654.086 93.7571C654.281 94.0051 654.638 93.9761 654.804 93.7141C655.844 92.0801 655.012 89.3531 654.439 87.6261Z" fill="#3A5220"/>
<path d="M646.811 95.7549C643.72 89.3509 646.474 84.0929 648.77 81.1749C644.956 80.2979 640.896 81.8029 638.855 85.9669C636.182 91.4559 638.286 101.172 638.286 101.172C638.286 101.172 639.035 100.1 640.475 98.8959C641.916 97.7069 644.043 96.3309 646.811 95.7549Z" fill="#3A5220"/>
<g filter="url(#filter5_f_661_1828)">
<path d="M663.249 111.834C663.824 120.568 657.087 128.08 648.201 128.609C643.766 128.905 639.657 127.257 636.626 124.525C633.593 121.783 631.636 117.9 631.447 113.528C631.258 109.156 632.863 105.122 635.587 102.136C638.313 99.1394 642.162 97.2484 646.504 96.9574C655.177 96.4394 662.674 103.1 663.249 111.834Z" fill="#E08A00"/>
</g>
<path d="M663.249 111.834C663.824 120.568 657.087 128.08 648.201 128.609C643.766 128.905 639.657 127.257 636.626 124.525C633.593 121.783 631.636 117.9 631.447 113.528C631.258 109.156 632.863 105.122 635.587 102.136C638.313 99.1394 642.162 97.2484 646.504 96.9574C655.177 96.4394 662.674 103.1 663.249 111.834Z" fill="#FFD905"/>
<path d="M658.423 98.7905C657.989 98.8165 657.57 98.5775 657.404 98.1745C657.046 97.3055 656.808 95.9305 656.507 94.1905C655.615 89.0385 654.276 81.2545 648.715 81.5865C646.451 81.7215 644.697 82.5525 643.345 84.1275C641.323 86.4945 640.619 90.0215 640.427 93.0175C640.331 94.5115 640.363 95.8635 640.42 96.8475C640.449 97.3395 640.483 97.7405 640.511 98.0205C640.542 98.3005 640.56 98.4615 640.562 98.4735C640.636 99.0085 640.239 99.4965 639.676 99.5665C639.123 99.6475 638.596 99.2595 638.522 98.7235C638.457 98.2965 637.151 88.2015 641.777 82.8985C643.489 80.9025 645.784 79.8045 648.606 79.6355C655.981 79.1945 657.573 88.3765 658.531 93.8625C658.804 95.4245 659.039 96.7745 659.32 97.4555C659.527 97.9575 659.266 98.5255 658.736 98.7225C658.634 98.7625 658.527 98.7845 658.423 98.7905Z" fill="#3A5220"/>
<path d="M666.686 110.641C666.054 101.385 658.047 94.303 648.837 94.853C646.53 94.991 644.356 95.593 642.396 96.564C640.434 97.5 638.686 98.808 637.236 100.394C634.338 103.566 632.63 107.848 632.834 112.482C633.038 117.116 635.129 121.238 638.364 124.15C639.981 125.606 641.883 126.76 643.972 127.525C646.06 128.255 648.334 128.592 650.692 128.451C660.144 127.889 667.318 119.897 666.686 110.641ZM664.614 110.765C665.16 118.948 658.866 126.008 650.585 126.503C642.305 127.052 635.267 120.557 634.908 112.396C634.722 108.3 636.215 104.516 638.757 101.713C641.302 98.933 644.891 97.056 648.945 96.804C657.039 96.32 664.069 102.584 664.614 110.765Z" fill="#3A5220"/>
<path d="M666.686 110.641C666.054 101.385 658.047 94.303 648.837 94.853C646.53 94.991 644.356 95.593 642.396 96.564C640.434 97.5 638.686 98.808 637.236 100.394C634.338 103.566 632.63 107.848 632.834 112.482C633.038 117.116 635.129 121.238 638.364 124.15C639.981 125.606 641.883 126.76 643.972 127.525C646.06 128.255 648.334 128.592 650.692 128.451C660.144 127.889 667.318 119.897 666.686 110.641ZM664.614 110.765C665.16 118.948 658.866 126.008 650.585 126.503C642.305 127.052 635.267 120.557 634.908 112.396C634.722 108.3 636.215 104.516 638.757 101.713C641.302 98.933 644.891 97.056 648.945 96.804C657.039 96.32 664.069 102.584 664.614 110.765Z" fill="#3A5220"/>
<path d="M656.753 93.0564C656.575 93.0674 656.392 93.0344 656.222 92.9504C650.682 90.2294 646.766 90.3384 644.187 91.1604C641.612 91.9954 640.38 93.4764 640.283 93.6084C639.944 94.0364 639.304 94.1274 638.851 93.8084C638.396 93.4894 638.297 92.8834 638.629 92.4514C638.636 92.4414 638.734 92.3184 638.924 92.1224C639.114 91.9264 639.397 91.6574 639.773 91.3574C640.526 90.7494 641.657 90.0494 643.176 89.4904C646.218 88.3934 650.811 88.0894 657.167 91.2134C657.669 91.4604 657.865 92.0494 657.604 92.5284C657.432 92.8454 657.102 93.0354 656.753 93.0564Z" fill="#3A5220"/>
<path d="M657.66 104.724C657.301 104.471 656.538 104.695 656.635 105.13C657.296 108.096 658.985 110.396 658.509 113.576C658.297 114.994 657.708 116.282 656.873 117.558C656 118.891 654.819 119.459 654.426 120.917C654.271 121.491 654.885 122.245 655.725 122.107C659.576 121.475 661.144 117.745 661.817 115.021C662.622 111.765 660.689 106.859 657.66 104.724Z" fill="#FFF580"/>
<path d="M793.829 81.7125C793.829 81.7125 794.221 70.7255 789.439 68.1335C784.661 65.5415 778.646 66.9715 776.525 72.7375C775.467 75.6255 775.68 79.3975 776.17 82.4875C776.658 85.5705 777.417 87.9385 777.417 87.9385C777.417 87.9385 778.712 85.6035 781.402 83.6535C784.096 81.7035 788.174 80.1485 793.829 81.7125Z" fill="#3A5220"/>
<path d="M791.792 72.9259C791.112 71.3919 789.901 69.7108 788.138 69.3408C787.696 69.2478 787.535 69.7809 787.723 70.0629C788.665 71.4769 789.806 72.5109 790.452 74.1389C791.074 75.7059 790.843 77.8129 792.035 79.0609C792.253 79.2889 792.605 79.2269 792.746 78.9499C793.621 77.2259 792.529 74.5909 791.792 72.9259Z" fill="#3A5220"/>
<path d="M784.991 81.7353C781.3 75.6533 783.535 70.1593 785.534 67.0393C781.659 66.5253 777.768 68.3923 776.148 72.7953C774.017 78.5233 777.035 87.9903 777.035 87.9903C777.035 87.9903 777.68 86.8623 778.993 85.4953C780.307 84.1353 782.292 82.5683 784.991 81.7353Z" fill="#3A5220"/>
<g filter="url(#filter6_f_661_1828)">
<path d="M802.914 96.1824C804.34 104.818 798.349 112.932 789.534 114.303C780.727 115.738 772.585 109.561 771.399 100.918C770.205 92.2184 776.234 84.3604 784.802 82.9604C793.379 81.6264 801.488 87.5464 802.914 96.1824Z" fill="#E08A00"/>
</g>
<path d="M802.914 96.1824C804.34 104.818 798.349 112.932 789.534 114.303C780.727 115.738 772.585 109.561 771.399 100.918C770.205 92.2184 776.234 84.3604 784.802 82.9604C793.379 81.6264 801.488 87.5464 802.914 96.1824Z" fill="#FFD905"/>
<path d="M796.84 83.6591C796.411 83.7261 795.972 83.5301 795.767 83.1431C795.326 82.3101 794.956 80.965 794.487 79.262C793.1 74.222 791.013 66.6011 785.52 67.4561C783.284 67.8041 781.62 68.7971 780.428 70.4921C778.644 73.0281 778.288 76.648 778.384 79.647C778.432 81.146 778.593 82.4891 778.743 83.4641C778.818 83.9511 778.891 84.346 778.946 84.623C779.004 84.898 779.037 85.0561 779.04 85.0681C779.165 85.5931 778.818 86.124 778.266 86.256C777.724 86.402 777.164 86.0631 777.039 85.5361C776.932 85.1091 774.678 75.218 778.753 69.418C780.264 67.27 782.437 65.961 785.225 65.527C792.509 64.393 794.984 73.378 796.471 78.746C796.894 80.277 797.26 81.598 797.606 82.248C797.861 82.727 797.656 83.317 797.148 83.564C797.047 83.611 796.944 83.6421 796.84 83.6591Z" fill="#3A5220"/>
<path d="M806.221 94.6706C804.685 85.5216 796.026 79.2306 786.919 80.6476C782.354 81.3416 778.503 83.9036 775.916 87.3156C773.334 90.7386 772.038 95.1576 772.682 99.7516C773.325 104.346 775.8 108.256 779.304 110.856C782.807 113.469 787.322 114.624 792.004 113.912C801.379 112.453 807.757 103.82 806.221 94.6706ZM804.169 94.9897C805.512 103.081 799.922 110.703 791.708 111.981C787.608 112.616 783.644 111.554 780.573 109.292C777.495 106.991 775.315 103.533 774.74 99.4726C774.165 95.4136 775.294 91.5096 777.557 88.4866C779.817 85.4246 783.204 83.1986 787.215 82.5776C795.219 81.3326 802.826 86.9007 804.169 94.9897Z" fill="#3A5220"/>
<path d="M806.221 94.6706C804.685 85.5216 796.026 79.2306 786.919 80.6476C782.354 81.3416 778.503 83.9036 775.916 87.3156C773.334 90.7386 772.038 95.1576 772.682 99.7516C773.325 104.346 775.8 108.256 779.304 110.856C782.807 113.469 787.322 114.624 792.004 113.912C801.379 112.453 807.757 103.82 806.221 94.6706ZM804.169 94.9897C805.512 103.081 799.922 110.703 791.708 111.981C787.608 112.616 783.644 111.554 780.573 109.292C777.495 106.991 775.315 103.533 774.74 99.4726C774.165 95.4136 775.294 91.5096 777.557 88.4866C779.817 85.4246 783.204 83.1986 787.215 82.5776C795.219 81.3326 802.826 86.9007 804.169 94.9897Z" fill="#3A5220"/>
<path d="M794.621 78.1113C794.445 78.1383 794.259 78.1233 794.082 78.0563C782.56 73.6873 778.484 79.9784 778.296 80.2504C778.001 80.7154 777.372 80.8764 776.894 80.6094C776.412 80.3384 776.255 79.7404 776.543 79.2814C776.549 79.2714 776.634 79.1373 776.804 78.9213C776.974 78.7053 777.228 78.4053 777.572 78.0643C778.261 77.3823 779.311 76.5323 780.769 75.8433C783.689 74.4643 788.225 73.7284 794.853 76.2394C795.376 76.4374 795.628 77.0043 795.416 77.5073C795.276 77.8373 794.966 78.0573 794.621 78.1113Z" fill="#3A5220"/>
<path d="M796.655 89.6352C796.273 89.4172 795.535 89.7121 795.674 90.1371C796.619 93.0261 798.525 95.1552 798.36 98.3652C798.286 99.7962 797.825 101.133 797.116 102.482C796.375 103.892 795.252 104.568 795.001 106.057C794.902 106.643 795.587 107.336 796.412 107.118C800.191 106.124 801.392 102.264 801.798 99.4892C802.281 96.1722 799.877 91.4732 796.655 89.6352Z" fill="#FFF580"/>
<defs>
<filter id="filter0_f_661_1828" x="51.2973" y="15.293" width="81.7891" height="81.6992" filterUnits="userSpaceOnUse" color-interpolation-filters="sRGB">
<feFlood flood-opacity="0" result="BackgroundImageFix"/>
<feBlend mode="normal" in="SourceGraphic" in2="BackgroundImageFix" result="shape"/>
<feGaussianBlur stdDeviation="6" result="effect1_foregroundBlur_661_1828"/>
</filter>
<filter id="filter1_f_661_1828" x="119.719" y="30.7198" width="81.7969" height="81.709" filterUnits="userSpaceOnUse" color-interpolation-filters="sRGB">
<feFlood flood-opacity="0" result="BackgroundImageFix"/>
<feBlend mode="normal" in="SourceGraphic" in2="BackgroundImageFix" result="shape"/>
<feGaussianBlur stdDeviation="6" result="effect1_foregroundBlur_661_1828"/>
</filter>
<filter id="filter2_f_661_1828" x="188.086" y="43.9063" width="81.8027" height="81.7168" filterUnits="userSpaceOnUse" color-interpolation-filters="sRGB">
<feFlood flood-opacity="0" result="BackgroundImageFix"/>
<feBlend mode="normal" in="SourceGraphic" in2="BackgroundImageFix" result="shape"/>
<feGaussianBlur stdDeviation="6" result="effect1_foregroundBlur_661_1828"/>
</filter>
<filter id="filter3_f_661_1828" x="396.407" y="69.8145" width="81.8164" height="81.6865" filterUnits="userSpaceOnUse" color-interpolation-filters="sRGB">
<feFlood flood-opacity="0" result="BackgroundImageFix"/>
<feBlend mode="normal" in="SourceGraphic" in2="BackgroundImageFix" result="shape"/>
<feGaussianBlur stdDeviation="6" result="effect1_foregroundBlur_661_1828"/>
</filter>
<filter id="filter4_f_661_1828" x="466.52" y="73.3819" width="81.8281" height="81.7021" filterUnits="userSpaceOnUse" color-interpolation-filters="sRGB">
<feFlood flood-opacity="0" result="BackgroundImageFix"/>
<feBlend mode="normal" in="SourceGraphic" in2="BackgroundImageFix" result="shape"/>
<feGaussianBlur stdDeviation="6" result="effect1_foregroundBlur_661_1828"/>
</filter>
<filter id="filter5_f_661_1828" x="606.432" y="71.9288" width="81.8516" height="81.7148" filterUnits="userSpaceOnUse" color-interpolation-filters="sRGB">
<feFlood flood-opacity="0" result="BackgroundImageFix"/>
<feBlend mode="normal" in="SourceGraphic" in2="BackgroundImageFix" result="shape"/>
<feGaussianBlur stdDeviation="6" result="effect1_foregroundBlur_661_1828"/>
</filter>
<filter id="filter6_f_661_1828" x="746.248" y="57.7725" width="81.875" height="81.7383" filterUnits="userSpaceOnUse" color-interpolation-filters="sRGB">
<feFlood flood-opacity="0" result="BackgroundImageFix"/>
<feBlend mode="normal" in="SourceGraphic" in2="BackgroundImageFix" result="shape"/>
<feGaussianBlur stdDeviation="6" result="effect1_foregroundBlur_661_1828"/>
</filter>
</defs>
</svg>
