<svg width="300" height="836" viewBox="0 0 300 836" fill="none" xmlns="http://www.w3.org/2000/svg">
<path d="M64.4379 0.470703C64.4379 0.470703 9.92231 19.9419 2.9379 49.9707C0.372252 61.0015 -0.932674 68.3274 2.9379 78.9707C11.6556 102.942 64.4379 100.971 64.4379 100.971C64.4379 100.971 205.109 93.9707 233.938 112.971C262.766 131.971 291.438 246.971 291.938 249.471C292.438 251.971 294.938 265.471 290.438 274.471C285.938 283.471 95.4375 260.971 64.4379 274.471C33.4383 287.971 8.41515 338.837 2.9379 389.471C1.36291 404.03 5.43739 414.471 20.4355 429.971C35.4337 445.471 215.936 432.971 240.938 457.971C265.94 482.971 294.186 533.584 298.438 589.471C299.416 602.321 291.936 619.971 283.936 624.971C275.936 629.971 131.936 610.471 106.438 622.471C80.9402 634.471 47.1666 682.497 40.4379 731.971C38.1486 748.804 40.5772 761.582 45.9355 779.471C62.56 834.971 275.438 834.971 275.438 834.971" stroke="black"/>
</svg>
