<svg width="440" height="260" viewBox="0 0 440 260" fill="none" xmlns="http://www.w3.org/2000/svg">
<path d="M440 260H0V0H440V260ZM50 20C38.9543 20 30 28.9543 30 40V220C30 231.046 38.9543 240 50 240H390C401.046 240 410 231.046 410 220V40C410 28.9543 401.046 20 390 20H50Z" fill="#AD1B1F"/>
<rect x="5" y="43" width="20" height="12" rx="1" fill="#FFFCED"/>
<rect x="5" y="70" width="20" height="12" rx="1" fill="#FFFCED"/>
<rect x="5" y="97" width="20" height="12" rx="1" fill="#FFFCED"/>
<rect x="5" y="124" width="20" height="12" rx="1" fill="#FFFCED"/>
<rect x="5" y="151" width="20" height="12" rx="1" fill="#FFFCED"/>
<rect x="5" y="178" width="20" height="12" rx="1" fill="#FFFCED"/>
<rect x="5" y="205" width="20" height="12" rx="1" fill="#FFFCED"/>
<rect x="415" y="43" width="20" height="12" rx="1" fill="#FFFCED"/>
<rect x="415" y="70" width="20" height="12" rx="1" fill="#FFFCED"/>
<rect x="415" y="97" width="20" height="12" rx="1" fill="#FFFCED"/>
<rect x="415" y="124" width="20" height="12" rx="1" fill="#FFFCED"/>
<rect x="415" y="151" width="20" height="12" rx="1" fill="#FFFCED"/>
<rect x="415" y="178" width="20" height="12" rx="1" fill="#FFFCED"/>
<rect x="415" y="205" width="20" height="12" rx="1" fill="#FFFCED"/>
</svg>
