<svg width="120" height="121" viewBox="0 0 120 121" fill="none" xmlns="http://www.w3.org/2000/svg">
<path d="M21.5467 31.7885C21.7444 32.5277 23.462 34.1551 24.058 35.5719C24.7241 37.1563 26.8328 42.8808 26.8157 44.2117C26.8013 45.352 25.5536 45.6557 25.2771 46.6155C21.5396 59.5802 23.7715 68.7314 31.8397 79.3467C33.0531 80.944 40.1471 87.7601 40.1514 88.4392C40.1686 92.4389 33.8797 86.2846 32.7408 85.0712C27.1767 79.1433 20.4136 66.9106 20.7016 58.682C20.852 54.39 24.3875 47.9865 24.2958 45.2761C24.2772 44.7217 20.9336 35.2725 20.6213 34.8155C18.8965 32.2856 9.75677 33.8672 10.1593 35.6794C10.42 36.8569 14.9354 38.9384 14.9584 43.4739C14.9913 50.1869 7.9646 58.3826 9.0118 66.8075C9.79971 73.1466 16.6674 75.5003 18.2604 80.3395C19.3821 83.7504 18.7002 93.6208 19.2819 94.6092C20.9694 97.4729 26.1811 95.2138 29.0147 95.3298C34.4513 95.5533 38.9953 98.9871 42.5466 102.815C47.3615 108.007 51.291 116.715 59.9165 115.115C54.4785 109.793 61.5425 101.147 64.2529 109.29C65.3216 112.5 62.71 113.973 65.9175 115.419C72.4557 118.364 85.3215 115.581 93.1161 116.394C96.1216 116.708 101.34 117.874 103.081 120.511C99.1257 119.904 94.8524 118.151 90.791 118.119C83.8933 118.067 76.6359 120.905 69.3528 119.774C67.3042 119.456 63.5409 117.095 62.5152 117.033C61.1342 116.95 59.6773 119.274 55.6876 118.457C41.6542 115.585 40.1428 92.5177 22.7472 97.7423C25.4505 101.182 24.9691 103.63 29.7137 104.253C31.0145 104.424 34.4355 103.67 34.1476 105.237C33.6734 107.816 29.8971 109.488 27.5534 108.213C25.5923 105.384 21.6098 102.981 19.7546 100.431C18.8478 99.1848 18.0184 96.2882 17.8106 96.0805C17.5499 95.8212 15.1833 95.3126 14.1533 94.6393C8.52901 90.9634 11.8769 83.2261 10.4773 77.9342C9.61923 74.6909 4.52791 70.9848 2.73578 67.6914C-0.0734782 62.527 -1.07485 54.5591 1.43787 49.1483C3.88755 43.875 9.53183 44.1501 8.21674 37.0259C7.74113 34.4502 5.36739 34.115 5.31581 31.5822C7.98181 28.4463 11.3726 29.0466 14.4899 28.0294C18.8921 26.594 23.0237 23.3751 28.7124 22.4711C40.2847 20.6317 37.898 31.3315 41.2774 38.7421C41.5195 39.2736 41.5023 40.5586 42.5237 39.5831C43.2873 38.8539 44.5135 25.3406 45.204 22.7734C46.1997 19.0731 48.7711 15.4773 51.2165 12.5993C52.5373 11.045 62.4837 0.388171 63.3059 0.108821C66.0694 -0.828074 64.1397 4.54262 63.5366 6.33619C61.9235 11.1381 57.5743 17.1348 56.3337 21.3193C56.0027 22.4367 56.5127 22.113 57.2075 22.2032C59.7818 22.5342 62.9392 21.0701 64.2629 24.1616C65.6582 27.4178 62.4593 29.472 61.7186 32.3902C69.2897 29.9018 77.2232 27.9292 84.6554 25.0597C87.0148 24.1486 100.295 17.0217 101.279 18.0044C101.141 27.6441 100.098 37.1706 91.6893 43.1788C93.4169 43.2633 95.0057 43.7318 96.7548 43.8106C98.5226 43.8908 104.022 43.0943 104.518 43.2146C105.031 43.3392 105.448 43.9395 105.39 44.577C105.276 45.8491 101.051 52.7727 99.9795 54.1723C95.944 59.4413 90.887 62.2605 84.4978 63.8636L100.361 71.3186C105.435 70.2328 112.403 65.405 117.318 64.8864C118.265 64.7861 118.981 65.2317 119.863 65.3721C121.104 67.1599 113.522 72.32 112.017 73.403C110.399 74.5691 106.929 75.8312 105.857 76.7151C105.244 77.2208 105.856 77.9986 104.746 78.7493C96.8465 84.0928 87.234 81.3208 79.5368 82.8865C76.6244 83.4796 75.424 86.0668 73.4012 87.5424C70.6149 89.5752 59.5211 93.1065 55.9454 93.466C50.0834 94.0563 42.3633 92.3873 40.1386 86.3462C48.3786 95.3857 60.1142 89.3603 69.4989 85.438C71.2667 84.6987 72.9829 83.0757 74.7664 82.3135C83.6039 78.5359 94.4326 82.0757 103.075 77.0517C101.608 76.3555 95.6904 76.6463 95.3351 75.2095C95.2148 74.7267 96.1087 73.4818 95.891 73.1652C95.3308 72.3515 79.4566 68.2257 78.6816 64.1487C75.4211 64.7575 70.4745 62.686 67.4761 63.5255C66.8258 63.7074 67.1051 65.7402 66.1969 65.9652C65.7556 66.0755 60.7445 63.1143 60.5181 62.6573C59.4408 60.4741 64.5809 62.9052 64.9032 62.8507C65.727 62.7089 66.5349 61.4096 68.5921 61.1532C72.3411 60.6847 75.8982 61.8437 79.4079 61.815C90.4215 61.7248 98.3994 55.5619 102.476 45.5855C98.5354 46.4121 94.8896 46.1714 90.9515 45.4208C78.7647 43.0957 88.052 41.5013 91.8984 38.298C96.8565 34.1694 98.7375 25.9637 99.4795 19.8066C95.1145 21.2148 91.4529 24.0226 87.2971 25.9021C80.4251 29.0108 71.3741 32.6136 64.27 35.2481C59.0856 37.1706 53.3625 37.0618 49.1321 38.6949C47.3772 39.3725 42.4765 42.7218 42.5495 44.5999C42.6799 48.0266 46.0965 54.8069 47.8228 57.9729C48.731 59.6389 51.4901 62.7734 51.8726 64.1271C52.4743 66.2588 50.1579 66.4608 48.8342 65.352C44.6798 61.8694 40.4966 50.5192 38.981 45.2331C38.0126 41.8551 35.5615 27.5252 34.1647 26.0683C33.1462 25.0053 31.1736 24.5483 29.7224 24.6328C26.5951 26.0883 12.4829 28.6025 11.046 30.5895C9.80399 32.3085 13.9914 31.3272 14.1862 31.3516C16.964 31.6839 18.2819 31.9776 21.5467 31.7885C21.4192 31.3158 21.6255 30.5522 21.5496 29.9935C24.8588 30.747 25.376 31.565 21.5467 31.7885ZM61.1141 25.1973C60.4838 24.5584 52.9513 26.9751 52.6834 23.6931C52.4213 20.4698 61.8977 8.61536 62.306 4.2131C56.3881 10.6066 49.8928 16.3426 47.4976 25.0684C46.7956 27.6255 45.6754 32.5535 45.5178 35.0891C45.3903 37.1248 48.7468 34.2224 50.1923 33.7569C52.3139 33.0735 56.6689 33.2211 57.527 32.6996C58.1015 32.3472 61.8418 25.9351 61.1141 25.1973ZM5.95327 67.7573C5.73122 64.0097 6.17534 60.3065 7.19102 56.6993C8.77687 51.0693 15.626 43.6659 10.4515 38.9843C9.87278 45.1471 3.26868 46.9407 2.41344 53.1222C1.79314 57.6133 2.55093 64.4825 5.95327 67.7573ZM110.871 70.7614C109.144 71.1553 100.106 73.456 100.093 74.6522C104.163 77.5718 103.784 75.2868 105.854 73.8299C107.437 72.7139 110.035 72.797 110.871 70.7614ZM17.3493 93.5363V83.0456C17.3493 81.8924 14.2264 78.4026 12.8497 77.9542L13.4212 89.972C14.1533 91.6882 15.6618 92.8558 17.3493 93.5363ZM32.9356 104.932L28.1451 105.816C29.5977 107.545 32.1434 106.903 32.9356 104.932ZM61.7058 111.518C61.7975 110.398 61.8734 108.883 60.5196 108.524C60.213 109.356 61.3591 112.26 61.7058 111.518Z" fill="#AD1B1F"/>
<path d="M97.0859 68.9529L114.666 58.6513C117.208 58.1342 116.292 59.5696 115.01 60.8045C111.234 64.4417 102.249 67.9644 97.0859 68.9529Z" fill="#AD1B1F"/>
</svg>
