<svg width="12" height="12" viewBox="0 0 12 12" fill="none" xmlns="http://www.w3.org/2000/svg">
<path d="M3.453 2.26851C3.40745 2.24151 3.35557 2.22704 3.30262 2.22657C3.24967 2.22611 3.19754 2.23967 3.15153 2.26588C3.10552 2.29208 3.06726 2.33 3.04065 2.37578C3.01403 2.42155 3.00001 2.47356 3 2.52651V9.47351C3.00001 9.52646 3.01403 9.57847 3.04065 9.62424C3.06726 9.67002 3.10552 9.70794 3.15153 9.73414C3.19754 9.76035 3.24967 9.77391 3.30262 9.77345C3.35557 9.77298 3.40745 9.75851 3.453 9.73151L9.3145 6.25801C9.35927 6.23145 9.39635 6.19369 9.42211 6.14846C9.44787 6.10322 9.46141 6.05206 9.46141 6.00001C9.46141 5.94796 9.44787 5.8968 9.42211 5.85156C9.39635 5.80633 9.35927 5.76857 9.3145 5.74201L3.453 2.26851Z" fill="#FFFCED" stroke="#FFFCED" stroke-width="0.75" stroke-linecap="round" stroke-linejoin="round"/>
</svg>
