<svg width="335" height="95" viewBox="0 0 335 95" fill="none" xmlns="http://www.w3.org/2000/svg">
<path d="M15.1625 26.5325C15.1625 26.5325 -1.82999 32.0325 0.16246 43.5325C2.15491 55.0325 7.17001 58.0325 7.17001 58.0325C7.17001 58.0325 15.67 61.8658 15.67 64.0325C15.67 66.1992 17.2559 70.4325 25.6559 74.0325C34.0559 77.6325 43.1418 78.5325 47.6559 79.5325C52.17 80.5325 95.1558 85.0325 95.1558 85.0325C95.1558 85.0325 132.5 83.5325 154.156 90.5325C175.812 97.5325 174.563 91.9563 187.656 92.5325C209.508 93.4941 221.825 94.8812 243.656 93.5325C255.02 92.8304 261.467 92.6405 272.656 90.5325C282.989 88.5856 288.678 86.8518 298.656 83.5325C308.22 80.3506 315.112 80.7184 322.656 74.0325C327.361 69.8619 329.879 66.8939 332.156 61.0325C334.639 54.6386 334.681 50.3147 333.656 43.5325C332.034 32.8037 328.056 25.5325 319.656 19.5325C311.256 13.5325 302.822 10.6992 299.656 10.0325C299.656 10.0325 277.989 7.19916 267.156 5.5325C256.322 3.86583 247.331 5.29271 234.656 4.5325C223.309 3.85196 216.999 2.77442 205.656 2.0325C187.331 0.8339 177.018 0.767515 158.656 0.532497C146.355 0.375064 139.407 -0.582649 127.156 0.532497C116.702 1.48406 110.849 2.52306 100.656 5.0325C83.6129 9.22847 75.6904 16.8025 58.6559 21.0325C42.04 25.1585 15.1625 26.5325 15.1625 26.5325Z" fill="#3A5220"/>
</svg>
