<svg width="180" height="159" viewBox="0 0 180 159" fill="none" xmlns="http://www.w3.org/2000/svg">
<path d="M132.489 55.2656C133.339 58.2307 131.87 56.8618 131.497 57.088C131.318 57.197 129.439 59.6499 128.762 60.2598C128.107 60.8493 124.665 63.4642 124.476 63.7938C124.365 63.9866 124.727 65.3788 124.64 66.0884C124.533 66.9553 123.953 67.5895 123.949 68.4397C126.453 65.7028 130.802 62.2331 132.564 59.0771C133.588 57.2435 132.777 55.26 136.176 56.7463C141.043 60.0298 145.748 63.7426 150.897 66.5922C152.059 67.2347 159.154 70.2929 159.189 70.7547C159.245 71.4681 158.353 71.1412 157.932 70.9522C149.982 67.3865 142.919 62.992 136.213 57.4158L135.702 57.4047C134.498 59.4738 132.567 61.6641 130.894 63.4604C129.446 65.0156 124.832 70.0796 123.418 70.9708C122.62 71.4736 121.47 70.765 120.079 72.5846C115.73 81.8028 111.424 91.0807 105.789 99.5977C107.592 99.688 110.012 98.7642 111.6 97.9317C113.988 96.6792 117.677 92.6433 119.669 92.0966C124.607 90.7408 119.241 97.7017 118.239 98.8732C115.771 101.756 112.378 104.537 108.635 105.475C108.768 106.527 109.645 106.452 110.14 107.707C110.357 108.258 110.46 108.796 110.418 109.388C110.84 109.836 115.46 105.751 117.9 108.489C119.763 110.579 117.508 111.865 117.615 113.069C117.744 114.512 119.05 114.75 118.445 117.597C117.645 121.361 114.303 119.915 113.653 120.459C113.439 120.638 113.106 123.967 111.112 125.216C108.712 126.717 107.593 124.502 105.432 125.773C105.71 126.225 106.406 128.501 106.528 128.591C106.902 128.864 109.513 127.5 111.141 129.494C111.989 130.532 112.006 132.708 111.673 133.968C111.347 135.202 109.964 136.04 109.775 136.698C109.245 138.544 109.908 140.524 107.57 141.97C111.277 143.701 111.157 146.937 108.644 149.81C107.037 151.645 104.866 153.141 103.833 149.984C101.229 151.447 97.7317 154.618 95.3077 151.381C93.7079 149.243 93.3373 147.248 94.8095 144.878C95.3375 144.028 97.2307 142.845 97.2354 142.682C97.2419 142.451 95.2426 141.673 95.8953 138.84C96.4494 136.433 100.102 135.839 99.732 138.941C98.7887 139.236 98.797 137.973 98.6546 137.881C97.6693 137.255 96.8443 139.945 97.2419 140.724C98.6797 141.282 100.706 138.638 101.719 140.367C102.101 141.019 100.475 142.871 104.005 141.611C105.251 141.167 107.479 139.409 107.556 138.036C107.592 137.399 107.019 136.741 107.363 136.096C107.592 135.67 108.402 135.436 108.775 134.989C110.277 133.188 111.372 130.369 108.102 130.367C107.095 130.366 104.837 131.408 104.399 130.714C104.049 130.159 105.759 126.309 101.417 127.264C98.7225 127.856 99.8223 131.554 97.2428 131.111C96.5612 127.38 99.393 125.145 102.936 125.411C102.883 124.452 102.027 124.119 101.88 123.071C101.726 121.97 102.15 121.118 102.224 120.074C101.375 119.879 101.648 120.217 101.431 120.537C100.986 121.192 100.917 121.839 100.077 122.376C99.366 122.83 98.0232 122.904 97.7448 123.259C97.6181 123.42 98.3528 125.011 97.4002 126.465C96.4196 127.961 95.3906 127.245 94.7285 127.709C94.3281 127.989 94.4454 128.982 94.058 129.529C92.7208 131.421 89.7241 129.623 90.1161 127.548C89.7632 127.167 83.1478 132.175 80.8952 128.754C79.6613 126.88 82.3069 125.206 81.9279 124.705C79.2124 124.213 78.7692 119.443 75.2547 121.051C73.5925 121.812 75.1504 122.492 75.1467 122.744C75.142 123.053 71.2747 125.011 70.9543 127.107C70.5483 129.757 73.1781 129.156 73.383 129.871C73.6251 130.717 70.8062 133.129 71.6071 134.67C72.9006 134.534 73.8765 130.974 74.1466 130.811C75.4512 130.019 75.4484 131.407 75.5257 131.462C76.0919 131.863 77.1377 128.852 77.2773 128.417C77.6265 127.332 77.3528 125.345 78.7356 126.291C79.5216 126.829 78.0903 131.035 77.6135 131.956C76.4588 134.187 75.846 133.577 74.2695 134.665C73.1753 135.42 72.5709 136.924 70.756 136.831C68.8889 135.199 71.2113 131.353 71.1452 130.569C71.1201 130.265 70.3108 129.732 70.0911 129.239C68.9643 126.705 71.2923 125.279 71.2439 123.852C71.2169 123.061 69.9067 120.325 69.4094 119.595C66.436 115.233 60.8961 115.058 56.2968 113.662C57.1433 117.617 58.1444 122.239 62.9113 122.889C65.1882 123.199 70.2121 121.753 70.1777 124.696C62.74 126.194 54.5759 127.982 51.6658 135.918C51.5895 136.159 52.0057 136.177 52.1929 136.092C52.7004 135.859 54.5284 133.987 55.2548 133.454C57.4366 131.855 61.9233 128.436 64.1396 127.386C64.4963 127.216 65.9071 126.855 65.5458 127.722C65.1686 128.626 54.0945 135.415 52.2069 137.172C51.7422 137.605 51.3995 137.959 51.0084 138.466C50.512 139.111 50.1051 141.091 49.1683 140.547C48.658 140.25 49.2912 138.827 49.4318 138.314C51.6472 130.262 54.9298 126.376 63.4104 124.696L60.0701 123.592C58.0363 122.717 57.0213 121.207 56.2791 119.194C55.8964 118.155 54.75 114.256 54.6662 113.328C54.5787 112.363 55.6347 112.227 56.3676 112.304C58.976 112.581 65.2943 114.387 67.4501 115.857C70.5809 117.991 70.4002 120.057 71.8762 122.822C72.1379 123.312 72.0606 123.554 72.8456 123.272C73.5739 123.012 72.4582 121.188 74.5433 120.343C76.1971 119.672 77.905 120.573 78.0093 120.429C78.0698 120.345 77.9655 119.5 78.1983 119.014C79.0914 117.152 82.7138 117.612 84.4198 117.577C84.5102 116.422 83.5911 115.539 83.429 114.461C83.0165 111.708 85.1341 109.049 87.9967 109.907C89.075 110.231 91.9097 112.754 92.8549 112.907C93.3522 112.987 96.3526 109.976 98.3035 112.95C99.353 105.646 107.295 104.918 112.431 101.972C115.883 99.9925 118.225 97.1625 120.38 93.8986C120.456 93.6574 120.04 93.6397 119.853 93.7253C118.276 94.4471 115.843 97.5639 113.864 98.7763C112.948 99.3379 111.519 99.9991 110.506 100.403C107.443 101.625 104.284 101.334 102.754 104.759L102.576 103.337C99.8819 103.73 101.332 107.096 101.154 107.251C100.957 107.421 100.149 107.266 99.9024 106.905C99.3465 106.094 99.813 103.92 100.332 103.08C100.861 102.226 102.239 101.874 102.731 101.173C103.568 99.986 104.475 91.9746 104.712 89.9799C105.476 83.5731 105.29 76.9837 107.213 70.7603C100.536 72.6191 100.058 69.2517 102.223 63.818L99.7329 62.924C101.008 61.3084 102.301 63.2965 102.748 63.3431C103.199 63.3906 103.897 62.7443 105.078 62.8859C107.005 63.1187 109.826 65.4346 110.654 65.5371C111.056 65.5864 111.373 65.037 111.666 65.0389C113.266 65.0482 113.988 66.6071 114.144 66.622C114.404 66.6471 118.147 65.0454 119.044 64.7865C120.628 64.3302 123.136 64.1225 124.43 63.4074C124.894 63.1513 129.813 58.6413 130.191 58.1301C130.942 57.1141 130.991 55.3355 132.489 55.2656ZM110.713 66.716C110.625 66.5772 108.176 65.3182 107.811 65.1683C103.409 63.3673 102.611 65.2754 102.938 69.5087C104.07 69.8244 108.608 67.9778 108.946 69.3579L103.653 100.841L105.378 99.5427L119.67 72.5315C116.951 70.4065 119.686 70.5769 120.771 69.7164C121.456 69.1735 123.499 66.1359 123.057 65.2372L121.812 66.3025L121.669 65.2679C120.031 66.0353 115.438 66.4152 114.187 67.3306C113.869 67.5634 114.258 71.3237 111.285 71.2874C109.661 71.2678 111.407 67.8158 110.713 66.716ZM112.899 67.7366C112.861 67.6947 112.055 67.5839 111.843 67.3716V69.5078C112.456 69.4175 113.255 68.1399 112.899 67.7366ZM106.496 106.897C105.857 106.236 101.341 110.219 100.801 110.99C100.474 111.457 99.8018 113.959 99.7339 114.581C99.5374 116.38 101.687 120.151 104.004 119.359C103.984 120.459 102.871 121.194 102.941 122.358C102.996 123.279 103.94 124.431 104.884 124.535C107.023 124.773 105.876 121.73 106.699 121.475C108.931 120.784 107.822 123.912 108.259 124.174C109.79 125.09 111.984 122.597 112.192 121.287C112.368 120.179 111.089 118.338 111.485 117.935C112.112 117.295 113.356 119.144 113.875 119.298C116.809 120.167 118.766 115.973 117.005 114.013C116.536 113.491 115.365 113.801 115.046 113.124C114.496 111.953 116.714 112.276 117.113 110.912C118.393 106.543 112.399 110.405 111.493 110.647C108.738 111.382 109.406 109.344 108.368 107.706C107.357 106.109 107.14 109.394 107.231 110.25C107.369 111.549 108.251 111.582 108.286 111.701C108.716 113.15 107.207 112.555 106.7 111.857C105.65 110.413 106.394 108.477 106.496 106.897ZM94.4743 113.032C94.072 113.453 94.1074 115.299 93.1575 115.078C92.9955 115.039 92.4181 114.312 92.014 114.079C90.93 113.453 89.78 112.999 88.7072 112.401C87.7657 111.876 87.0459 110.111 85.4703 111.684C83.429 113.722 86.2916 116.737 85.1676 118.146C84.3044 119.229 79.9695 118.042 79.4611 119.582C78.677 121.958 84.3696 123.324 83.4514 125.667C83.1375 126.467 80.7154 128.496 83.5547 128.588C86.4117 128.681 84.9581 127.818 85.1201 126.682C85.1918 126.181 86.0774 125.395 85.839 125.066C85.7161 124.895 84.4934 125.067 84.8184 123.861C85.0615 122.957 87.1139 122.362 87.9809 122.202C86.2683 120.69 88.5573 120.258 88.6104 119.541C88.6606 118.864 85.555 116.253 88.5554 116.161C90.2856 116.109 92.596 120.465 92.2524 120.781C91.0558 121.885 90.5035 117.464 89.0499 117.938C90.565 119.543 88.8683 120.206 88.7473 121.024C88.6802 121.476 89.793 122.446 89.4066 123.274C88.1159 123.239 86.7712 123.092 85.8465 124.167L87.6177 124.878C86.2227 125.669 85.2822 128.305 87.5162 127.642C88.8851 127.236 89.4056 125.623 90.8276 125.769C90.024 130.007 94.4017 131.012 93.6772 126.482C98.7337 127.384 95.8665 122.986 96.6776 121.825C97.1329 121.173 99.0466 122.103 100.052 120.183C101.252 117.894 98.1303 117.789 97.7578 117.237C97.1991 116.409 98.053 114.558 97.2652 113.458C96.7316 112.709 95.169 112.304 94.4743 113.032ZM99.0196 113.305L98.3091 113.307L98.6685 114.725H99.0168L99.0196 113.305ZM106.797 142.909C106.357 142.654 101.729 144.793 100.01 143.91C99.7199 143.761 99.7143 143.199 99.5327 143.195C97.6181 143.153 95.2928 146.013 95.4251 148.026C95.4493 148.39 96.7428 150.806 96.8722 150.901C98.2551 151.917 104.231 147.088 105.458 147.993C105.976 148.374 105.379 149.964 106.869 149.103C107.41 148.79 108.283 146.577 108.264 145.922C108.249 145.37 107.089 143.078 106.797 142.909Z" fill="#AD1B1F"/>
<path d="M75.1674 66.3014C74.645 65.7016 77.1891 60.9086 76.5791 60.2633C76.5298 60.2111 75.3527 60.0174 75.1506 60.0882C73.8692 60.5417 73.0768 67.1395 73.3878 67.7271C73.4129 67.7746 74.1756 67.2279 74.4531 67.9114C74.3619 68.8203 73.3496 70.3373 73.3971 71.127C73.4409 71.8543 74.3013 72.0042 74.292 72.7296C74.2846 73.3089 73.7826 75.3119 73.4958 75.8204C73.1746 76.3875 72.5059 76.4229 72.3942 76.8373C72.3197 77.112 72.6093 77.6158 72.5115 78.0656C72.2005 79.5025 71.6911 80.7531 70.2049 79.2585C70.0251 78.6774 70.2365 78.33 70.5178 77.8551C71.517 76.1705 73.3208 77.3383 71.2767 75.4442C71.0216 75.2076 71.1119 75.0465 70.5401 75.2048C69.215 79.1151 65.9855 81.906 63.1303 84.7118C63.0549 88.0847 61.9896 93.8555 62.7886 97.0142C63.3063 99.0629 68.9179 101.96 70.8968 102.792C77.5373 105.584 84.6072 106.631 91.3791 108.658C91.8577 108.802 92.4854 108.687 92.6102 109.382C85.761 107.541 78.1399 106.518 71.4136 104.411C68.3983 103.467 65.1371 101.985 63.2328 99.4168C62.2392 101.827 64.9304 104.763 65.1977 106.715C65.2973 107.444 64.7172 107.419 64.3121 107.24C63.8474 107.035 62.0185 103.309 61.8136 102.617C60.2072 97.1828 61.2428 90.6754 61.9868 85.1746C57.4638 86.6413 53.4447 85.7985 49.1731 84.1065C49.3678 86.7279 49.8613 89.868 49.5279 92.4791C49.4618 92.9988 49.256 93.5836 48.8174 93.0053C48.7057 90.9584 48.9664 88.8185 48.8118 86.78C48.769 86.212 48.43 83.6511 48.2801 83.395C48.1218 83.124 45.1391 81.0269 44.3606 80.1934C42.6182 78.3291 41.3601 75.189 40.0751 73.7968C39.4968 73.1701 38.4752 73.036 37.8001 72.5117C35.621 70.8169 33.8582 66.6701 33.5434 63.95C33.0182 59.4168 35.2168 56.8559 37.4192 61.8557C38.0236 62.4368 37.6082 61.1666 37.9537 61.3184C38.8794 61.7272 39.0926 66.4513 39.3673 67.7392C40.658 73.7828 44.4984 80.6535 50.2245 83.5868C63.4488 90.3615 70.6221 77.3634 72.2722 66.0816C72.4324 64.9874 72.4789 59.8079 72.6978 59.5649C73.1084 59.1086 74.6627 59.9551 74.4568 58.9996C74.1197 57.4314 73.1503 58.1773 72.4845 57.7825C69.0688 55.7524 68.5538 43.3317 66.2574 41.8985C63.6667 40.2819 61.5342 47.5446 61.0062 48.7617C60.7986 49.2403 60.6682 49.6473 60.2147 49.0411C60.7045 46.74 61.0248 44.6783 62.4021 42.6826C68.6255 33.6646 70.8465 49.8056 72.0645 53.5603C72.1856 53.9337 72.1539 54.6349 72.667 54.5511C71.9006 50.1557 72.9334 37.3821 65.8262 38.2593C65.153 38.3422 62.2801 39.6198 62.0511 40.0053C61.9896 40.1087 62.363 40.5995 62.1777 41.0046C61.7829 41.8669 59.7891 43.1427 59.8478 44.5805L59.6755 42.8046C58.7461 43.6064 58.6428 44.9325 58.1548 45.9084C57.9257 46.3675 57.855 46.848 57.354 46.1803C58.667 41.2467 62.7104 35.2505 68.5976 37.0841C75.3899 39.1989 72.6214 50.8867 75.5697 56.1044C76.2085 57.2349 77.9182 58.2835 78.0449 59.7092C78.1687 61.0995 77.0941 64.3123 76.2997 65.481C75.9915 65.9363 75.9012 66.455 75.1674 66.3014ZM38.8449 70.5738C38.4761 68.9945 37.2525 60.2726 35.4636 60.2577C33.4615 60.24 36.4768 67.7736 36.9964 68.6862C37.2925 69.2059 38.0841 70.694 38.8449 70.5738Z" fill="#AD1B1F"/>
<path d="M178.919 132.678C178.79 132.801 178.611 133.88 178.072 133.244C177.816 132.944 177.111 125.716 177.36 125.411L178.423 125.766C177.902 120.124 176.813 114.507 176.292 108.851C175.642 101.797 175.86 94.5937 174.768 87.5871C174.532 86.0758 173.919 82.4831 173.237 81.2846C172.489 79.9706 164.493 74.251 163.319 74.5322C162.488 75.7503 161.353 76.0352 160.258 77.1546C158.28 79.1763 156.697 81.9746 156.354 84.8167L159.051 80.575C160.708 80.4232 160.307 81.8917 160.023 82.9738C158.657 88.1691 153.614 95.5519 151.091 100.389C149.684 103.086 149.288 107.923 147.878 110.35C147.592 110.843 147.435 111.303 146.739 111.166C145.662 109.893 150.387 94.1272 151.269 91.6659C152.795 87.4028 154.964 83.6508 156.615 79.5655C159.262 73.0181 157.629 69.9292 166.203 74.4326C168.324 75.5473 173.391 78.7814 174.334 80.9009C177.439 87.8879 177.338 103.566 178.073 111.7C178.383 115.136 179.197 118.594 179.493 122.03C179.699 124.427 180.263 129.544 179.858 131.653C179.723 132.353 179.297 132.317 178.919 132.678ZM162.758 73.7863C159.225 71.7702 158.826 74.7697 158.49 77.6975C159.539 76.3677 161.011 75.6069 162.31 74.5955C162.601 74.3683 162.962 74.603 162.758 73.7863ZM149.936 101.908L150.293 99.775C150.066 99.2843 149.313 101.322 149.588 101.908H149.936Z" fill="#AD1B1F"/>
<path d="M40.6291 77.3401C38.8141 77.1399 39.9642 77.7536 39.7202 78.4194C39.0683 80.1999 35.7718 79.3879 36.0158 78.2602L37.7786 76.8084L36.0037 74.8491L31.7284 101.551C33.0601 101.626 34.3694 101.327 35.6507 101.026C35.8966 100.968 39.4455 99.4093 38.1343 100.835C37.3809 101.654 32.2564 102.203 31.8094 102.707C30.0224 104.721 32.6634 113.049 33.5964 115.527C36.1238 122.237 40.44 128.853 45.2582 134.13C45.951 134.889 47.3143 135.016 47.035 136.444C46.4604 137.054 42.715 133.083 42.2252 132.534C39.2611 129.215 37.0103 125.252 34.8638 121.38L31.0179 110.81C31.1576 113.785 30.813 116.93 31.0179 119.884C31.6427 128.901 37.516 142.71 32.0236 150.807C27.8843 156.909 27.5705 151.728 26.0936 148.309C22.4245 139.818 18.8812 136.825 9.22253 139.043C6.37856 139.696 3.25337 142.215 1.73361 137.772C0.591926 134.435 4.56826 132.858 4.13897 131.062C3.98438 130.415 1.52781 128.76 0.813555 127.3C0.22502 126.096 -0.120464 124.998 0.0387759 123.628C0.956965 123.552 0.634761 123.567 0.739059 124.161C1.52501 128.664 2.22809 127.3 4.30752 130.214C6.27986 132.977 1.63583 134.069 2.24113 137.243C3.04664 141.473 6.31152 138.862 8.39094 138.211C13.6012 136.579 16.4982 135.894 21.1618 139.354C24.1594 141.578 25.8477 146.527 27.2706 149.981C27.4923 150.519 28.0501 152.736 28.173 152.821C28.8518 153.29 30.6091 151.409 31.0142 150.865C36.0502 144.113 31.2674 131.956 30.0587 124.405C28.9142 117.257 29.0157 110.112 30.3018 102.978C26.2472 103.15 20.6012 105.071 18.0412 108.338C17.5672 108.943 17.1575 110.528 16.5904 110.806C15.9637 111.112 15.8296 110.057 15.8836 109.694C16.4097 106.15 21.5352 103.701 24.6073 102.798C26.2872 102.304 28.2959 102.242 29.6937 101.831C30.1351 101.702 30.4536 101.382 30.5839 100.941L35.5939 73.9365C34.0239 70.7768 32.9362 67.7587 32.7993 64.166L34.0509 68.4283C34.7316 70.3848 37.4415 74.6144 39.0274 75.9135C39.6001 76.3865 40.7958 76.2981 40.6291 77.3401Z" fill="#AD1B1F"/>
<path d="M99.024 31.7653C100.896 33.2087 99.8686 36.4503 100.131 38.6694C100.646 43.0145 106.069 48.9707 110.401 49.7631C118.675 51.2764 123.007 45.2662 127.861 39.9545C127.696 40.8643 126.91 41.8021 126.375 42.5592C121.794 49.0545 115.741 53.0699 107.573 49.9243C107.891 51.147 107.195 52.5876 107.236 53.6361C107.278 54.6856 110.888 61.7397 111.667 62.3822C113.189 63.6384 118.857 61.4203 120.628 60.6678C123.805 59.3166 126.625 57.2958 129.571 55.5498L129.362 39.8502C129.963 38.7756 131.14 38.3677 131.98 37.4849C132.84 36.5816 132.886 36.4847 133.746 35.7007C135.192 34.382 137.225 30.4253 135.984 28.6336C134.719 26.8056 132.669 30.8918 132.486 31.0501C132.26 31.2447 131.641 31.2112 131.815 30.5584C132.321 28.6624 135.052 25.743 136.932 27.8606C139.917 31.2214 135.133 35.818 133.721 38.5111C133.338 39.2403 132.316 42.6663 132.133 42.8022C130.792 43.793 131.395 40.4555 131.778 39.9545L129.704 41.2322L130.907 55.6383C127.901 57.0519 125.306 59.1378 122.296 60.5561C120.1 61.5907 113.182 64.3704 111.157 62.8963L107.218 55.9791C106.942 57.2009 107.932 59.2216 106.503 59.7133C107.95 60.6464 108.704 64.2791 106.557 62.1541C105.576 61.1837 104.543 59.3166 103.82 58.1051C99.214 61.0636 93.3025 65.9916 87.6397 66.5066C86.5279 66.6081 85.4681 65.8706 86.4161 65.2029C86.8734 64.8807 91.7213 63.6384 93.0986 63.049C94.3753 62.5023 95.9016 61.7024 97.1271 61.0245C99.9692 59.4526 102.631 56.7669 105.789 56.3386C103.906 57.7158 104.927 57.4812 106.142 58.8268C105.578 56.4829 107.358 51.7886 106.866 49.82C106.806 49.5834 103.962 47.7089 103.15 46.6892C102.524 45.9032 99.0249 39.9899 99.0249 39.4209V31.7653H99.024Z" fill="#AD1B1F"/>
<path d="M71.0741 31.0524C72.9877 31.3094 76.1399 33.0359 77.5358 34.3815C87.5773 44.0579 85.7865 74.9859 86.9207 88.5539C87.4236 94.5705 88.6333 100.573 89.612 106.522C89.7256 107.03 89.3419 107.241 88.881 107.252C87.9861 107.275 85.9932 91.0337 85.8545 89.6201C84.5554 76.4172 85.3554 62.9451 82.8978 49.8492C81.1881 40.7371 77.0227 29.9303 65.726 31.7573L65.5547 31.0514C67.297 31.2172 69.3839 30.8251 71.0741 31.0524Z" fill="#AD1B1F"/>
<path d="M87.9804 135.023C86.4094 133.314 84.8552 131.843 82.2645 132.689C80.3788 133.306 81.2681 135.255 80.5352 136.298C79.7036 137.479 75.9452 137.61 75.5205 139.819C76.286 141.425 79.6682 140.088 80.1348 140.739C80.5166 141.272 78.8907 143.169 81.1209 143.503C82.4023 143.694 85.6933 141.722 86.3302 141.839C87.4505 142.045 86.7968 143.47 87.2447 143.762C88.4925 144.576 91.5954 142.022 91.8449 140.81C92.1737 139.218 89.6798 139.411 89.4675 138.355C89.2282 137.161 90.5971 137.162 91.2033 136.649C93.8322 134.427 88.3361 135.715 88.3873 134.188C88.4534 132.237 93.4718 132.243 94.0166 135.218C94.3481 137.032 93.4113 137.525 93.36 138.386C93.2585 140.096 94.4226 140.923 92.9671 143.034C91.6596 144.93 89.0392 146.167 86.7409 145.699C85.9214 145.533 85.7026 144.715 85.033 144.709C83.8466 144.701 81.7933 145.835 80.213 145.467C78.1196 144.979 78.2723 142.809 77.9632 142.548C77.1521 141.865 73.6236 143.13 74.0725 139.104C74.3817 136.329 78.778 136.462 79.3647 135.66C79.6245 135.304 79.5816 133.688 79.996 132.911C81.6033 129.902 87.6703 131.672 87.9804 135.023Z" fill="#AD1B1F"/>
<path d="M138.092 11.9143C137.99 11.6712 135.998 10.2278 135.577 9.98849C133.871 9.01722 131.923 8.52273 130.242 7.49093C128.064 6.15275 124.825 2.78357 122.461 2.09632C120.495 1.52455 112.925 1.66237 110.576 1.83558C109.555 1.91101 108.951 2.88321 107.568 2.21645L108.279 3.10485C107.589 3.91409 105.364 1.49848 105.45 1.00959C105.962 -0.194492 106.734 0.443384 107.318 0.300906C109.353 -0.197302 108.788 0.0727791 110.598 0.0755728C117.694 0.0876787 121.674 0.0355189 128.109 3.21287C131.486 4.8807 137.602 8.2983 139.065 11.8379C140.197 14.5757 136.728 20.2534 136.688 23.32C136.152 24.389 134.711 24.606 134.333 23.319C133.687 21.1195 138.958 13.9993 138.092 11.9143Z" fill="#AD1B1F"/>
<path d="M43.1245 96.2122C46.2926 95.1916 47.763 91.8737 47.7527 88.7382C48.3366 88.7261 48.4744 89.9618 48.4642 90.3325C48.3804 93.236 46.7358 96.3771 43.8323 97.2888C45.8167 98.693 44.1172 100.665 44.1908 100.999C44.2662 101.341 45.3939 101.713 45.773 102.284C46.4304 103.273 46.4732 105.864 45.8689 106.797C45.4489 107.445 42.8442 108.451 42.4587 106.997C41.9577 105.105 44.1303 105.214 44.5717 104.524C45.908 102.436 44.0018 102.609 43.3499 101.934C43.01 101.581 43.1916 101.009 43.0771 100.906C42.9271 100.77 41.6337 100.809 41.046 100.602C36.1208 98.8653 34.8972 96.0362 36.6907 91.0281L36.3527 86.2462C36.7959 86.1755 37.5316 85.8858 37.9236 86.2071C38.3995 86.5964 37.7979 87.4019 38.4861 87.3116C38.6165 86.4418 38.6593 84.7721 39.9127 84.8233C39.8112 88.8881 35.4475 93.3506 38.3334 97.2627C38.9825 98.1417 43.0473 100.808 43.8295 100.131C43.5604 98.8793 42.2836 98.2544 41.7882 97.0131C39.6352 91.6157 44.4758 88.1506 43.8146 83.9536C43.5864 82.5055 40.4203 79.7425 40.9846 79.127C41.3347 78.7452 43.9319 81.4243 44.1899 81.7931C47.5842 86.6373 41.3645 91.2227 43.1245 96.2122Z" fill="#AD1B1F"/>
<path d="M141.035 100.841C141.746 101.42 146.423 99.2316 146.02 101.016C145.734 102.284 140.647 102.338 140.321 102.624C140.249 102.686 141.242 103.792 139.788 104.046C138.189 104.325 130.133 104.198 128.835 103.607C126.967 102.758 126.781 101.656 123.944 102.625C123.604 104.21 126.252 102.471 126.792 102.981C126.162 104.74 125.98 106.464 125.728 108.318C128.892 107.442 132.117 107.764 135.338 107.253C135.513 108.329 135.069 107.821 134.474 107.971C132.418 108.489 130.729 108.118 128.794 108.36C127.216 108.557 125.09 110.446 124.661 108.124C124.42 106.822 125.259 105.399 125.016 104.045C119.409 104.399 122.298 101.823 125.727 101.549C125.337 100.348 123.176 100.873 123.237 99.4187C128.834 100.498 134.643 101.606 140.326 100.837C138.066 98.2836 135.783 95.5756 134.625 92.2958C134.25 92.0164 130.402 97.0227 129.288 96.9203L134.451 91.5908C134.885 91.5899 138.607 96.9649 139.267 97.804C140.089 98.8516 141.689 99.4243 141.035 100.841ZM132.49 102.27L127.862 101.558L129.116 102.615L132.49 102.27Z" fill="#AD1B1F"/>
<path d="M49.8812 26.7781C49.2666 26.7259 49.4714 25.9502 48.8065 25.5461C45.3098 23.4191 37.6206 30.1482 35.2767 32.6457C26.3956 42.1098 18.6981 71.2666 14.5402 84.5459C12.7122 90.3828 11.2465 96.366 9.38865 102.182C9.25083 102.614 9.12139 103.686 8.58594 103.688C12.4077 88.4338 17.1327 73.2874 22.2172 58.397C26.3258 46.3637 29.8551 32.9689 41.447 25.9977C43.8841 24.531 49.1073 22.7421 49.8812 26.7781Z" fill="#AD1B1F"/>
<path d="M124.3 134.669C124.095 137.261 125.491 138.33 127.501 139.481C128.446 140.022 131.707 140.822 130.916 142.146C130.136 143.449 127.013 142.543 125.79 142.261C122.745 141.558 120.075 140.012 117.183 138.942C116.554 139.569 119.913 143.046 120.035 143.743C120.18 144.57 119.738 144.237 119.232 144.194L116.111 143.925C115.53 146.369 119.721 150.985 118.288 152.975C117.452 154.135 111.081 150.757 110.463 152.698C110.149 153.686 111.051 155.685 109.349 155.675C107.901 148.197 113.736 152.323 117.891 152.469C118.421 151.97 115.039 146.036 115.069 144.486C115.113 142.266 117.174 143.661 118.603 143.037C117.162 141.403 115.547 139.429 115.402 137.162C119.165 136.961 122.152 139.68 125.725 140.361C124.629 138.97 123.043 137.758 123.231 135.733L118.606 136.088L121.546 135.65L124.3 134.669Z" fill="#AD1B1F"/>
<path d="M157.77 95.8584C154.797 104.459 150.819 112.931 150.646 122.205C149.006 120.93 150.451 118.233 150.291 116.51C149.641 116.857 149.494 117.924 149.022 118.619C148.781 118.975 148.04 119.069 147.858 119.592C147.215 121.451 148.12 126.622 148.172 128.778C148.286 133.414 148.157 138.017 148.519 142.647L147.448 142.859C146.821 132.803 146.866 122.63 147.805 112.594C148.401 112.499 148.194 113.459 148.172 113.849C148.108 114.978 147.63 116.062 147.805 117.221L148.336 116.866L156.273 96.6732L157.77 95.8584Z" fill="#AD1B1F"/>
<path d="M125.993 11.9182C126.994 12.8401 126.695 16.0882 127.202 16.4049C128.175 17.0139 131.415 15.4159 132.329 17.8604C132.758 19.0058 132.65 26.8309 132.226 27.7593C131.891 28.4941 131.067 29.0034 130.523 28.2156C130.028 27.4995 131.613 20.5898 131.017 18.4629C130.725 17.4199 127.658 19.124 126.274 17.5111C125.149 16.2009 126.231 13.275 125.394 12.6939C120.546 12.1985 114.798 13.0385 111.131 9.1543L125.993 11.9182Z" fill="#AD1B1F"/>
<path d="M73.6726 149.56C73.5748 149.729 71.8074 150.672 71.2943 151.625C69.4467 155.06 73.9715 153.309 75.522 154.071C77.079 154.838 74.8329 157.233 78.3818 156.221C79.3624 155.941 80.9883 154.367 81.4605 154.299C81.8562 154.241 82.6357 155.013 82.6357 155.141C82.6394 155.978 79.0989 157.916 78.108 158.081C73.7015 158.813 75.2184 156.046 74.4185 155.355C73.7927 154.813 69.5743 156.536 69.4439 152.996C69.3433 150.265 72.2972 149.003 72.3065 148.735C72.3102 148.63 71.4693 147.706 71.325 146.864C70.7067 143.251 74.8106 141.733 77.1303 144.275C77.959 145.184 77.7365 146.344 76.7689 145.706C75.8005 145.067 74.7147 143.396 73.1735 144.606C70.9329 146.364 74.3822 148.341 73.6726 149.56Z" fill="#AD1B1F"/>
<path d="M56.2914 43.8694L55.1926 40.5235C53.9196 37.5781 50.0932 37.0109 47.7707 39.0848C45.6997 40.9342 45.1316 46.0141 44.2022 48.6913C42.9134 52.4051 40.4792 58.5465 36 58.8222C36.461 57.9748 37.5058 58.0036 38.3188 57.4058C44.0067 53.218 42.4748 44.1749 45.8822 38.9768C49.69 33.1678 57.8512 37.3331 56.2914 43.8694Z" fill="#AD1B1F"/>
<path d="M57.0103 29.9849C59.803 26.7889 61.7856 26.9994 64.0671 30.58C64.5318 31.3091 65.2479 32.2795 64.2906 32.8307L56.5391 31.094C55.8825 30.6815 55.9403 29.2707 55.9356 28.5601C54.4876 29.2967 53.1429 32.9667 52.0152 29.9849C51.6762 29.6031 51.3074 31.6285 50.4256 31.4069C49.8957 31.2737 49.9506 29.2204 49.1777 29.984C49.0846 30.0762 49.0902 31.798 48.1152 32.3093C45.3895 33.7415 49.5623 25.4135 50.5308 28.453C50.6788 28.9159 50.3185 29.7102 50.9498 29.6264C51.3596 27.6168 52.9259 26.3298 53.2667 29.2707C55.1832 26.9389 57.4247 25.6072 57.0103 29.9849ZM63.7682 32.1211C64.1332 31.7356 61.0611 28.6998 60.6737 28.5983C59.8319 28.3776 59.3216 29.3051 58.7898 29.8117L63.7682 32.1211Z" fill="#AD1B1F"/>
<path d="M51.6658 34.966C38.6165 30.2289 43.5567 50.8612 32.084 50.9887C32.6735 50.1162 34.1569 50.0286 35.0527 49.5118C38.962 47.2545 38.745 42.6775 40.5656 39.002C42.7465 34.5973 47.1661 30.7364 51.6658 34.966Z" fill="#AD1B1F"/>
<path d="M107.921 5.41475C107.106 5.92972 105.201 4.61388 105.084 4.70607C104.907 4.84576 105.223 5.85707 103.856 5.78164C103.108 5.74067 102.64 4.96775 101.872 5.06273C101.712 5.6792 102.126 5.7742 102.402 6.13179C103.681 7.78845 105.842 9.28028 107.209 10.9379C106.658 11.5506 106.006 10.2972 105.426 10.5644C104.464 11.0058 103.75 13.1691 102.586 13.6068C102.502 12.629 104.804 10.9407 104.693 10.2739C104.538 9.33894 99.0459 6.7287 100.447 3.99461L104.36 5.05901C104.357 3.94153 102.954 4.0924 102.924 2.77658C102.892 1.34155 108.714 4.72844 107.921 5.41475Z" fill="#AD1B1F"/>
<path d="M82.2895 99.0573L81.2223 99.0638L77.6641 68.4395C78.8421 69.0643 78.8365 70.9817 79.0339 72.2286C80.4298 81.0362 80.3516 90.3019 82.2895 99.0573Z" fill="#AD1B1F"/>
<path d="M76.9449 106.897C77.7774 107.751 73.1511 117.184 71.0773 117.575C69.4653 117.261 72.4061 113.789 72.7349 113.187C73.3616 112.041 75.1197 107.805 75.7064 107.257C76.0454 106.941 76.727 106.671 76.9449 106.897Z" fill="#AD1B1F"/>
<path d="M132.136 123.988C132.664 124.471 128.663 129.046 128.039 129.324C127.883 129.394 127.455 129.415 127.511 129.151C127.865 128.633 130.443 126.647 129.998 126.123C125.321 129.694 121.084 124.899 116.117 126.475C116.72 125.615 118.541 125.383 119.498 125.38C122.735 125.366 124.265 127.163 127.854 125.934C129.394 125.407 130.517 124.036 132.136 123.988Z" fill="#AD1B1F"/>
<path d="M70.1812 145.354C69.6355 146.496 68.004 145.947 66.8967 146.16C65.2894 146.468 61.8448 147.416 60.7115 148.55C60.1276 149.134 60.6221 149.613 60.3968 149.966C59.5102 151.363 56.5508 150.623 59.135 148.367C61.6185 146.2 66.9554 144.522 70.1812 145.354Z" fill="#AD1B1F"/>
<path d="M63.4159 135.027C63.36 135.706 62.1513 135.512 61.8002 136.077C61.0664 137.259 62.5312 137.774 63.5276 137.529C63.9467 137.425 64.2633 135.595 65.5521 136.095L65.1983 137.869C65.8157 138.375 67.7573 135.536 68.0459 137.692C67.0179 138.355 65.6993 139.987 64.3853 139.602C64.0016 139.49 63.6785 138.919 63.1505 138.674C62.3273 138.291 61.2964 138.937 60.9826 137.25C60.7014 135.741 62.06 135.026 63.4159 135.027Z" fill="#AD1B1F"/>
<path d="M43.8755 55.2359C43.9816 55.3644 44.5944 55.0953 44.5422 55.4417C43.9565 56.6244 42.6118 56.4931 41.8603 57.0341C41.5251 57.2744 37.8886 61.1129 38.8767 58.6796C38.967 58.458 41.7839 56.1318 42.3967 55.4343C43.4462 54.2404 44.3234 52.838 45.3356 51.6078L47.3881 48.1465L46.9914 49.7026C46.9131 50.6012 43.6734 54.991 43.8755 55.2359Z" fill="#AD1B1F"/>
<path d="M14.6303 126.832L14.4375 125.391L20.3275 107.608C18.8943 114.106 16.0476 120.288 14.6303 126.832Z" fill="#AD1B1F"/>
<path d="M55.9343 47.076L54.4583 42.6824C53.5512 41.0528 52.2885 40.3916 50.9531 39.248C54.326 39.4417 56.005 44.1147 55.9343 47.076Z" fill="#AD1B1F"/>
<path d="M38.7495 84.0118C37.9971 84.7382 36.4056 84.5892 36.7623 83.2761C37.3508 81.1054 40.2404 82.5721 38.7495 84.0118Z" fill="#AD1B1F"/>
<path d="M71.2188 89.0586C70.5222 90.2301 68.8209 88.0659 69.4718 86.9587C70.8696 86.44 71.8287 88.0315 71.2188 89.0586Z" fill="#AD1B1F"/>
<path d="M100.087 24.6427C99.4306 24.395 99.7025 22.5604 99.7388 21.9775C99.8105 20.8209 99.9381 18.1669 100.8 17.5234L100.087 24.6427Z" fill="#AD1B1F"/>
<path d="M52.0185 44.9406L48.1055 42.0957C49.0628 41.6366 52.6266 44.3111 52.0185 44.9406Z" fill="#AD1B1F"/>
<path d="M70.7193 83.0385C71.8815 82.774 71.9876 85.2343 70.3626 84.8143C69.478 84.5862 70.3198 83.1298 70.7193 83.0385Z" fill="#AD1B1F"/>
<path d="M70.1823 80.9015C70.4877 80.4787 71.9423 80.5374 71.6014 81.789C71.2606 83.0368 69.5788 81.7359 70.1823 80.9015Z" fill="#AD1B1F"/>
<path d="M42.41 58.4736C42.0403 59.158 42.2117 59.767 41.3438 59.5361V58.4717L42.41 58.4736Z" fill="#AD1B1F"/>
<path d="M85.491 137.518C85.612 137.649 85.7154 138.85 84.9639 138.58C83.865 138.187 85.1455 137.145 85.491 137.518Z" fill="#AD1B1F"/>
<path d="M128.931 97.2849C128.757 97.9694 128.144 98.0867 127.509 97.9898C127.14 97.8176 128.467 97.1396 128.931 97.2849Z" fill="#AD1B1F"/>
<path d="M123.589 131.11H121.812V131.46H123.589V131.11Z" fill="#AD1B1F"/>
<path d="M93.4165 120.691C92.4694 119.743 93.6456 117.842 94.7835 118.093C97.6685 118.731 94.9549 122.231 93.4165 120.691Z" fill="#AD1B1F"/>
<path d="M105.139 113.571C105.992 113.824 107.77 113.407 108.308 114.253C109.728 116.485 106.87 119.27 105.467 117.006C104.839 115.992 105.167 114.293 104.715 113.132L105.139 113.571ZM106.009 114.4C104.419 114.903 106.737 118.61 107.751 116.503C108.35 115.256 107.256 114.006 106.009 114.4Z" fill="#AD1B1F"/>
</svg>
