<svg width="140" height="143" viewBox="0 0 140 143" fill="none" xmlns="http://www.w3.org/2000/svg">
<path d="M113.452 41.5963C114.305 40.7334 115.32 39.7608 114.205 38.0825C113.288 38.7129 112.43 39.3056 111.325 40.0654C111.14 37.2163 110.966 34.585 110.792 31.9209C108.448 31.9651 108.806 33.5157 108.749 34.6144C108.667 36.1978 108.816 37.7926 108.839 39.3826C108.842 39.543 108.664 39.7068 108.574 39.864C107.997 39.6118 107.472 39.3809 106.442 38.929C106.874 40.4518 107.172 41.5096 107.493 42.641C106.332 42.8457 105.261 43.0323 104.014 43.2518C104.048 43.9035 104.079 44.47 104.11 45.0447C105.158 45.2871 106.003 45.4852 106.799 45.6702C106.529 46.7656 106.288 47.7432 106.049 48.7207C106.226 48.8075 106.408 48.8959 106.586 48.9843C107.305 48.4145 108.02 47.8447 109 47.0686C109.139 47.9741 109.247 48.6241 109.338 49.2807C109.578 51.0573 109.792 52.8355 110.054 54.6072C110.167 55.3833 110.332 56.2004 111.696 55.6731C111.696 52.7749 111.696 49.7834 111.696 46.5069C112.854 47.0735 113.558 47.4157 114.262 47.7612C114.383 47.6531 114.506 47.545 114.629 47.4353C114.221 46.5626 113.812 45.6899 113.35 44.7025C114.182 44.4569 114.942 44.2342 115.608 44.0377C116.293 41.8829 114.035 42.7114 113.452 41.5963Z" fill="#AD1B1F"/>
<path d="M82.4111 6.78909C81.5826 7.03634 81.1405 7.16897 80.6607 7.31142C80.456 5.79027 80.2693 4.38537 80.0778 2.98047C79.8698 2.98047 79.6619 2.98047 79.4555 2.98047C77.9475 4.32151 79.0053 6.4747 78.1915 8.07281C77.7101 7.66182 77.3155 7.32452 76.6081 6.71868C76.6081 7.92709 76.6081 8.73924 76.6081 9.72169C75.1247 9.71514 74.319 10.303 74.4517 11.9437C75.2933 12.127 76.148 12.3153 76.9798 12.4955C76.875 13.6597 75.4799 14.4014 76.3559 15.9406C77.0109 15.3249 77.5594 14.8091 78.3192 14.0936C78.4404 15.7883 78.5419 17.3225 78.6696 18.8552C78.7531 19.8409 79.0708 20.5597 80.4888 20.0734C80.4888 18.6488 80.4888 17.2341 80.4888 15.844C81.1994 15.7441 81.702 15.6737 82.4258 15.5738C81.8314 14.426 81.332 13.4664 80.8506 12.5397C81.9362 11.5163 84.2335 12.6379 84.3546 10.0836C83.3591 9.82812 82.3882 9.57924 81.4008 9.32708C81.7332 8.49527 82.0148 7.78627 82.4111 6.78909Z" fill="#AD1B1F"/>
<path d="M19.6959 62.3668C18.7789 62.9366 18.0683 63.3787 17.212 63.9109C17.0106 61.3189 16.8304 59.0003 16.6503 56.685C16.354 56.6785 16.0576 56.6719 15.7612 56.667C15.4927 58.4403 15.2258 60.2153 14.9049 62.3423C14.2696 61.8216 13.8291 61.4613 13.3886 61.1011C13.2331 61.1486 13.0808 61.1961 12.9253 61.2419C13.0284 62.1703 13.1332 63.0987 13.2347 64.0239C9.6439 64.6395 9.6439 64.6395 9.20508 66.4112C11.0946 66.552 12.9253 66.6879 14.8705 66.832C14.0502 68.4023 13.3526 69.7351 12.6534 71.0696C12.8254 71.1908 12.9957 71.312 13.166 71.4315C13.8422 70.9452 14.5168 70.4589 15.2471 69.9316C15.9233 71.3234 14.9671 73.2343 17.0106 74.3019C17.1481 72.3386 17.2676 70.6177 17.4084 68.5906C18.7724 69.5763 19.7925 70.3115 20.8126 71.0467C20.937 70.919 21.0615 70.7897 21.1859 70.6619C20.3476 69.4339 19.5125 68.2058 18.5923 66.8566C20.0463 66.3866 21.6215 66.9761 22.4058 65.1111C21.4954 64.7443 20.6587 64.4103 19.7843 64.0599C19.7597 63.5818 19.7335 63.084 19.6959 62.3668Z" fill="#AD1B1F"/>
<path d="M91.6438 36.7773C90.8742 36.7773 90.252 37.3996 90.252 38.1691C90.252 38.9371 90.8742 39.5609 91.6438 39.5609C92.4133 39.5609 93.0356 38.9371 93.0356 38.1691C93.0356 37.3996 92.4133 36.7773 91.6438 36.7773Z" fill="#AD1B1F"/>
<path d="M69.0374 0C68.0746 0 67.2969 0.777776 67.2969 1.73893C67.2969 2.69846 68.0746 3.47622 69.0374 3.47622C69.9953 3.47622 70.7763 2.69682 70.7763 1.73893C70.7747 0.777776 69.9953 0 69.0374 0Z" fill="#AD1B1F"/>
<path d="M1.74056 81.4619C0.779408 81.4619 0 82.2397 0 83.2008C0 84.1604 0.77777 84.9398 1.74056 84.9398C2.70008 84.9398 3.47947 84.1604 3.47947 83.2008C3.47947 82.2397 2.69844 81.4619 1.74056 81.4619Z" fill="#AD1B1F"/>
<path d="M100.983 51.6836C99.7825 51.6836 98.8066 52.6562 98.8066 53.8564C98.8066 55.0567 99.7825 56.0309 100.983 56.0309C102.183 56.0309 103.156 55.0567 103.156 53.8564C103.157 52.6562 102.185 51.6836 100.983 51.6836Z" fill="#AD1B1F"/>
<path d="M122.496 36.0322C121.594 36.0322 120.863 36.7609 120.863 37.6614C120.863 38.562 121.594 39.2923 122.496 39.2923C123.396 39.2923 124.125 38.562 124.125 37.6614C124.125 36.7625 123.396 36.0322 122.496 36.0322Z" fill="#AD1B1F"/>
<path d="M13.5959 93.3763C12.6151 92.6657 11.3199 92.7443 10.3162 93.3321C10.2212 93.1422 9.93303 93.0586 9.75946 93.2306C7.3836 95.5852 11.0988 99.9669 13.8087 97.871C15.1907 96.8018 14.9402 94.3538 13.5959 93.3763ZM12.6249 96.6888C12.1059 97.162 11.2446 96.3482 10.9318 95.9978C10.6076 95.6326 10.3882 95.1529 10.2949 94.6584C10.3227 94.642 10.3505 94.6322 10.3784 94.6093C10.9973 94.0673 11.8668 93.9003 12.5872 94.3325C13.4027 94.8189 13.2307 96.1386 12.6249 96.6888Z" fill="#AD1B1F"/>
<path d="M100.911 22.2374C99.8404 22.0246 98.6533 22.7729 97.7511 23.2461C97.5104 23.3722 97.5055 23.6112 97.6185 23.7848C97.3352 23.7946 97.0634 23.865 96.8276 24.1123C96.2922 24.6706 96.3315 25.8725 96.4396 26.5651C96.7048 28.2991 98.2538 29.1833 99.8961 28.5873C101.558 27.9815 102.472 26.1623 102.439 24.4791C102.416 23.3935 102.098 22.4732 100.911 22.2374ZM101.032 24.7312C100.939 25.6465 100.322 26.4882 99.531 26.9434C98.953 27.2741 98.3127 27.2103 98.0966 26.5324C97.946 26.0575 97.9656 25.4942 97.9787 24.9932C98.0066 24.9866 98.0262 24.9801 98.0802 24.9621C98.3291 24.8835 98.5632 24.7885 98.8203 24.723C99.1838 24.6313 99.1854 24.0812 98.8203 23.9911C98.6648 23.9534 98.5076 23.9076 98.3471 23.8667C98.9235 23.5916 99.5064 23.3165 100.143 23.2314C101.181 23.0938 101.103 24.0189 101.032 24.7312Z" fill="#AD1B1F"/>
<path fill-rule="evenodd" clip-rule="evenodd" d="M59.0312 39.0934C59.0607 39.0786 59.0836 39.0705 59.1115 39.0574C59.1246 39.023 59.136 38.9902 59.136 38.9902L59.0312 39.0934Z" fill="#AD1B1F"/>
<path fill-rule="evenodd" clip-rule="evenodd" d="M139.869 99.9459C139.245 91.8981 137.028 84.4217 132.209 77.895C126.735 70.4808 118.933 67.1896 110.047 66.6296C103.185 66.1957 96.2667 66.3873 89.5304 68.3014C88.5447 68.583 87.1906 68.6534 86.3506 68.1966C80.1645 64.8317 73.6903 62.6769 66.561 62.8603C66.3138 62.8668 66.0599 62.7293 65.7145 62.6343C65.7914 62.2921 65.8062 62.0187 65.911 61.7845C67.7056 57.8023 69.338 53.7596 69.79 49.373C69.8882 48.4216 69.7736 47.1608 69.2169 46.4846C67.347 44.1955 65.2593 42.0783 63.2027 39.948C61.729 38.422 60.6959 38.2402 59.1141 39.0556C59.1027 39.0867 59.0912 39.1195 59.0912 39.1195C58.3233 38.8837 57.5209 38.3663 56.7923 38.4531C54.1888 38.7658 51.6034 39.2538 49.0261 39.7565C48.6217 39.835 48.2058 40.269 47.9536 40.6456C45.5237 44.2839 43.3509 48.0663 42.077 52.2793C41.8772 52.9409 41.8985 53.9118 42.2522 54.4538C43.603 56.517 45.0619 58.5179 46.6142 60.4353C47.9323 62.0645 49.4354 63.5431 51.0614 65.3131C49.7498 65.9108 48.7838 66.4135 47.7768 66.8015C42.4994 68.827 39.2214 73.2513 35.4995 77.1025C31.108 81.6479 28.7911 87.3887 26.8524 93.2719C24.3472 100.866 24.8041 108.362 28.521 115.416C32.3787 122.739 37.6871 128.851 45.0292 132.981C47.7015 134.484 50.4441 135.699 53.5388 136.121C58.7391 136.833 63.9051 136.491 69.0695 135.854C69.7392 135.772 70.368 135.345 71.0279 135.072C69.6066 132.132 68.9107 131.815 66.2188 132.629C65.3624 132.887 64.4881 133.277 63.6202 133.28C58.7342 133.297 53.9121 132.498 49.6369 130.171C44.335 127.286 39.8076 123.272 35.9384 118.639C31.8924 113.79 29.8129 107.994 28.7502 101.844C28.4833 100.308 28.4227 98.6164 28.7797 97.1181C30.7986 88.6364 33.5707 80.636 40.6475 74.6611C43.5572 72.2066 46.4816 70.0108 49.9201 68.5421C54.6309 66.5297 59.6545 66.0238 64.7255 66.0074C74.17 65.973 82.709 68.3112 89.7368 75.0999C94.947 80.1333 98.2594 85.8986 98.9619 93.2686C99.9476 103.566 97.5013 112.641 90.4539 120.314C88.9737 121.923 87.2757 123.33 85.5974 124.907C84.371 123.911 83.4017 123.12 82.6779 122.527C84.6805 120.536 86.7157 118.937 88.2156 116.936C91.0663 113.135 92.2682 108.601 92.6693 103.943C93.2195 97.5766 92.4385 91.379 89.6303 85.5171C87.2004 80.4526 82.9972 77.1188 78.6843 73.8407C76.4624 72.1558 74.0275 71.198 71.2571 70.9196C67.3388 70.5283 63.522 71.0162 59.7936 72.1591C58.0809 72.6847 56.455 73.4952 54.7898 74.178C54.8389 74.3107 54.8929 74.4433 54.9404 74.5743C61.6963 72.1084 68.4375 70.4759 75.2785 74.7413C74.9805 75.1114 74.8463 75.3652 74.6399 75.5158C68.8517 79.7207 65.292 85.4123 63.3615 92.2321C60.6746 101.727 61.2935 110.974 65.3035 119.993C65.9716 121.498 66.5954 123.025 67.2733 124.62C66.8738 124.802 66.5823 125.002 66.2663 125.067C60.2898 126.262 54.6686 125.357 49.6385 121.859C43.4589 117.566 39.5734 111.709 38.0981 104.265C37.0878 99.1731 36.9241 94.1561 38.2438 89.0687C39.1935 85.4172 41.1289 82.3602 43.192 79.3162C43.6341 78.6629 43.9076 77.8917 44.258 77.1745C44.0861 77.0746 43.9141 76.9747 43.7439 76.8732C41.9575 77.8131 40.6623 79.3015 39.5063 80.9406C36.8504 84.7 35.3784 88.8738 34.8806 93.4569C33.908 102.397 35.7452 110.65 40.6655 118.187C43.3836 122.349 47.5115 124.71 51.7818 126.935C55.4938 128.867 59.3908 129.339 63.4172 128.648C65.1447 128.352 66.7788 127.523 68.4882 126.926C68.8452 127.225 69.2267 127.435 69.4641 127.754C73.5396 133.29 79.1084 136.855 85.3747 139.273C88.4432 140.459 91.831 140.783 95.0075 141.718C100.601 143.363 106.242 143.106 111.879 142.278C115.752 141.71 119.215 140.005 122.547 137.945C126.935 135.237 130.564 131.72 133.108 127.333C137.994 118.907 140.639 109.849 139.869 99.9459ZM60.7908 41.9964C63.1781 44.3281 65.5295 46.2324 66.674 49.3893C65.428 50.0983 64.5601 50.5944 63.8331 51.0087C62.3578 48.8572 61.0086 46.889 59.548 44.7587C59.8804 44.0219 60.2603 43.1754 60.7908 41.9964ZM52.3107 40.7766C54.3869 40.1396 56.5516 39.7859 59.1387 39.2341C58.9094 40.5702 58.731 41.6198 58.5721 42.5581C56.2339 43.1688 53.8777 42.6661 52.3795 45.2008C51.9259 44.1414 51.3774 43.421 51.3774 42.7005C51.3741 42.0357 51.8261 40.9256 52.3107 40.7766ZM48.8787 42.1372C53.2801 46.0932 50.765 49.7594 49.5648 53.7759C47.8603 52.9556 46.2982 52.2024 44.4135 51.2953C45.9118 48.2218 47.3576 45.2565 48.8787 42.1372ZM54.5163 64.2668C51.0401 61.5684 47.7899 58.6374 45.1258 54.4407C47.1709 54.7846 48.8165 55.0613 50.3802 55.3249C52.016 58.2068 53.5732 60.9445 55.127 63.6823C54.924 63.8771 54.7193 64.072 54.5163 64.2668ZM56.3993 62.1104C55.2433 59.9293 53.9547 57.8187 52.6186 55.5018C55.2777 54.9254 57.7551 54.39 60.3864 53.8201C59.2009 52.0305 59.2009 52.0305 52.5187 53.3781C51.5346 50.7336 53.4831 48.3545 53.1016 45.7887C54.6473 45.4235 56.044 45.096 57.5979 44.7309C58.4673 46.1833 59.4023 47.6209 60.2095 49.1241C60.966 50.5372 61.5882 52.0239 62.3267 53.6073C61.4212 56.6119 60.465 59.7787 59.4727 63.0584C58.1923 63.8476 57.1967 63.62 56.3993 62.1104ZM62.0565 62.5868C61.9272 62.5492 61.7962 62.5115 61.6668 62.4722C62.3513 59.4921 63.039 56.5121 63.8478 52.9933C64.4389 52.6052 65.4967 51.9093 66.5544 51.215C66.7198 51.3362 66.8787 51.4557 67.044 51.5769C65.3804 55.2463 63.7201 58.9174 62.0565 62.5868ZM131.029 123.782C128.374 127.793 125.198 131.356 121.021 133.876C116.037 136.883 110.661 139.128 104.879 139.471C101.231 139.688 97.4915 138.648 93.8188 138.021C84.4971 136.429 77.1484 131.26 71.149 124.355C67.3191 119.949 65.1037 114.424 64.3882 108.511C63.3681 100.083 64.6633 92.0635 69.153 84.7361C71.2063 81.3876 74.1471 78.8823 77.43 76.5277C85.468 83.1085 90.4032 91.1613 89.9381 101.765C89.6074 109.266 85.7448 115.018 80.0302 119.929C75.5913 115.354 72.6374 110.378 72.0414 104.054C71.4552 97.8452 73.9719 92.5219 76.7096 86.9269C74.9183 87.0792 74.1897 88.1402 73.7296 89.0687C72.3247 91.8997 70.7413 94.7406 69.9554 97.7666C68.02 105.23 69.6426 112.303 73.9752 118.513C77.2205 123.159 81.5579 126.822 86.2049 130.186C91.3987 133.943 97.4047 134.427 103.301 135.219C106.674 135.674 110.109 134.628 113.473 133.023C112.783 132.417 112.282 131.975 111.894 131.635C105.742 131.671 99.6938 132.047 93.9236 129.94C91.7524 129.146 89.7662 127.839 87.2626 126.542C88.5611 125.596 89.3732 124.885 90.2918 124.358C96.1701 120.957 99.0028 115.459 100.738 109.225C102.942 101.303 103.06 93.3799 100.521 85.4909C98.8063 80.1759 95.9998 75.5928 91.5641 72.092C91.3103 71.8906 91.1334 71.586 90.6144 70.9589C97.6732 69.8406 104.29 68.6862 110.977 69.9421C114.278 70.561 117.638 71.3666 120.68 72.7322C125.484 74.8887 129.277 78.3403 131.933 83.0561C134.559 87.7096 136.298 92.612 136.981 97.873C138.194 107.231 136.232 115.909 131.029 123.782Z" fill="#AD1B1F"/>
<path fill-rule="evenodd" clip-rule="evenodd" d="M126.126 86.6476C122.926 82.5475 118.883 79.4364 114.148 77.2947C110.474 75.6327 106.693 74.3719 102.532 75.2365C101.263 75.5001 100.767 76.1141 101.101 77.6762C102.195 77.6418 103.254 77.6091 104.312 77.5763L104.203 77.4961C104.203 77.4961 104.288 77.5305 104.293 77.5338C104.833 77.6697 105.362 77.8236 105.902 77.9267C110.759 78.8486 115.114 80.9887 118.865 84.0785C129.849 93.1317 130.907 107.516 124.454 119.042C122.736 122.109 120.627 124.958 118.662 127.963C118.939 128.426 119.204 128.868 119.461 129.294C122.194 128.045 124.549 126.126 125.764 124.159C128.295 120.052 130.101 115.618 130.938 110.894C132.138 104.127 131.175 97.5085 128.659 91.1439C128.032 89.5556 127.174 87.9919 126.126 86.6476Z" fill="#AD1B1F"/>
<path fill-rule="evenodd" clip-rule="evenodd" d="M32.318 39.4584C33.5296 40.0659 34.7921 40.585 36.066 41.05C37.3186 41.5085 38.7611 42.0897 40.1283 41.9702C40.4787 41.9391 40.6015 41.5609 40.3789 41.3087C39.5323 40.3475 38.1962 39.7875 37.0566 39.2799C35.7336 38.6921 34.3696 38.1567 32.9844 37.731C31.9659 37.4199 31.383 38.9869 32.318 39.4584Z" fill="#AD1B1F"/>
<path fill-rule="evenodd" clip-rule="evenodd" d="M46.5073 30.48C47.1541 31.8849 47.8647 33.9612 49.2401 34.8388C49.4399 34.9649 49.7755 34.8306 49.8083 34.5883C50.0146 32.9984 48.9454 31.1825 48.2937 29.8022C47.4979 28.114 46.8364 26.1884 45.7213 24.682C45.1859 23.9582 44.0856 24.4462 44.2985 25.3337C44.7242 27.1184 45.7459 28.823 46.5073 30.48Z" fill="#AD1B1F"/>
<path fill-rule="evenodd" clip-rule="evenodd" d="M61.0664 30.7299C61.7803 29.9128 62.1275 28.8648 62.5286 27.8693C62.9642 26.7952 63.3342 25.7227 63.4554 24.5683C63.5602 23.5793 62.1553 23.1617 61.9064 24.1933C61.4381 26.1304 59.7941 28.6274 60.5703 30.6169C60.6489 30.8117 60.9141 30.9083 61.0664 30.7299Z" fill="#AD1B1F"/>
<path fill-rule="evenodd" clip-rule="evenodd" d="M30.8623 50.5758C29.7947 50.6429 29.8438 52.2345 30.9131 52.2345C31.7711 52.2329 36.3034 52.5653 36.2641 51.2406C36.2231 49.9143 31.7187 50.525 30.8623 50.5758Z" fill="#AD1B1F"/>
<path fill-rule="evenodd" clip-rule="evenodd" d="M67.9902 39.1885C68.7925 38.8267 69.5637 38.4975 70.2776 37.9686C71.2535 37.2482 72.1066 36.3984 73.035 35.6239C73.7849 34.9984 72.7615 33.8244 71.9707 34.3287C70.1745 35.47 68.7074 36.8847 67.5628 38.6613C67.3975 38.92 67.6971 39.3212 67.9902 39.1885Z" fill="#AD1B1F"/>
<path fill-rule="evenodd" clip-rule="evenodd" d="M60.4026 33.4414C60.45 33.0272 60.6776 32.685 60.6334 32.256C60.617 32.1168 60.473 31.9907 60.3305 32.0185C59.7427 32.1332 59.3448 32.5163 59.1434 33.0763C58.8061 34.0145 60.2945 34.3731 60.4026 33.4414Z" fill="#AD1B1F"/>
<path fill-rule="evenodd" clip-rule="evenodd" d="M74.8565 34.1692C75.2921 33.827 75.4951 33.5175 75.5999 32.9772C75.6359 32.7938 75.5262 32.6088 75.3609 32.5302C74.9941 32.3566 74.3276 32.8396 74.0444 33.0263C73.283 33.5241 74.1475 34.7292 74.8565 34.1692Z" fill="#AD1B1F"/>
<path fill-rule="evenodd" clip-rule="evenodd" d="M28.6497 38.209C29.0165 38.4644 29.5241 38.5954 29.9629 38.489C30.1463 38.4448 30.3461 38.43 30.5115 38.3269C30.6081 38.2646 30.685 38.1828 30.7423 38.0812C30.6212 38.2057 30.6048 38.2319 30.6948 38.1582C30.9044 37.9977 30.9765 37.6866 30.7603 37.4918C30.7341 37.4705 30.7112 37.4459 30.6883 37.4214C30.4623 37.0759 30.0301 36.9433 29.7353 36.7091C28.6154 35.8265 27.479 37.6817 28.6497 38.209Z" fill="#AD1B1F"/>
</svg>
