<svg width="12" height="16" viewBox="0 0 12 16" fill="none" xmlns="http://www.w3.org/2000/svg">
<path d="M5.42745 0.00211271C5.96845 0.149113 6.29446 0.562115 6.49246 1.02611C7.39746 3.14111 8.58846 5.01212 10.5745 6.29812C11.1485 6.66912 11.1325 7.15012 10.7345 7.78712C9.54546 9.69112 8.30646 11.5781 7.61346 13.7491C7.38146 14.4771 6.97646 15.0671 6.06646 15.0211C5.27946 14.9811 4.95746 14.4611 4.70446 13.8101C3.99046 11.9711 2.67545 10.6791 1.03445 9.61712C-0.30355 8.75212 -0.310556 8.14112 0.822444 7.07812C2.34344 5.65212 3.47444 4.00611 3.96844 1.94811C4.08544 1.46011 4.31346 0.989112 4.55346 0.545112C4.72446 0.228112 5.00545 -0.0258873 5.42745 0.00211271ZM8.47344 7.93012C8.51944 7.54712 8.16345 7.48212 7.95745 7.32412C7.07745 6.64912 6.35845 5.83212 5.87045 4.84512C5.40545 3.90312 5.10345 4.30311 4.76345 4.90711C4.62145 5.16011 4.47946 5.41811 4.29846 5.64211C3.70746 6.37311 2.64845 7.06512 2.60845 7.81712C2.55845 8.76212 4.01247 9.05812 4.59747 9.87612C5.01247 10.4561 5.54147 10.9541 6.01947 11.4891C6.48447 10.8471 6.96844 10.2171 7.40844 9.55912C7.77044 9.01912 8.30144 8.59112 8.47344 7.93012Z" fill="#3A5220"/>
</svg>
