<svg width="33" height="32" viewBox="0 0 33 32" fill="none" xmlns="http://www.w3.org/2000/svg">
<path d="M32.0575 9.69294C31.8825 9.96094 31.6775 10.3509 31.4025 10.6809C29.4305 13.0499 27.6365 15.5069 26.9105 18.5929C26.7885 19.1109 26.5115 19.7559 25.7655 19.7409C25.0235 19.7249 24.7895 19.0879 24.6665 18.5519C23.8265 14.8839 21.4065 12.6289 18.1295 11.1299C17.5505 10.8649 17.0995 10.5369 17.0825 9.86994C17.0605 9.00894 17.7955 9.06993 18.3275 8.96793C22.4235 8.18493 23.9255 5.20594 24.6385 1.55294C24.6805 1.33894 24.6635 1.11094 24.7195 0.901937C24.8375 0.466937 25.0465 0.0509269 25.5425 0.0039269C26.0635 -0.0450731 26.3325 0.37294 26.4645 0.78594C26.6405 1.33794 26.7405 1.91893 26.8185 2.49593C27.1335 4.82193 28.2855 6.57293 30.3275 7.74593C30.7685 7.99893 31.1745 8.31894 31.5725 8.63894C31.8575 8.86694 32.0875 9.15494 32.0575 9.69294ZM25.5005 15.0619C25.9605 15.0879 25.9745 14.7129 26.1155 14.4939C26.9885 13.1409 27.9025 11.8239 29.2055 10.8379C29.6855 10.4739 29.6715 10.2239 29.1345 9.91494C27.5805 9.01994 26.3105 7.82093 25.6145 6.14293C25.1195 4.95093 24.8885 5.69794 24.6105 6.22094C23.8055 7.73494 22.7965 9.04093 21.1335 9.68793C20.3615 9.98793 20.4745 10.3129 21.0715 10.6889C22.6985 11.7139 24.0105 13.0709 25.1615 14.5949C25.2835 14.7579 25.4005 14.9249 25.5005 15.0619Z" fill="#3A5220"/>
<path d="M5.42745 16.5928C5.96845 16.7398 6.29446 17.1528 6.49246 17.6168C7.39846 19.7318 8.58846 21.6028 10.5745 22.8888C11.1485 23.2608 11.1325 23.7408 10.7345 24.3778C9.54546 26.2818 8.30646 28.1688 7.61346 30.3398C7.38146 31.0668 6.97646 31.6578 6.06646 31.6118C5.27946 31.5718 4.95746 31.0518 4.70446 30.4008C3.99046 28.5618 2.67545 27.2698 1.03445 26.2078C-0.30355 25.3428 -0.310556 24.7318 0.822444 23.6688C2.34344 22.2428 3.47444 20.5968 3.96844 18.5388C4.08544 18.0508 4.31346 17.5798 4.55346 17.1358C4.72446 16.8188 5.00545 16.5658 5.42745 16.5928ZM8.47344 24.5218C8.51944 24.1388 8.16345 24.0738 7.95745 23.9158C7.07745 23.2408 6.35845 22.4238 5.87045 21.4368C5.40545 20.4948 5.10345 20.8948 4.76345 21.4988C4.62145 21.7518 4.47946 22.0098 4.29846 22.2338C3.70746 22.9648 2.64845 23.6568 2.60845 24.4088C2.55845 25.3538 4.01244 25.6488 4.59744 26.4678C5.01244 27.0478 5.54147 27.5458 6.01947 28.0808C6.48447 27.4388 6.96845 26.8088 7.40945 26.1508C7.77045 25.6108 8.30144 25.1828 8.47344 24.5218Z" fill="#3A5220"/>
</svg>
