<svg width="10" height="14" viewBox="0 0 10 14" fill="none" xmlns="http://www.w3.org/2000/svg">
<path fill-rule="evenodd" clip-rule="evenodd" d="M7.64726 11.9202C7.82726 12.2152 8.01427 12.5012 8.18627 12.7992C8.45727 13.2682 9.29624 12.9472 9.08324 12.4212C9.06724 12.3812 9.04826 12.3452 9.03026 12.3052C9.03226 12.3052 9.03229 12.3042 9.03429 12.3042C9.03029 12.2962 9.02425 12.2892 9.02025 12.2832C8.31125 10.5742 7.39325 9.04321 6.25725 7.57921C6.16025 7.45721 6.06825 7.3402 5.98125 7.2292C6.72725 6.6462 7.45029 6.03521 8.12029 5.35921C8.50729 5.16321 8.9093 4.98521 9.3413 4.84221C9.9173 4.65421 9.67828 3.75823 9.08928 3.93123C9.08128 3.93323 9.07327 3.9382 9.06627 3.9402C9.01327 3.7472 8.86325 3.58923 8.61125 3.58623C7.64825 3.57623 6.68826 3.5302 5.72826 3.4712C5.68926 2.7232 5.60627 2.0032 5.40227 1.2462C5.38127 1.1672 5.33426 1.10921 5.28026 1.06221C5.22626 0.820208 5.18928 0.579204 5.12828 0.333204C5.02428 -0.0887959 4.30426 -0.132796 4.23326 0.333204C4.09926 1.2092 3.90327 2.27322 3.79827 3.33122C2.68127 3.23522 1.56525 3.1272 0.447253 3.0092C-0.0157473 2.9592 -0.104732 3.53322 0.113268 3.81422C1.00927 4.96722 1.90026 6.15521 2.84026 7.29921C2.69526 7.91221 2.42226 8.4802 2.02526 8.9882C1.46526 9.4322 0.915288 9.8882 0.396288 10.3842C-0.0197116 10.7812 0.514283 11.4552 1.00328 11.1702C1.69828 10.7642 2.26326 10.2712 2.71526 9.71721C3.15326 9.37021 3.59728 9.0282 4.04528 8.6952C5.13028 9.8972 6.30726 11.0072 7.64726 11.9202ZM5.74828 4.45622C6.33528 4.49522 6.92426 4.52321 7.51226 4.54521C7.47926 4.57921 7.44927 4.61721 7.41527 4.64921C6.82627 4.97221 6.2683 5.34723 5.7423 5.78023C5.7343 5.39123 5.7213 5.0032 5.7033 4.6172C5.7283 4.5702 5.74028 4.51722 5.74828 4.45622ZM1.4923 4.06721C1.8963 4.11221 2.30125 4.15723 2.70525 4.19823C2.66825 4.28823 2.65429 4.39322 2.69329 4.51622C2.84329 4.99222 2.91624 5.45522 2.94524 5.90822C2.45424 5.29822 1.9713 4.68421 1.4923 4.06721Z" fill="#AD1B1F"/>
</svg>
