<svg width="20" height="41" viewBox="0 0 20 41" fill="none" xmlns="http://www.w3.org/2000/svg">
<path d="M3.73773 16.8164C2.20719 15.4147 0.388414 13.8389 2.14 10.8642C3.76008 11.8614 5.27944 12.7996 7.23249 14.0046C7.29404 9.10583 7.35563 4.58344 7.41719 0.00487552C11.4212 -0.129953 10.9483 2.56099 11.1442 4.43736C11.424 7.14237 11.312 9.88671 11.4156 12.6142C11.424 12.8895 11.743 13.1535 11.9137 13.4147C12.8734 12.9316 13.7491 12.4878 15.4672 11.6226C14.8656 14.2687 14.4515 16.1085 14.0066 18.0748C16.0072 18.3191 17.8511 18.5438 20 18.8107C19.9972 19.9287 19.9973 20.9034 19.9973 21.8921C18.2289 22.4033 16.8047 22.8162 15.4644 23.2039C16.024 25.055 16.5193 26.7094 17.0173 28.3639C16.7235 28.5296 16.4213 28.6982 16.1247 28.8639C14.8488 27.951 13.5757 27.0381 11.8381 25.7965C11.6786 27.3611 11.5527 28.4847 11.4548 29.6139C11.2029 32.6784 10.9959 35.7458 10.7049 38.8047C10.5818 40.1446 10.3719 41.5575 7.99639 40.7766C7.73896 35.8132 7.47031 30.6869 7.18211 25.0746C5.25704 26.1476 4.08747 26.7993 2.91508 27.451C2.69684 27.274 2.47856 27.1027 2.26031 26.9257C2.88148 25.3948 3.49992 23.8612 4.19944 22.128C2.75843 21.7797 1.44332 21.468 0.28772 21.1899C-1.08333 17.5607 2.84235 18.7798 3.73773 16.8164Z" fill="#AD1B1F"/>
</svg>
