<svg width="20" height="27" viewBox="0 0 20 27" fill="none" xmlns="http://www.w3.org/2000/svg">
<path d="M4.10767 8.72676C5.49674 9.59918 6.57326 10.2735 7.87054 11.0908C8.17316 7.11977 8.44846 3.57496 8.72131 0.0250941C9.17276 0.0200802 9.61924 0.00501393 10.0682 0C10.475 2.71254 10.8818 5.43008 11.3655 8.68663C12.3279 7.89443 12.9927 7.3404 13.6624 6.78636C13.8981 6.85906 14.1287 6.93427 14.3644 7.00196C14.2081 8.42591 14.0494 9.84737 13.8956 11.2613C19.3352 12.2064 19.3352 12.2064 20 14.919C17.1375 15.1346 14.3644 15.3401 11.4176 15.5607C12.6603 17.9649 13.717 20.0056 14.7737 22.0488C14.5157 22.2343 14.2577 22.4198 13.9948 22.6078C12.9729 21.8583 11.9509 21.1136 10.8446 20.3114C9.8202 22.4423 11.2687 25.3705 8.17311 27C7.96475 23.9992 7.78622 21.3593 7.5729 18.2607C5.50419 19.7699 3.95883 20.8956 2.41598 22.0162C2.22746 21.8207 2.03895 21.6251 1.85044 21.4296C3.12044 19.5493 4.38296 17.6691 5.77946 15.6034C3.57432 14.8839 1.18566 15.7839 0 12.936C1.38162 12.3719 2.64664 11.8579 3.97369 11.324C4.01089 10.5869 4.05062 9.8223 4.10767 8.72676Z" fill="#AD1B1F"/>
</svg>
