<svg width="21" height="21" viewBox="0 0 21 21" fill="none" xmlns="http://www.w3.org/2000/svg">
<path d="M14.1683 11.8455C14.6893 11.3185 15.3093 10.7245 14.6283 9.69952C14.0683 10.0845 13.5443 10.4465 12.8693 10.9105C12.7563 9.17052 12.6503 7.56352 12.5443 5.93652C11.1123 5.96352 11.3313 6.91052 11.2963 7.58152C11.2463 8.54852 11.3373 9.52252 11.3513 10.4935C11.3533 10.5915 11.2443 10.6915 11.1893 10.7875C10.8373 10.6335 10.5163 10.4925 9.88727 10.2165C10.1513 11.1465 10.3333 11.7925 10.5293 12.4835C9.8203 12.6085 9.1663 12.7225 8.4043 12.8565C8.4253 13.2545 8.44429 13.6005 8.46329 13.9515C9.10329 14.0995 9.61929 14.2205 10.1053 14.3335C9.94029 15.0025 9.79328 15.5995 9.64728 16.1965C9.75528 16.2495 9.86628 16.3035 9.97528 16.3575C10.4143 16.0095 10.8513 15.6615 11.4493 15.1875C11.5343 15.7405 11.6003 16.1375 11.6563 16.5385C11.8023 17.6235 11.9333 18.7095 12.0933 19.7915C12.1623 20.2655 12.2633 20.7645 13.0963 20.4425C13.0963 18.6725 13.0963 16.8455 13.0963 14.8445C13.8033 15.1905 14.2333 15.3995 14.6633 15.6105C14.7373 15.5445 14.8123 15.4785 14.8873 15.4115C14.6383 14.8785 14.3883 14.3455 14.1063 13.7425C14.6143 13.5925 15.0783 13.4565 15.4853 13.3365C15.9033 12.0205 14.5243 12.5265 14.1683 11.8455Z" fill="#AD1B1F"/>
<path d="M0.850006 8.90332C0.380006 8.90332 0 9.28332 0 9.75332C0 10.2223 0.380006 10.6033 0.850006 10.6033C1.32001 10.6033 1.70001 10.2223 1.70001 9.75332C1.70001 9.28332 1.32001 8.90332 0.850006 8.90332Z" fill="#AD1B1F"/>
<path d="M6.55359 18.0059C5.82059 18.0059 5.22461 18.5999 5.22461 19.3329C5.22461 20.0659 5.82059 20.6609 6.55359 20.6609C7.28659 20.6609 7.88058 20.0659 7.88058 19.3329C7.88158 18.5999 7.28759 18.0059 6.55359 18.0059Z" fill="#AD1B1F"/>
<path d="M19.6923 8.44824C19.1413 8.44824 18.6953 8.89324 18.6953 9.44324C18.6953 9.99324 19.1413 10.4392 19.6923 10.4392C20.2423 10.4392 20.6873 9.99324 20.6873 9.44324C20.6873 8.89424 20.2423 8.44824 19.6923 8.44824Z" fill="#AD1B1F"/>
<path d="M6.50989 0.022746C5.85589 -0.107254 5.1309 0.349751 4.5799 0.638751C4.4329 0.715751 4.42991 0.861746 4.49891 0.967746C4.32591 0.973746 4.15991 1.01675 4.01591 1.16775C3.68891 1.50875 3.71291 2.24274 3.77891 2.66574C3.94091 3.72474 4.8869 4.26474 5.8899 3.90074C6.9049 3.53074 7.46291 2.41975 7.44291 1.39175C7.42891 0.728749 7.23489 0.166746 6.50989 0.022746ZM6.5839 1.54575C6.5269 2.10475 6.14991 2.61875 5.66691 2.89675C5.31391 3.09875 4.9229 3.05975 4.7909 2.64575C4.6989 2.35575 4.71091 2.01174 4.71891 1.70574C4.73591 1.70174 4.74789 1.69775 4.78089 1.68675C4.93289 1.63875 5.07589 1.58074 5.23289 1.54074C5.45489 1.48474 5.45589 1.14875 5.23289 1.09375C5.13789 1.07075 5.04188 1.04275 4.94388 1.01775C5.29588 0.849749 5.6519 0.681748 6.0409 0.629748C6.6749 0.545748 6.6269 1.11075 6.5839 1.54575Z" fill="#AD1B1F"/>
</svg>
