<svg width="19" height="21" viewBox="0 0 19 21" fill="none" xmlns="http://www.w3.org/2000/svg">
<path fill-rule="evenodd" clip-rule="evenodd" d="M9.83881 7.50068C9.89381 5.98668 10.2428 4.54668 10.9108 3.18668C11.2328 2.52768 11.6768 1.95268 12.1878 1.43168C12.5828 1.03268 13.0158 0.87067 13.2548 0.36167C13.3358 0.18867 13.2348 0.0316805 13.0528 0.00968049C11.7398 -0.15132 10.6258 1.73567 10.0968 2.71067C9.3128 4.16067 9.01677 5.86768 9.00977 7.50068C9.00877 8.03568 9.81881 8.03168 9.83881 7.50068Z" fill="#AD1B1F"/>
<path fill-rule="evenodd" clip-rule="evenodd" d="M11.2084 5.49202C10.9914 5.93302 11.6293 6.31803 11.8733 5.88103C12.3443 5.03503 12.9203 4.28402 13.7013 3.70302C14.1133 3.39402 14.5783 3.21302 15.0923 3.18602C15.4593 3.16702 15.7694 3.26403 16.1304 3.16103C16.2624 3.12303 16.3134 2.97802 16.2524 2.86202C15.7644 1.91502 14.4433 2.27201 13.6803 2.63301C12.5423 3.16901 11.7404 4.40502 11.2084 5.49202Z" fill="#AD1B1F"/>
<path fill-rule="evenodd" clip-rule="evenodd" d="M12.3504 8.7567C13.2274 8.0937 14.1644 7.64871 15.2414 7.40471C16.4784 7.12471 17.3744 7.70173 18.3844 8.29873C18.5484 8.39673 18.7754 8.23571 18.7134 8.04671C17.7324 4.98771 13.4824 6.77072 11.8614 8.12172C11.5104 8.41472 11.9844 9.0317 12.3504 8.7567Z" fill="#AD1B1F"/>
<path fill-rule="evenodd" clip-rule="evenodd" d="M16.0752 10.8268C16.8002 11.2328 17.3363 11.8728 18.0403 12.2998C18.2553 12.4288 18.5873 12.2128 18.4883 11.9548C17.8333 10.2618 15.6942 9.54677 14.0592 9.25777C13.5942 9.17577 13.3862 9.86077 13.8612 9.97777C14.6422 10.1698 15.3722 10.4328 16.0752 10.8268Z" fill="#AD1B1F"/>
<path fill-rule="evenodd" clip-rule="evenodd" d="M11.8058 10.8656C11.4578 10.5306 10.9447 11.0446 11.2777 11.3926C11.7687 11.9036 12.2568 12.4156 12.6908 12.9766C13.0368 13.4236 13.3137 14.2606 13.8897 14.4106C14.0397 14.4496 14.1667 14.3616 14.2177 14.2246C14.4307 13.6536 13.8217 13.0416 13.4887 12.6206C12.9867 11.9836 12.3878 11.4246 11.8058 10.8656Z" fill="#AD1B1F"/>
<path fill-rule="evenodd" clip-rule="evenodd" d="M9.3212 20.4009C11.4682 18.7369 11.3472 15.9349 10.3792 13.6449C10.2002 13.2229 9.47324 13.5299 9.63724 13.9579C10.4852 16.1879 10.1762 18.0919 8.87723 20.0589C8.68323 20.3519 9.0882 20.5829 9.3212 20.4009Z" fill="#AD1B1F"/>
<path fill-rule="evenodd" clip-rule="evenodd" d="M5.53434 15.7843C6.21134 15.5053 6.7223 15.0063 7.0593 14.3613C7.3053 13.8893 6.60629 13.4763 6.34629 13.9433C6.03529 14.4993 5.60731 14.8433 5.00431 15.0453C4.53731 15.2013 3.96729 15.1664 3.55729 15.4574C3.40529 15.5644 3.40029 15.7673 3.55729 15.8723C4.11029 16.2463 4.96934 16.0193 5.53434 15.7843Z" fill="#AD1B1F"/>
<path fill-rule="evenodd" clip-rule="evenodd" d="M4.47354 11.4533C4.91354 11.2303 4.52857 10.6143 4.09457 10.8043C3.57757 11.0313 3.07156 11.1453 2.50656 11.1223C1.96756 11.0993 1.52753 10.7253 1.01053 10.6353C0.862527 10.6103 0.72757 10.7233 0.76657 10.8803C1.16357 12.4653 3.46154 11.9673 4.47354 11.4533Z" fill="#AD1B1F"/>
<path fill-rule="evenodd" clip-rule="evenodd" d="M2.97476 8.76738C3.43776 8.92238 3.61276 8.21838 3.17276 8.04738C1.35076 7.34038 1.01773 5.81739 0.634735 4.09539C0.572735 3.82139 0.122732 3.81039 0.0697323 4.09539C-0.324268 6.21739 0.992761 8.10738 2.97476 8.76738Z" fill="#AD1B1F"/>
<path fill-rule="evenodd" clip-rule="evenodd" d="M5.51099 6.70889C4.88599 5.65789 4.51695 4.55391 4.29395 3.35891C4.09495 2.29291 4.34699 1.23991 4.19299 0.18591C4.16299 -0.0260898 3.88799 -0.00110593 3.79199 0.131894C2.41099 2.01689 3.74497 5.38491 4.87097 7.08191C5.13397 7.47891 5.75799 7.12289 5.51099 6.70889Z" fill="#AD1B1F"/>
<path fill-rule="evenodd" clip-rule="evenodd" d="M6.76045 4.07455C6.61445 3.41055 6.56044 2.75054 6.56544 2.07254C6.57144 1.43854 6.69044 0.820534 6.59144 0.188534C6.56344 0.00353365 6.31544 0.0175366 6.22944 0.141537C5.46044 1.24654 5.74845 3.04455 6.04145 4.27255C6.15145 4.74155 6.86345 4.54155 6.76045 4.07455Z" fill="#AD1B1F"/>
<path fill-rule="evenodd" clip-rule="evenodd" d="M5.21597 10.4412C5.42897 11.7132 6.64001 12.4522 7.81101 12.7092C8.29301 12.8162 8.49599 12.0982 8.01499 11.9682C7.25299 11.7582 6.48803 11.3342 6.17703 10.5642C5.88803 9.84821 6.38898 9.3012 7.03098 9.0542C7.76498 8.7672 9.03698 8.61521 9.54898 9.37521C10.027 10.0892 9.035 10.5612 8.608 10.9162C8.39 11.0992 8.58598 11.4122 8.81998 11.4292C9.96598 11.5102 10.802 10.3002 10.49 9.2482C10.075 7.8402 8.30199 7.82722 7.15299 8.07022C6.03699 8.30622 5.00997 9.21722 5.21597 10.4412Z" fill="#AD1B1F"/>
</svg>
